<?xml version="1.0" encoding="utf-8"?>
<!-- Generator: Adobe Illustrator 18.1.1, SVG Export Plug-In . SVG Version: 6.00 Build 0)  -->
<svg version="1.1" id="Layer_1" xmlns="http://www.w3.org/2000/svg" xmlns:xlink="http://www.w3.org/1999/xlink" x="0px" y="0px"
	 viewBox="0 0 512 512" enable-background="new 0 0 512 512" xml:space="preserve">
<path d="M213.3,384c0-87,65.2-158.7,149.3-169.2c0-0.9,0-1.5,0-1.5c5.5-8,21.3-21.3,21.3-42.7s-21.3-42.7-21.3-53.3
	C362.7,32,319.2,0,256,0c-60.5,0-106.7,32-106.7,117.3c0,10.7-21.3,32-21.3,53.3s15.2,35.4,21.3,42.7c0,0,0,21.3,10.7,53.3
	c0,10.7,21.3,21.3,32,32c0,10.7,0,21.3-10.7,42.7L64,362.7C21.3,373.3,0,448,0,512h271.4C235.9,480.7,213.3,435,213.3,384z M384,256
	c-70.7,0-128,57.3-128,128s57.3,128,128,128s128-57.3,128-128S454.7,256,384,256z M469.3,405.3h-64v64h-42.7v-64h-64v-42.7h64v-64
	h42.7v64h64V405.3z"/>
</svg>
