<?xml version="1.0" encoding="utf-8"?>
<!-- Generator: Adobe Illustrator 18.1.1, SVG Export Plug-In . SVG Version: 6.00 Build 0)  -->
<svg version="1.1" id="Layer_1" xmlns="http://www.w3.org/2000/svg" xmlns:xlink="http://www.w3.org/1999/xlink" x="0px" y="0px"
	 viewBox="0 0 512 512" enable-background="new 0 0 512 512" xml:space="preserve">
<path d="M251,85.3c-117.8,0-213.3,95.5-213.3,213.3C37.7,416.5,133.2,512,251,512c117.8,0,213.3-95.5,213.3-213.3
	C464.3,180.9,368.8,85.3,251,85.3z M357.7,320h-128V149.3h42.7v128h85.3V320z M457.7,148.1c17.1-15.6,27.9-37.8,27.9-62.8
	c0-47.1-38.2-85.3-85.3-85.3c-35.6,0-66,21.8-78.8,52.7C377,68.6,424.6,102.7,457.7,148.1z M180.5,52.7C167.6,21.8,137.2,0,101.7,0
	C54.5,0,16.3,38.2,16.3,85.3c0,24.9,10.9,47.2,27.9,62.8C77.4,102.7,125,68.6,180.5,52.7z"/>
</svg>
