<?xml version="1.0" encoding="utf-8"?>
<!-- Generator: Adobe Illustrator 18.1.1, SVG Export Plug-In . SVG Version: 6.00 Build 0)  -->
<svg version="1.1" id="Layer_1" xmlns="http://www.w3.org/2000/svg" xmlns:xlink="http://www.w3.org/1999/xlink" x="0px" y="0px"
	 viewBox="0 0 512 512" enable-background="new 0 0 512 512" xml:space="preserve">
<path d="M421.2,128h-42.7v21.3c0,23.5-19.1,42.7-42.7,42.7c-23.5,0-42.7-19.1-42.7-42.7V128h-85.3v21.3c0,23.5-19.1,42.7-42.7,42.7
	c-23.5,0-42.7-19.1-42.7-42.7V128H79.9c0,213.3-21.3,384-21.3,384h384C442.5,512,421.2,341.3,421.2,128z M165.2,170.7
	c11.8,0,21.3-9.5,21.3-21.3v-42.7c0-35.4,28.6-64,64-64c35.4,0,64,28.6,64,64v42.7c0,11.8,9.5,21.3,21.3,21.3
	c11.8,0,21.3-9.5,21.3-21.3v-42.7C357.2,47.8,309.4,0,250.5,0c-58.9,0-106.7,47.8-106.7,106.7v42.7
	C143.9,161.1,153.4,170.7,165.2,170.7z"/>
</svg>
