<?xml version="1.0" encoding="utf-8"?>
<!-- Generator: Adobe Illustrator 18.1.1, SVG Export Plug-In . SVG Version: 6.00 Build 0)  -->
<svg version="1.1" id="Layer_1" xmlns="http://www.w3.org/2000/svg" xmlns:xlink="http://www.w3.org/1999/xlink" x="0px" y="0px"
	 viewBox="0 0 512 512" enable-background="new 0 0 512 512" xml:space="preserve">
<path d="M365.7,102.4v146.3H512V102.4H365.7z M475.4,212.1h-73.1V139h73.1V212.1z M0,431.6h146.3V285.3H0V431.6z M36.6,321.9h73.1
	V395H36.6V321.9z M0,248.7h146.3V102.4H0V248.7z M36.6,139h73.1v73.1H36.6V139z M182.9,248.7h146.3V102.4H182.9V248.7z M219.4,139
	h73.1v73.1h-73.1V139z M182.9,431.6h146.3V285.3H182.9V431.6z M219.4,321.9h73.1V395h-73.1V321.9z M365.7,431.6H512V285.3H365.7
	V431.6z M402.3,321.9h73.1V395h-73.1V321.9z"/>
</svg>
