<?xml version="1.0" encoding="utf-8"?>
<!-- Generator: Adobe Illustrator 18.1.1, SVG Export Plug-In . SVG Version: 6.00 Build 0)  -->
<svg version="1.1" id="Layer_1" xmlns="http://www.w3.org/2000/svg" xmlns:xlink="http://www.w3.org/1999/xlink" x="0px" y="0px"
	 viewBox="0 0 512 512" enable-background="new 0 0 512 512" xml:space="preserve">
<path d="M170.7,426.7c0,0-42.7,42.7-64,42.7c-35.4,0-64-28.6-64-64c0-21.3,42.7-64,42.7-64l83.4-83.4c-6.3-1.2-12.7-2-19.4-2
	c-24.4,0-46.1,7.5-64,21.3l-64,64C8,359,0,381.5,0,405.3C0,464.2,47.8,512,106.7,512c24,0,46.3-7.9,64-21.3l64-64
	c13.6-17.7,21.3-39.9,21.3-64c0-6.7-0.8-13.1-2-19.4L170.7,426.7z M405.3,0c-24,0-46.3,7.9-64,21.3l-64,64
	c-13.6,17.7-21.3,39.9-21.3,64c0,6.7,0.8,13.1,2,19.4l83.4-83.4c0,0,42.7-42.7,64-42.7c35.4,0,64,28.6,64,64c0,21.3-42.7,64-42.7,64
	L343.3,254c6.3,1.2,12.8,2,19.4,2c24.4,0,46.1-7.5,64-21.3l64-64c13.3-17.6,21.3-40.1,21.3-64C512,47.8,464.2,0,405.3,0z
	 M149.3,330.7c0,17.7,14.3,32,32,32c12.6,0,23.4-7.4,28.6-18L344.7,210c10.6-5.2,18-16,18-28.6c0-17.7-14.3-32-32-32
	c-12.6,0-23.4,7.4-28.6,18L167.3,302C156.7,307.3,149.3,318.1,149.3,330.7z"/>
</svg>
