<?xml version="1.0" encoding="utf-8"?>
<!-- Generator: Adobe Illustrator 18.1.1, SVG Export Plug-In . SVG Version: 6.00 Build 0)  -->
<svg version="1.1" id="Layer_1" xmlns="http://www.w3.org/2000/svg" xmlns:xlink="http://www.w3.org/1999/xlink" x="0px" y="0px"
	 viewBox="0 0 512 512" enable-background="new 0 0 512 512" xml:space="preserve">
<path d="M149.3,0h-42.7v64h42.7V0z M405.3,0h-42.7v64h42.7V0z M234.7,384H192V192l-85.3,21.3v32l42.7-10.7V384h-42.7v21.3h128V384z
	 M426.7,0v85.3h-85.3V0H170.7v85.3H85.3V0H0v512h512V0H426.7z M469.3,469.3H42.7V128h426.7V469.3z M320,405.3
	c53.3,0,85.3-42.7,85.3-106.7S373.3,192,320,192c-53.4,0-85.3,42.7-85.3,106.7S266.7,405.3,320,405.3z M320,224
	c21.3,0,32,32,32,74.7s-10.7,74.7-32,74.7s-32-32-32-74.7S298.7,224,320,224z"/>
</svg>
