<?xml version="1.0" encoding="utf-8"?>
<!-- Generator: Adobe Illustrator 18.1.1, SVG Export Plug-In . SVG Version: 6.00 Build 0)  -->
<svg version="1.1" id="Layer_1" xmlns="http://www.w3.org/2000/svg" xmlns:xlink="http://www.w3.org/1999/xlink" x="0px" y="0px"
	 viewBox="0 0 512 512" enable-background="new 0 0 512 512" xml:space="preserve">
<path d="M362.7,320H320v42.7h42.7V320z M362.7,234.7H320v42.7h42.7V234.7z M362.7,149.3H320V192h42.7V149.3z M277.3,234.7h-42.7
	v42.7h42.7V234.7z M277.3,149.3h-42.7V192h42.7V149.3z M277.3,320h-42.7v42.7h42.7V320z M448,149.3h-42.7V192H448V149.3z M448,234.7
	h-42.7v42.7H448V234.7z M448,320h-42.7v42.7H448V320z M106.7,405.3H64V448h42.7V405.3z M106.7,320H64v42.7h42.7V320z M277.3,405.3
	h-42.7V448h42.7V405.3z M192,405.3h-42.7V448H192V405.3z M0,0v512h512V0H0z M469.3,469.3H42.7V128h426.7V469.3z M106.7,234.7H64
	v42.7h42.7V234.7z M192,320h-42.7v42.7H192V320z M192,149.3h-42.7V192H192V149.3z M192,234.7h-42.7v42.7H192V234.7z M362.7,405.3
	H320V448h42.7V405.3z"/>
</svg>
