<?xml version="1.0" encoding="utf-8"?>
<!-- Generator: Adobe Illustrator 18.1.1, SVG Export Plug-In . SVG Version: 6.00 Build 0)  -->
<svg version="1.1" id="Layer_1" xmlns="http://www.w3.org/2000/svg" xmlns:xlink="http://www.w3.org/1999/xlink" x="0px" y="0px"
	 viewBox="0 0 512 512" enable-background="new 0 0 512 512" xml:space="preserve">
<path d="M149.3,0h-42.7v64h42.7V0z M405.3,0h-42.7v64h42.7V0z M148.9,426.7h214.3c33,0,52.3-22.2,35.9-49.4L286,190.9
	c-16.5-27.2-43.4-27.2-59.9,0L113,377.3C96.5,404.4,115.9,426.7,148.9,426.7z M234.7,234.7h42.7v106.7h-42.7V234.7z M234.7,362.7
	h42.7v42.7h-42.7V362.7z M426.7,0v85.3h-85.3V0H170.7v85.3H85.3V0H0v512h512V0H426.7z M469.3,469.3H42.7V128h426.7V469.3z"/>
</svg>
