<?xml version="1.0" encoding="utf-8"?>
<!-- Generator: Adobe Illustrator 18.1.1, SVG Export Plug-In . SVG Version: 6.00 Build 0)  -->
<svg version="1.1" id="Layer_1" xmlns="http://www.w3.org/2000/svg" xmlns:xlink="http://www.w3.org/1999/xlink" x="0px" y="0px"
	 viewBox="0 0 512 512" enable-background="new 0 0 512 512" xml:space="preserve">
<path d="M256.5,1.5C115.4,1.5,1,115.9,1,257c0,141.1,114.4,255.5,255.5,255.5C397.6,512.5,512,398.1,512,257
	C512,115.9,397.6,1.5,256.5,1.5z M405.5,260.5C394.2,328.7,381.3,406,320.7,406c-60.6,0-73.5-77.3-84.9-145.5
	c-8.2-49-18.3-110-42.9-110c-24.5,0-34.7,61-42.9,110c-9.1,54.4-19.2,114.4-53.6,136.6c-9.6-10.9-18.1-22.8-25.3-35.5
	c20.2-9.3,29.4-63.4,36.9-108.1c11.4-68.2,24.3-145.5,84.9-145.5c60.6,0,73.5,77.3,84.9,145.5c8.2,49,18.3,110,42.9,110
	c24.6,0,34.7-61,42.9-110c9-54.2,19.1-114,53.2-136.4c9.5,10.9,18,22.7,25.2,35.5C422.1,162.4,412.9,216.1,405.5,260.5z"/>
</svg>
