<?xml version="1.0" encoding="utf-8"?>
<!-- Generator: Adobe Illustrator 18.1.1, SVG Export Plug-In . SVG Version: 6.00 Build 0)  -->
<svg version="1.1" id="Layer_1" xmlns="http://www.w3.org/2000/svg" xmlns:xlink="http://www.w3.org/1999/xlink" x="0px" y="0px"
	 viewBox="0 0 512 512" enable-background="new 0 0 512 512" xml:space="preserve">
<path d="M263,0C121.6,0,7,114.6,7,256s114.6,256,256,256c141.4,0,256-114.6,256-256S404.4,0,263,0z M263,472.6
	c-119.6,0-216.6-97-216.6-216.6S143.4,39.4,263,39.4c119.6,0,216.6,97,216.6,216.6S382.7,472.6,263,472.6z M263,78.8
	c-97.9,0-177.2,79.3-177.2,177.2S165.2,433.2,263,433.2c97.9,0,177.2-79.3,177.2-177.2S360.9,78.8,263,78.8z"/>
</svg>
