<?xml version="1.0" encoding="utf-8"?>
<!-- Generator: Adobe Illustrator 18.1.1, SVG Export Plug-In . SVG Version: 6.00 Build 0)  -->
<svg version="1.1" id="Layer_1" xmlns="http://www.w3.org/2000/svg" xmlns:xlink="http://www.w3.org/1999/xlink" x="0px" y="0px"
	 viewBox="0 0 512 512" enable-background="new 0 0 512 512" xml:space="preserve">
<path d="M256,0C114.6,0,0,114.6,0,256c0,141.4,114.6,256,256,256s256-114.6,256-256C512,114.6,397.4,0,256,0z M277.3,446.7v-84.1
	h-42.7v84c-89-9.9-159.5-80.4-169.4-169.4h84.1v-42.7h-84c9.9-89,80.4-159.5,169.4-169.4v84.1h42.7V65.3
	c89,9.9,159.5,80.5,169.4,169.4h-84v42.7h84C436.9,366.3,366.3,436.9,277.3,446.7z"/>
</svg>
