<?xml version="1.0" encoding="utf-8"?>
<!-- Generator: Adobe Illustrator 18.1.1, SVG Export Plug-In . SVG Version: 6.00 Build 0)  -->
<svg version="1.1" id="Layer_1" xmlns="http://www.w3.org/2000/svg" xmlns:xlink="http://www.w3.org/1999/xlink" x="0px" y="0px"
	 viewBox="0 0 512 512" enable-background="new 0 0 512 512" xml:space="preserve">
<path d="M256,0C114.6,0,0,114.6,0,256c0,141.4,114.6,256,256,256s256-114.6,256-256C512,114.6,397.4,0,256,0z M256,42.7
	c35.4,0,64,28.6,64,64s-28.6,64-64,64s-64-28.6-64-64S220.6,42.7,256,42.7z M53.3,213.3c0-35.4,28.6-64,64-64s64,28.6,64,64
	s-28.6,64-64,64S53.3,248.7,53.3,213.3z M170.7,437.3c-35.4,0-64-28.6-64-64s28.6-64,64-64s64,28.6,64,64S206,437.3,170.7,437.3z
	 M213.3,256c0-23.5,19.1-42.7,42.7-42.7s42.7,19.1,42.7,42.7s-19.1,42.7-42.7,42.7S213.3,279.5,213.3,256z M341.3,437.3
	c-35.4,0-64-28.6-64-64s28.6-64,64-64s64,28.6,64,64S376.7,437.3,341.3,437.3z M394.7,277.3c-35.4,0-64-28.6-64-64s28.6-64,64-64
	s64,28.6,64,64S430,277.3,394.7,277.3z"/>
</svg>
