<?xml version="1.0" encoding="utf-8"?>
<!-- Generator: Adobe Illustrator 18.1.1, SVG Export Plug-In . SVG Version: 6.00 Build 0)  -->
<svg version="1.1" id="Layer_1" xmlns="http://www.w3.org/2000/svg" xmlns:xlink="http://www.w3.org/1999/xlink" x="0px" y="0px"
	 viewBox="0 0 512 512" enable-background="new 0 0 512 512" xml:space="preserve">
<path d="M401.1,130.5c-22.1,28.2-30.3,77-37.8,122c-8.2,49.1-18.4,110.2-43,110.2c-24.6,0-34.8-61.1-43-110.2
	c-11.4-68.4-24.3-145.8-85-145.8c-60.7,0-73.6,77.5-85,145.8c-5.3,32-11.6,68.9-22.1,90.8c7.1,13.9,15.9,26.9,26.1,38.6
	c22.3-28.1,30.6-77.2,38.1-122.4c8.2-49.1,18.4-110.2,43-110.2c24.6,0,34.8,61.1,43,110.2c11.4,68.3,24.3,145.8,85,145.8
	c60.7,0,73.6-77.5,85-145.8c5.3-31.8,11.5-68.2,21.8-90.3C420,155.2,411.2,142.2,401.1,130.5z M256,0C114.6,0,0,114.6,0,256
	c0,141.4,114.6,256,256,256c141.4,0,256-114.6,256-256C512,114.6,397.4,0,256,0z M256,469.3c-117.8,0-213.3-95.5-213.3-213.3
	c0-117.8,95.5-213.3,213.3-213.3c117.8,0,213.3,95.5,213.3,213.3C469.3,373.8,373.8,469.3,256,469.3z"/>
</svg>
