<?xml version="1.0" encoding="utf-8"?>
<!-- Generator: Adobe Illustrator 18.1.1, SVG Export Plug-In . SVG Version: 6.00 Build 0)  -->
<svg version="1.1" id="Layer_1" xmlns="http://www.w3.org/2000/svg" xmlns:xlink="http://www.w3.org/1999/xlink" x="0px" y="0px"
	 viewBox="0 0 512 512" enable-background="new 0 0 512 512" xml:space="preserve">
<path d="M256,0C114.6,0,0,114.6,0,256c0,141.4,114.6,256,256,256s256-114.6,256-256C512,114.6,397.4,0,256,0z M256,64
	c35.4,0,64,28.6,64,64s-28.6,64-64,64c-35.4,0-64-28.6-64-64S220.6,64,256,64z M341.3,448H170.7v-21.3H192V256h-21.3v-21.3H320v192
	h21.3V448z"/>
</svg>
