<?xml version="1.0" encoding="utf-8"?>
<!-- Generator: Adobe Illustrator 18.1.1, SVG Export Plug-In . SVG Version: 6.00 Build 0)  -->
<svg version="1.1" id="Layer_1" xmlns="http://www.w3.org/2000/svg" xmlns:xlink="http://www.w3.org/1999/xlink" x="0px" y="0px"
	 viewBox="0 0 512 512" enable-background="new 0 0 512 512" xml:space="preserve">
<path d="M256,0C114.6,0,0,114.6,0,256s114.6,256,256,256c70.7,0,134.7-28.6,181-75c46.3-46.4,75-110.4,75-181
	C512,114.6,397.4,0,256,0z M256,256c-96.7-96.7-160.9-96-200.8-71.5C84.6,101.9,163.3,42.7,256,42.7c117.8,0,213.3,95.5,213.3,213.3
	c0,25.1-4.6,49.1-12.5,71.5C416.9,352,352.7,352.7,256,256z"/>
</svg>
