<?xml version="1.0" encoding="utf-8"?>
<!-- Generator: Adobe Illustrator 18.1.1, SVG Export Plug-In . SVG Version: 6.00 Build 0)  -->
<svg version="1.1" id="Layer_1" xmlns="http://www.w3.org/2000/svg" xmlns:xlink="http://www.w3.org/1999/xlink" x="0px" y="0px"
	 viewBox="0 0 512 512" enable-background="new 0 0 512 512" xml:space="preserve">
<path d="M362.7,42.7v74.9c3.2,0.9,6.3,1.8,9.5,2.7c41,11.7,83.5,23.8,104.3,42.4c24.2,21.7,8.1,50.4-6.2,75.7
	c-11,19.4-22.3,39.5-22.3,60.2h-21.3c0-26.3,13.3-49.9,25-70.7c15.6-27.7,21-40,10.5-49.3c-17.1-15.4-59-27.3-95.9-37.8
	c-1.3-0.4-2.4-0.7-3.7-1.1V512L512,469.3V0L362.7,42.7z M490.7,405.3l-21.3,21.3l-32-32l-32,32L384,405.3l32-32l-32-32l21.3-21.3
	l32,32l32-32l21.3,21.3l-32,32L490.7,405.3z M170.7,346.6c15.8-8.6,34.5-12.1,56.7-4.7c14.6,4.9,19-0.8,20.8-3.2
	c8.1-10.7,10.1-18.7,7.8-18.7c7.2,0,14.9,2.2,21.3,0c0,10.7-4,20.9-12.2,31.6c-5.7,7.6-19.2,18.9-44.5,10.5
	c-19.6-6.5-35.4-1.2-50,10.3v97L341.3,512V133.5c-18.2-5.4-34.8-11-47.4-17.3c-21-10.5-51-6.7-64.1,8.1c-11.3,12.7-4.6,29,3.1,40.4
	c3.5,5.3,9.1,20.8,12.5,27.2c-7.2,1.4-15.2-3.6-21.3,0c-2.6-4.9-6-11.1-8.9-15.4c-16.4-24.6-16.9-48.8-1.3-66.4
	c19.6-22.1,59.8-28,89.6-13.1c9.9,4.9,23.2,9.5,37.9,14.1V42.7L170.6,0L170.7,346.6L170.7,346.6z M256,213.3
	c23.5,0,42.7,19.1,42.7,42.7c0,23.6-19.1,42.7-42.7,42.7c-23.5,0-42.7-19.1-42.7-42.7C213.3,232.5,232.5,213.3,256,213.3z M0,512
	l149.3-42.7v-74.7c-4.1,5-8.3,9.3-12.5,14.8c-9.5,12.6-17,22.5-25.4,26.7c-4.9,2.5-10,3.6-15.1,3.6c-23.7,0-47.4-23.7-61.2-37.6
	c-17.6-17.6-3.4-39.4,9.2-58.5c9.2-14.1,19.7-30.1,19.7-45v-85.3h21.3v85.3c0,21.3-12.3,40.1-23.2,56.7
	C50,374,45.6,382.5,50.2,387.1c17.3,17.3,38.8,36.5,51.7,30c3.9-2,11.4-11.8,18-20.5c8.1-10.7,17.8-23.1,29.5-34V0L0,42.7L0,512
	L0,512z M74.7,128c17.7,0,32,14.3,32,32c0,17.7-14.3,32-32,32c-17.7,0-32-14.3-32-32C42.7,142.3,57,128,74.7,128z"/>
</svg>
