<?xml version="1.0" encoding="utf-8"?>
<!-- Generator: Adobe Illustrator 18.1.1, SVG Export Plug-In . SVG Version: 6.00 Build 0)  -->
<svg version="1.1" id="Layer_1" xmlns="http://www.w3.org/2000/svg" xmlns:xlink="http://www.w3.org/1999/xlink" x="0px" y="0px"
	 viewBox="0 0 512 512" enable-background="new 0 0 512 512" xml:space="preserve">
<path d="M470.7,280.2c2.9-11.2,4.7-22.9,4.7-35c0-75.8-61.4-137.1-137.1-137.1c-19.5,0-37.9,4.1-54.7,11.4
	c-16.8-39-55.6-66.3-100.7-66.3c-60.6,0-109.7,49.1-109.7,109.7c0,4.1,0.8,7.9,1.2,11.9C30.5,195.1,0,239.3,0,290.9
	c0,70.7,57.3,128,128,128h310.9c40.4,0,73.1-32.7,73.1-73.1C512,316.8,495.1,292.1,470.7,280.2z M365.7,254.3h-91.4l33.4-33.4
	c-13.2-13.2-31.5-21.4-51.7-21.4c-40.4,0-73.1,32.7-73.1,73.1s32.7,73.1,73.1,73.1c24.9,0,46.8-12.5,60-31.4l25.9,25.9
	c-20.1,25.5-50.9,42.2-85.8,42.2c-60.6,0-109.7-49.1-109.7-109.7c0-60.6,49.1-109.7,109.7-109.7c30.3,0,57.7,12.3,77.6,32.1
	l32.1-32.1V254.3z"/>
</svg>
