<?xml version="1.0" encoding="utf-8"?>
<!-- Generator: Adobe Illustrator 18.1.1, SVG Export Plug-In . SVG Version: 6.00 Build 0)  -->
<svg version="1.1" id="Layer_1" xmlns="http://www.w3.org/2000/svg" xmlns:xlink="http://www.w3.org/1999/xlink" x="0px" y="0px"
	 viewBox="0 0 512 512" enable-background="new 0 0 512 512" xml:space="preserve">
<path d="M232.5,343.9c-10.4-18-19.2-36.5-27.2-55.2c-35.2,60.1-57.8,126.7-66.6,195.5c67.3,34.6,148.5,38.6,221.2,6.3
	C309.9,451.2,266.2,402.3,232.5,343.9z M258.7,316.4c34.5,60.5,80.8,113.4,136,155.4c63.6-41,107.7-109.4,116-188.4
	c-59,23.6-123.2,37-190.6,37C299.3,320.4,278.9,318.8,258.7,316.4z M202.6,228.5C132.9,228.1,63.9,241.8,0,268.6
	c3.7,75.6,40.8,147.9,105.2,194.7c9-62.9,29.5-125.2,63.3-183.6C178.8,261.7,190.4,244.8,202.6,228.5z M253.3,196.1
	c-34.5-60.5-80.8-113.5-136-155.4C53.7,81.7,9.6,150.1,1.3,229.1c59-23.6,123.2-37,190.6-37C212.7,192.1,233.1,193.7,253.3,196.1z
	 M279.5,168.7c10.4,18,19.2,36.5,27.2,55.2c35.2-60.1,57.8-126.7,66.6-195.5C306-6.2,224.8-10.2,152.1,22.1
	C202.1,61.3,245.8,110.3,279.5,168.7z M309.4,284c69.7,0.4,138.7-13.3,202.6-40.1C508.3,168.3,471.2,96,406.9,49.2
	c-9,62.9-29.6,125.2-63.3,183.6C333.2,250.8,321.6,267.7,309.4,284z"/>
</svg>
