<?xml version="1.0" encoding="utf-8"?>
<!-- Generator: Adobe Illustrator 18.1.1, SVG Export Plug-In . SVG Version: 6.00 Build 0)  -->
<svg version="1.1" id="Layer_1" xmlns="http://www.w3.org/2000/svg" xmlns:xlink="http://www.w3.org/1999/xlink" x="0px" y="0px"
	 viewBox="0 0 512 512" enable-background="new 0 0 512 512" xml:space="preserve">
<path d="M236.3,452.9h39.4v-39.4h-39.4V452.9z M275.7,59.1h-39.4v39.4h39.4V59.1z M59.1,275.7h39.4v-39.4H59.1V275.7z M256,0
	C114.6,0,0,114.6,0,256s114.6,256,256,256c141.4,0,256-114.6,256-256S397.4,0,256,0z M256,472.6c-119.6,0-216.6-97-216.6-216.6
	S136.4,39.4,256,39.4c119.6,0,216.6,97,216.6,216.6S375.6,472.6,256,472.6z M137.8,256c0,65.2,52.9,118.2,118.2,118.2
	c65.2,0,118.2-52.9,118.2-118.2V137.8H256C190.8,137.8,137.8,190.8,137.8,256z M256,196.9c-32.6,0-59.1,26.4-59.1,59.1h-19.7
	c0-43.5,35.3-78.8,78.8-78.8V196.9z M413.5,236.3v39.4h39.4v-39.4H413.5z"/>
</svg>
