<?xml version="1.0" encoding="utf-8"?>
<!-- Generator: Adobe Illustrator 18.1.1, SVG Export Plug-In . SVG Version: 6.00 Build 0)  -->
<svg version="1.1" id="Layer_1" xmlns="http://www.w3.org/2000/svg" xmlns:xlink="http://www.w3.org/1999/xlink" x="0px" y="0px"
	 viewBox="0 0 512 512" enable-background="new 0 0 512 512" xml:space="preserve">
<path d="M256,0C114.6,0,0,114.6,0,256s114.6,256,256,256s256-114.6,256-256S397.4,0,256,0z M256,472.6
	c-119.6,0-216.6-97-216.6-216.6S136.4,39.4,256,39.4s216.6,97,216.6,216.6S375.6,472.6,256,472.6z M118.2,393.8l187.1-88.6
	l88.6-187.1l-187.1,88.6L118.2,393.8z M285.5,285.5l-118.2,59.1l59.1-118.2L285.5,285.5z"/>
</svg>
