<?xml version="1.0" encoding="utf-8"?>
<!-- Generator: Adobe Illustrator 18.1.1, SVG Export Plug-In . SVG Version: 6.00 Build 0)  -->
<svg version="1.1" id="Layer_1" xmlns="http://www.w3.org/2000/svg" xmlns:xlink="http://www.w3.org/1999/xlink" x="0px" y="0px"
	 viewBox="0 0 512 512" enable-background="new 0 0 512 512" xml:space="preserve">
<path d="M469.3,106.7H42.7v-64h298.7v42.7H384V42.7C384,19.1,364.9,0,341.3,0H42.7C19.1,0,0,19.1,0,42.7v426.7
	C0,492.9,19.1,512,42.7,512h426.7c23.6,0,42.7-19.1,42.7-42.7V384H405.3c-23.6,0-42.7-19.1-42.7-42.7v-64
	c0-23.5,19.1-42.7,42.7-42.7H512v-85.3C512,125.8,492.9,106.7,469.3,106.7z M405.3,341.3H512v-64H405.3V341.3z"/>
</svg>
