<?xml version="1.0" encoding="utf-8"?>
<!-- Generator: Adobe Illustrator 18.1.1, SVG Export Plug-In . SVG Version: 6.00 Build 0)  -->
<svg version="1.1" id="Layer_1" xmlns="http://www.w3.org/2000/svg" xmlns:xlink="http://www.w3.org/1999/xlink" x="0px" y="0px"
	 viewBox="0 0 512 512" enable-background="new 0 0 512 512" xml:space="preserve">
<path d="M202.5,93.1h93.1V0h-93.1V93.1z M342.1,0v93.1h93.1V0H342.1z M62.8,93.1h93.1V0H62.8V93.1z M202.5,232.7h93.1v-93.1h-93.1
	V232.7z M342.1,232.7h93.1v-93.1h-93.1V232.7z M62.8,232.7h93.1v-93.1H62.8V232.7z M202.5,372.4h93.1v-93.1h-93.1V372.4z
	 M342.1,372.4h93.1v-93.1h-93.1V372.4z M62.8,372.4h93.1v-93.1H62.8V372.4z M202.5,512h93.1v-93.1h-93.1V512z"/>
</svg>
