<?xml version="1.0" encoding="utf-8"?>
<!-- Generator: Adobe Illustrator 18.1.1, SVG Export Plug-In . SVG Version: 6.00 Build 0)  -->
<svg version="1.1" id="Layer_1" xmlns="http://www.w3.org/2000/svg" xmlns:xlink="http://www.w3.org/1999/xlink" x="0px" y="0px"
	 viewBox="0 0 512 512" enable-background="new 0 0 512 512" xml:space="preserve">
<path d="M42.7,469.3c0,23.5,19.1,42.7,42.7,42.7h341.3c23.5,0,42.7-19.1,42.7-42.7V192H42.7V469.3z M362.7,256h42.7v192h-42.7V256z
	 M234.7,256h42.7v192h-42.7V256z M106.7,256h42.7v192h-42.7V256z M490.7,85.3h-128V42.7C362.7,19.1,343.5,0,320,0H192
	c-23.5,0-42.7,19.1-42.7,42.7v42.7h-128C9.5,85.3,0,94.9,0,106.7V128c0,11.8,9.5,21.3,21.3,21.3h469.3c11.8,0,21.3-9.5,21.3-21.3
	v-21.3C512,94.9,502.5,85.3,490.7,85.3z M320,85.3H192V42.7h128V85.3z"/>
</svg>
