<?xml version="1.0" encoding="utf-8"?>
<!-- Generator: Adobe Illustrator 18.1.1, SVG Export Plug-In . SVG Version: 6.00 Build 0)  -->
<svg version="1.1" id="Layer_1" xmlns="http://www.w3.org/2000/svg" xmlns:xlink="http://www.w3.org/1999/xlink" x="0px" y="0px"
	 viewBox="0 0 512 512" enable-background="new 0 0 512 512" xml:space="preserve">
<path d="M307.5,64.4c31.9,0,69.2,14,95.8,31.9V21.8C376.3,8.9,339.5,0.5,307.5,0.5c-53.2,0-90.9,14.2-126.5,44.8
	c-35.6,30.6-63.1,71.4-75.8,125.5H62.7v63.9h42.6v42.6H62.7v63.9h42.6c21.3,117.1,95.8,170.3,202.3,170.3c42.6,0,62.8-4.2,95.8-21.3
	v-74.5c-32.6,20-65.9,31.9-95.8,31.9c-64.2,0-103-34-119.5-106.3l172.7-0.1v-63.9H190.4v-42.6h170.3v-63.9H190.4
	c8.9-33.8,23.8-59.3,46.1-79.4C258.9,71.3,275.6,64.4,307.5,64.4z"/>
</svg>
