<?xml version="1.0" encoding="utf-8"?>
<!-- Generator: Adobe Illustrator 18.1.1, SVG Export Plug-In . SVG Version: 6.00 Build 0)  -->
<svg version="1.1" id="Layer_1" xmlns="http://www.w3.org/2000/svg" xmlns:xlink="http://www.w3.org/1999/xlink" x="0px" y="0px"
	 viewBox="0 0 512 512" enable-background="new 0 0 512 512" xml:space="preserve">
<path d="M0,226v32c128,192,384,192,512,0v-32C384,34,128,34,0,226z M256,370c-70.7,0-128-57.3-128-128s57.3-128,128-128
	s128,57.3,128,128S326.7,370,256,370z M256,170c0-8.3,1.7-16.1,4.3-23.6c-1.5-0.1-2.8-0.4-4.3-0.4c-53,0-96,43-96,96s43,96,96,96
	c53,0,96-43,96-96c0-1.5-0.4-2.8-0.4-4.3c-7.4,2.6-15.3,4.3-23.6,4.3C288.2,242,256,209.8,256,170z"/>
</svg>
