<?xml version="1.0" encoding="utf-8"?>
<!-- Generator: Adobe Illustrator 18.1.1, SVG Export Plug-In . SVG Version: 6.00 Build 0)  -->
<svg version="1.1" id="Layer_1" xmlns="http://www.w3.org/2000/svg" xmlns:xlink="http://www.w3.org/1999/xlink" x="0px" y="0px"
	 viewBox="0 0 512 512" enable-background="new 0 0 512 512" xml:space="preserve">
<path d="M69.8,0C31.3,0,0,31.2,0,69.8c0,38.6,31.3,69.8,69.8,69.8c38.6,0,69.8-31.3,69.8-69.8C139.6,31.2,108.4,0,69.8,0z
	 M69.8,104.7c-19.3,0-34.9-15.6-34.9-34.9s15.6-34.9,34.9-34.9c19.3,0,34.9,15.6,34.9,34.9S89.1,104.7,69.8,104.7z M512,93.1V0
	H209.5v512h116.4V302.5h162.9v-93.1H325.8V93.1H512z"/>
</svg>
