<?xml version="1.0" encoding="utf-8"?>
<!-- Generator: Adobe Illustrator 18.1.1, SVG Export Plug-In . SVG Version: 6.00 Build 0)  -->
<svg version="1.1" id="Layer_1" xmlns="http://www.w3.org/2000/svg" xmlns:xlink="http://www.w3.org/1999/xlink" x="0px" y="0px"
	 viewBox="0 0 512 512" enable-background="new 0 0 512 512" xml:space="preserve">
<path d="M325.5,0v128h128L325.5,0z M304.2,0H69.5v512h384V149.3H304.2V0z M368.2,277.3c23.5,0,42.7,19.1,42.7,42.7
	s-19.1,42.7-42.7,42.7c-23.5,0-42.7-19.1-42.7-42.7S344.6,277.3,368.2,277.3z M154.8,362.7c-23.5,0-42.7-19.1-42.7-42.7
	s19.1-42.7,42.7-42.7c23.5,0,42.7,19.1,42.7,42.7S178.4,362.7,154.8,362.7z M261.5,362.7c-23.5,0-42.7-19.1-42.7-42.7
	s19.1-42.7,42.7-42.7c23.5,0,42.7,19.1,42.7,42.7S285,362.7,261.5,362.7z"/>
</svg>
