<?xml version="1.0" encoding="utf-8"?>
<!-- Generator: Adobe Illustrator 18.1.1, SVG Export Plug-In . SVG Version: 6.00 Build 0)  -->
<svg version="1.1" id="Layer_1" xmlns="http://www.w3.org/2000/svg" xmlns:xlink="http://www.w3.org/1999/xlink" x="0px" y="0px"
	 viewBox="0 0 512 512" enable-background="new 0 0 512 512" xml:space="preserve">
<path d="M320,0v128h128L320,0z M256,405.3c35.4,0,64-28.6,64-64c0-9.4-2.1-18.2-5.7-26.2l-84.5,84.5
	C237.8,403.2,246.6,405.3,256,405.3z M298.7,0H64v512h384V149.3H298.7V0z M362.7,341.3c0,58.9-47.8,106.7-106.7,106.7
	c-58.9,0-106.7-47.7-106.7-106.7c0-58.9,47.8-106.7,106.7-106.7C314.9,234.7,362.7,282.4,362.7,341.3z M192,341.3
	c0,9.4,2.1,18.2,5.7,26.2l84.5-84.5c-8-3.6-16.9-5.8-26.2-5.8C220.6,277.3,192,306,192,341.3z"/>
</svg>
