<?xml version="1.0" encoding="utf-8"?>
<!-- Generator: Adobe Illustrator 18.1.1, SVG Export Plug-In . SVG Version: 6.00 Build 0)  -->
<svg version="1.1" id="Layer_1" xmlns="http://www.w3.org/2000/svg" xmlns:xlink="http://www.w3.org/1999/xlink" x="0px" y="0px"
	 viewBox="0 0 512 512" enable-background="new 0 0 512 512" xml:space="preserve">
<path d="M475.4,137.1c0-8-10.3-18.3-18.3-18.3H274.3l-9.1-36.6c-1.3-7.8-10.3-18.3-18.3-18.3h-128c-7.9,0-17,10.4-18.3,18.3
	l-9.1,36.6H54.9c-7.9,0-18.3,10.3-18.3,18.3v18.3h438.9V137.1z M0,192l36.6,237.7c0,8,10.3,18.3,18.3,18.3h402.3
	c8,0,18.3-10.3,18.3-18.3L512,192H0z M256,411.4L164.6,320h54.9v-73.1h73.1V320h54.9L256,411.4z"/>
</svg>
