<?xml version="1.0" encoding="utf-8"?>
<!-- Generator: Adobe Illustrator 18.1.1, SVG Export Plug-In . SVG Version: 6.00 Build 0)  -->
<svg version="1.1" id="Layer_1" xmlns="http://www.w3.org/2000/svg" xmlns:xlink="http://www.w3.org/1999/xlink" x="0px" y="0px"
	 viewBox="0 0 512 512" enable-background="new 0 0 512 512" xml:space="preserve">
<path d="M93.1,139.6l46.5-46.5L93.1,46.5L139.6,0H0v139.6l46.5-46.5L93.1,139.6z M93.1,372.4l-46.5,46.5L0,372.4V512h139.6
	l-46.5-46.5l46.5-46.5L93.1,372.4z M372.4,139.6H139.6v232.7h232.7V139.6z M325.8,325.8H186.2V186.2h139.6V325.8z M372.4,0
	l46.5,46.5l-46.5,46.5l46.5,46.5l46.5-46.5l46.5,46.5V0H372.4z M418.9,372.4l-46.5,46.5l46.5,46.5L372.4,512H512V372.4l-46.5,46.5
	L418.9,372.4z"/>
</svg>
