<?xml version="1.0" encoding="utf-8"?>
<!-- Generator: Adobe Illustrator 18.1.1, SVG Export Plug-In . SVG Version: 6.00 Build 0)  -->
<svg version="1.1" id="Layer_1" xmlns="http://www.w3.org/2000/svg" xmlns:xlink="http://www.w3.org/1999/xlink" x="0px" y="0px"
	 viewBox="0 0 512 512" enable-background="new 0 0 512 512" xml:space="preserve">
<path d="M511.6,197.5c-34.9-7.1-69.4-20.3-105-20c-20.4,0.1-40.9,3.7-61.1,7c-22.7,3.7-44.6,12.2-67.3,15.3
	c-7.3,1-14.7,1.4-22.1,1.4c-7.4,0-14.8-0.4-22.1-1.4c-22.7-3.2-44.6-11.6-67.3-15.3c-20.3-3.4-40.8-6.9-61.2-7
	c-35.6-0.2-70.1,12.9-105,20c0,12-2.1,27.5,3.1,36c5.4,8.8,14.5,16.7,16.8,28.6c5.6,28.1,13.5,55.6,23.7,82
	c4.9,12.8,14.2,21.8,24.6,27.9c25,14.8,54.6,17,82.1,12.4c39.1-6.6,60.3-41.2,76.5-80.8c6.1-16.1,6.7-34.6,14.7-49.3
	c3-5.5,8.4-6.1,14-5.8c5.6-0.3,11.1,0.3,14,5.8c8,14.7,8.6,33.3,14.7,49.3c16.2,39.6,37.4,74.1,76.5,80.8
	c27.4,4.7,57.1,2.5,82.1-12.4c10.4-6.1,19.7-15.1,24.6-27.9c10.1-26.4,18.1-53.9,23.7-82c2.3-11.9,11.5-19.8,16.8-28.6
	C513.7,225,511.6,209.6,511.6,197.5z M204.3,310.2c-19.4,47.5-54.3,57.4-80.1,57.4c-10,0-20.5-1.5-31.2-4.5
	c-19.1-5.3-33.3-21.3-40-44.8c-9-31.4-12.7-56.7-11.7-79.4c1.4-29.4,27.9-35.4,57.3-39.3c13.7-1.8,24.7-2.7,34.6-2.8h0.1
	c13.3,0,23.8,1.2,33.6,3.6c28.5,7.1,44.7,16.9,50.9,30.9C224.7,247,220.8,269.9,204.3,310.2z M459.1,318.3
	c-6.7,23.5-21,39.4-40,44.8c-10.7,3-21.2,4.5-31.3,4.5c-25.8,0-60.7-10-80.1-57.4c-16.5-40.3-20.4-63.1-13.4-78.8
	c6.2-14,22.4-23.8,50.9-30.9c9.7-2.4,20.3-3.6,33.6-3.6h0.1c9.9,0.1,20.9,1,34.6,2.8c29.4,3.9,55.9,9.8,57.3,39.3
	C471.8,261.6,468.1,286.8,459.1,318.3z"/>
</svg>
