<?xml version="1.0" encoding="utf-8"?>
<!-- Generator: Adobe Illustrator 18.1.1, SVG Export Plug-In . SVG Version: 6.00 Build 0)  -->
<svg version="1.1" id="Layer_1" xmlns="http://www.w3.org/2000/svg" xmlns:xlink="http://www.w3.org/1999/xlink" x="0px" y="0px"
	 viewBox="0 0 512 512" enable-background="new 0 0 512 512" xml:space="preserve">
<path d="M384,29.8c-64,0-96.2,27.6-128,64c-31.8-36.4-64-64-128-64S0,72.5,0,200.5c0,64,64,192,256,298.7
	c192-106.7,256-234.7,256-298.7C512,72.5,448,29.8,384,29.8z M256,450C81.7,346.6,42.7,235.7,42.7,200.5c0-58.4,14.8-128,85.3-128
	c44.8,0,66.6,15.9,95.9,49.4l32.1,35.9l32.1-35.9c29.3-33.5,51.1-49.4,95.9-49.4c70.5,0,85.3,69.6,85.3,128
	C469.3,235.7,430.3,346.6,256,450z"/>
</svg>
