<?xml version="1.0" encoding="utf-8"?>
<!-- Generator: Adobe Illustrator 18.1.1, SVG Export Plug-In . SVG Version: 6.00 Build 0)  -->
<svg version="1.1" id="Layer_1" xmlns="http://www.w3.org/2000/svg" xmlns:xlink="http://www.w3.org/1999/xlink" x="0px" y="0px"
	 viewBox="0 0 512 512" enable-background="new 0 0 512 512" xml:space="preserve">
<path d="M426.7,64H384v85.3h42.7V64z M128,64H85.3v85.3H128V64z M469.3,106.7H448v64h-85.3v-64H149.3v64H64v-64H42.7
	C19.1,106.7,0,125.8,0,149.3v256C0,428.9,19.1,448,42.7,448h426.7c23.5,0,42.7-19.1,42.7-42.7v-256
	C512,125.8,492.9,106.7,469.3,106.7z M192,384H42.7V234.7H192V384z M341.3,362.7H234.7V320h106.7V362.7z M469.3,298.7H234.7V256
	h234.7V298.7z"/>
</svg>
