<?xml version="1.0" encoding="utf-8"?>
<!-- Generator: Adobe Illustrator 18.1.1, SVG Export Plug-In . SVG Version: 6.00 Build 0)  -->
<svg version="1.1" id="Layer_1" xmlns="http://www.w3.org/2000/svg" xmlns:xlink="http://www.w3.org/1999/xlink" x="0px" y="0px"
	 viewBox="0 0 512 512" enable-background="new 0 0 512 512" xml:space="preserve">
<path d="M373.3,0c-76.6,0-138.7,62.1-138.7,138.7c0,16,2.8,31.2,7.8,45.5L21.3,405.3L0,512h128v-42.7l21.3-21.3l21.3,21.3l42.7-42.7
	L192,405.3l42.7-42.7L256,384l42.7-42.7L277.3,320l50.5-50.5c14.3,5,29.6,7.8,45.5,7.8c76.6,0,138.7-62.1,138.7-138.7
	S449.9,0,373.3,0z M405.3,149.3c-23.5,0-42.7-19.1-42.7-42.7S381.8,64,405.3,64c23.5,0,42.7,19.1,42.7,42.7S428.9,149.3,405.3,149.3
	z"/>
</svg>
