<?xml version="1.0" encoding="utf-8"?>
<!-- Generator: Adobe Illustrator 18.1.1, SVG Export Plug-In . SVG Version: 6.00 Build 0)  -->
<svg version="1.1" id="Layer_1" xmlns="http://www.w3.org/2000/svg" xmlns:xlink="http://www.w3.org/1999/xlink" x="0px" y="0px"
	 viewBox="0 0 512 512" enable-background="new 0 0 512 512" xml:space="preserve">
<path d="M240.3,396.8L240.3,396.8c3.3,5.1,9.1,8.5,15.7,8.5c6.6,0,12.4-3.4,15.8-8.5l110.2-170.2c14.8-22.9,23.4-48.1,23.4-77.3
	C405.3,64.9,339,0,256,0c-83,0-149.3,64.9-149.3,149.3c0,29.2,8.6,54.4,23.4,77.3L240.3,396.8z M256,64c47.1,0,85.3,38.2,85.3,85.3
	s-38.2,85.3-85.3,85.3s-85.3-38.2-85.3-85.3S208.9,64,256,64z M365.4,323.5L256,469.3L146.6,323.5c-37.4,19.6-61.3,48.9-61.3,81.8
	C85.3,464.2,161.7,512,256,512s170.7-47.8,170.7-106.7C426.7,372.4,402.8,343.1,365.4,323.5z"/>
</svg>
