<?xml version="1.0" encoding="utf-8"?>
<!-- Generator: Adobe Illustrator 18.1.1, SVG Export Plug-In . SVG Version: 6.00 Build 0)  -->
<svg version="1.1" id="Layer_1" xmlns="http://www.w3.org/2000/svg" xmlns:xlink="http://www.w3.org/1999/xlink" x="0px" y="0px"
	 viewBox="0 0 512 512" enable-background="new 0 0 512 512" xml:space="preserve">
<path d="M264,0C157.3,0,72,85.3,72,192c0,36.9,11,65.4,30.1,94.3l141.7,215v0c4.3,6.5,11.7,10.7,20.2,10.7c8.5,0,16-4.3,20.2-10.7
	l141.7-215C445,257.4,456,228.9,456,192C456,85.3,370.7,0,264,0z M264,341.2c-82.5,0-149.3-66.9-149.3-149.5
	c0-82.5,66.9-149.5,149.3-149.5c82.5,0,149.3,66.9,149.3,149.5C413.3,274.3,346.5,341.2,264,341.2z M328,170.7h-42.7v-64
	c0-11.8-9.5-21.3-21.3-21.3c-11.8,0-21.3,9.5-21.3,21.3V192c0,11.8,9.6,21.3,21.3,21.3h64c11.8,0,21.3-9.5,21.3-21.3
	C349.3,180.2,339.8,170.7,328,170.7z"/>
</svg>
