<?xml version="1.0" encoding="utf-8"?>
<!-- Generator: Adobe Illustrator 18.1.1, SVG Export Plug-In . SVG Version: 6.00 Build 0)  -->
<svg version="1.1" id="Layer_1" xmlns="http://www.w3.org/2000/svg" xmlns:xlink="http://www.w3.org/1999/xlink" x="0px" y="0px"
	 viewBox="0 0 512 512" enable-background="new 0 0 512 512" xml:space="preserve">
<path d="M280.9,326V196.9h-78.8V326c-23.4,13.7-39.4,38.8-39.4,67.8c0,43.5,35.3,78.8,78.8,78.8s78.8-35.3,78.8-78.8
	C320.3,364.8,304.3,339.7,280.9,326z M320.3,306V78.8C320.3,35.3,285,0,241.5,0s-78.8,35.3-78.8,78.8V306
	c-24.1,21.6-39.4,52.9-39.4,87.9c0,65.2,52.9,118.2,118.2,118.2c65.2,0,118.2-52.9,118.2-118.2C359.7,358.9,344.4,327.6,320.3,306z
	 M241.5,492.3c-54.4,0-98.5-44.1-98.5-98.5c0-32.2,15.5-60.7,39.4-78.6V78.8c0-32.6,26.4-59.1,59.1-59.1c32.6,0,59.1,26.4,59.1,59.1
	v236.4c23.9,18,39.4,46.5,39.4,78.6C340,448.2,295.9,492.3,241.5,492.3z"/>
</svg>
