<?xml version="1.0" encoding="utf-8"?>
<!-- Generator: Adobe Illustrator 18.1.1, SVG Export Plug-In . SVG Version: 6.00 Build 0)  -->
<svg version="1.1" id="Layer_1" xmlns="http://www.w3.org/2000/svg" xmlns:xlink="http://www.w3.org/1999/xlink" x="0px" y="0px"
	 viewBox="0 0 512 512" enable-background="new 0 0 512 512" xml:space="preserve">
<path d="M418.9,232.7h-23.3V69.8c0-38.6-31.3-69.8-69.8-69.8H186.2c-38.6,0-69.8,31.3-69.8,69.8v162.9H93.1
	c-12.8,0-23.3,10.4-23.3,23.3v232.7c0,12.9,10.4,23.3,23.3,23.3h325.8c12.8,0,23.3-10.4,23.3-23.3V256
	C442.2,243.1,431.8,232.7,418.9,232.7z M349.1,232.7H162.9V69.8c0-12.9,10.4-23.3,23.3-23.3h139.6c12.8,0,23.3,10.4,23.3,23.3V232.7
	z"/>
</svg>
