<?xml version="1.0" encoding="utf-8"?>
<!-- Generator: Adobe Illustrator 18.1.1, SVG Export Plug-In . SVG Version: 6.00 Build 0)  -->
<svg version="1.1" id="Layer_1" xmlns="http://www.w3.org/2000/svg" xmlns:xlink="http://www.w3.org/1999/xlink" x="0px" y="0px"
	 viewBox="0 0 512 512" enable-background="new 0 0 512 512" xml:space="preserve">
<path d="M418.4,232.7h-23.3v-93.1C395.1,62.5,332.6,0,255.5,0S115.9,62.5,115.9,139.6v93.1H92.6c-12.8,0-23.3,10.4-23.3,23.3v232.7
	c0,12.9,10.4,23.3,23.3,23.3h325.8c12.8,0,23.3-10.4,23.3-23.3V256C441.7,243.1,431.2,232.7,418.4,232.7z M348.6,232.7H162.4v-93.1
	c0-51.4,41.7-93.1,93.1-93.1s93.1,41.7,93.1,93.1V232.7z"/>
</svg>
