<?xml version="1.0" encoding="utf-8"?>
<!-- Generator: Adobe Illustrator 18.1.1, SVG Export Plug-In . SVG Version: 6.00 Build 0)  -->
<svg version="1.1" id="Layer_1" xmlns="http://www.w3.org/2000/svg" xmlns:xlink="http://www.w3.org/1999/xlink" x="0px" y="0px"
	 viewBox="0 0 512 512" enable-background="new 0 0 512 512" xml:space="preserve">
<path d="M165,85.3v325.3c-9.7-3.3-20.5-5.3-32-5.3c-41.2,0-74.7,23.9-74.7,53.3c0,29.5,33.4,53.3,74.7,53.3
	c41.2,0,74.7-23.9,74.7-53.3c0-3.6-0.5-7.2-1.5-10.7h1.5V179.8L421,118.9v227.8c-9.7-3.3-20.5-5.3-32-5.3
	c-41.2,0-74.7,23.9-74.7,53.3c0,29.5,33.4,53.3,74.7,53.3c41.2,0,74.7-23.9,74.7-53.3c0-3.4-0.5-6.7-1.4-10l1.4-0.7V0L165,85.3z"/>
</svg>
