<?xml version="1.0" encoding="utf-8"?>
<!-- Generator: Adobe Illustrator 18.1.1, SVG Export Plug-In . SVG Version: 6.00 Build 0)  -->
<svg version="1.1" id="Layer_1" xmlns="http://www.w3.org/2000/svg" xmlns:xlink="http://www.w3.org/1999/xlink" x="0px" y="0px"
	 viewBox="0 0 512 512" enable-background="new 0 0 512 512" xml:space="preserve">
<path d="M256,377.8c21-0.4,19.3-9.4,41.8-9.1c34.5,0.6,43.1-13.6,43.5-36.1c0.5-26.5-31.6-43.8-34.9-51.6
	c-3.3-7.8-25.1-120.7-25.1-120.7s-3.1-8.6-25.3-8.6c-22.2,0-25.3,8.6-25.3,8.6S208.8,273.2,205.6,281c-3.3,7.8-35.4,25.1-34.9,51.6
	c0.4,22.5,9,36.7,43.5,36.1C236.7,368.3,235,377.4,256,377.8z M511.6,20c-35-7-69.4-20-105-19.8c-20.4,0.1-40.9,3.6-61.1,6.9
	c-22.7,3.7-44.7,12-67.3,15.1c-7.3,1-14.7,1.4-22.1,1.4c-7.4,0-14.8-0.4-22.1-1.4c-22.7-3.1-44.6-11.4-67.3-15.1
	c-20.2-3.3-40.8-6.8-61.1-6.9C69.8,0,35.3,13,0.4,20c0,11.9-2.1,27.1,3.1,35.5C8.9,64.1,18,72,20.4,83.7
	c5.6,27.7,13.5,54.9,23.7,80.9c4.9,12.6,14.2,21.5,24.6,27.6c25,14.6,54.7,16.8,82.1,12.2c39.1-6.6,60.3-40.7,76.5-79.7
	c6-15.9,6.7-34.2,14.7-48.6c3-5.4,8.5-6,14-5.7c5.6-0.3,11.1,0.2,14,5.7c8,14.5,8.6,32.8,14.7,48.6c16.2,39,37.4,73.2,76.5,79.7
	c27.5,4.6,57.1,2.5,82.1-12.2c10.4-6.1,19.7-14.9,24.6-27.6c10.1-26,18.1-53.2,23.6-80.9c2.3-11.7,11.4-19.6,16.8-28.2
	C513.7,47.2,511.6,31.9,511.6,20z M204.3,131.2c-19.4,46.8-54.3,56.6-80.1,56.6c-10.1,0-20.6-1.5-31.3-4.5
	c-19.1-5.3-33.3-21-40-44.2c-9-31-12.7-55.9-11.6-78.3c1.4-29,27.9-34.9,57.3-38.7c13.7-1.8,24.7-2.7,34.6-2.7h0.1
	c13.3,0,23.8,1.2,33.6,3.6c28.5,7,44.7,16.7,50.9,30.5C224.7,68.9,220.8,91.4,204.3,131.2z M459.1,139.1
	c-6.7,23.2-21,38.9-40.1,44.2c-10.7,3-21.2,4.5-31.3,4.5c-25.8,0-60.7-9.8-80.1-56.6c-16.5-39.8-20.4-62.3-13.4-77.7
	c6.2-13.8,22.4-23.5,50.9-30.5c9.7-2.4,20.3-3.6,33.6-3.6h0.1c9.9,0.1,20.9,0.9,34.6,2.7c29.4,3.9,55.9,9.7,57.3,38.7
	C471.8,83.2,468.1,108.1,459.1,139.1z M375.7,436.1c-68.4-38-110.1-12-119.8-4.8c-9.7-7.2-51.3-33.3-119.8,4.8
	c-68,37.9-102.1-27.4-106.1-37c6.3,15.4,80.4,178,180.5,83.5c15.9-15,31.6-19.1,45.4-18.9c13.8-0.1,29.5,4,45.4,18.9
	c100.1,94.5,174.2-68.2,180.5-83.5C477.9,408.8,443.8,474,375.7,436.1z"/>
</svg>
