<?xml version="1.0" encoding="utf-8"?>
<!-- Generator: Adobe Illustrator 18.1.1, SVG Export Plug-In . SVG Version: 6.00 Build 0)  -->
<svg version="1.1" id="Layer_1" xmlns="http://www.w3.org/2000/svg" xmlns:xlink="http://www.w3.org/1999/xlink" x="0px" y="0px"
	 viewBox="0 0 512 512" enable-background="new 0 0 512 512" xml:space="preserve">
<path d="M256,247.2c-57.1,0-106.1,34-128.2,82.9l41.9,41.9c7.5-40.9,43.2-72,86.3-72c43.1,0,78.8,31.1,86.3,72l41.9-41.9
	C362.1,281.2,313.1,247.2,256,247.2z M256,71.3C150.6,71.3,57.5,123,0,202.2l37.6,37.6C85.1,170,165.2,124.1,256,124.1
	c90.8,0,170.9,45.9,218.4,115.8l37.6-37.6C454.5,123,361.4,71.3,256,71.3z M256,159.3c-81.1,0-152.3,42.4-192.8,106.1l38.4,38.4
	C131.4,249.1,189.3,212,256,212s124.6,37.1,154.5,91.7l38.4-38.4C408.3,201.7,337.1,159.3,256,159.3z M256,335.1
	c-29.1,0-52.8,23.6-52.8,52.8c0,29.1,23.6,52.8,52.8,52.8c29.1,0,52.8-23.6,52.8-52.8C308.8,358.8,285.1,335.1,256,335.1z"/>
</svg>
