<?xml version="1.0" encoding="utf-8"?>
<!-- Generator: Adobe Illustrator 18.1.1, SVG Export Plug-In . SVG Version: 6.00 Build 0)  -->
<svg version="1.1" id="Layer_1" xmlns="http://www.w3.org/2000/svg" xmlns:xlink="http://www.w3.org/1999/xlink" x="0px" y="0px"
	 viewBox="0 0 512 512" enable-background="new 0 0 512 512" xml:space="preserve">
<path d="M469.3,95.3H448c-23.5,0-42.7,19.1-42.7,42.7v52l-152.7-89.8c-21.6-12.7-39.2,0.1-39.2,28.5v73.9L39.2,100.1
	C17.6,87.4,0,100.2,0,128.6v274.8c0,28.3,17.6,41.2,39.2,28.5l174.2-102.5v74c0,28.3,17.6,41.2,39.2,28.5l152.7-89.8V394
	c0,23.5,19.1,42.7,42.7,42.7h21.3c23.5,0,42.7-19.1,42.7-42.7V138C512,114.4,492.9,95.3,469.3,95.3z"/>
</svg>
