<?xml version="1.0" encoding="utf-8"?>
<!-- Generator: Adobe Illustrator 18.1.1, SVG Export Plug-In . SVG Version: 6.00 Build 0)  -->
<svg version="1.1" id="Layer_1" xmlns="http://www.w3.org/2000/svg" xmlns:xlink="http://www.w3.org/1999/xlink" x="0px" y="0px"
	 viewBox="0 0 512 512" enable-background="new 0 0 512 512" xml:space="preserve">
<path d="M186.2,232.7h139.6v-46.5H186.2V232.7z M186.2,325.8h139.6v-46.5H186.2V325.8z M186.2,418.9h139.6v-46.5H186.2V418.9z
	 M186.2,512h139.6v-46.5H186.2V512z M372.4,418.9H512v-46.5H372.4V418.9z M372.4,512H512v-46.5H372.4V512z M372.4,232.7H512v-46.5
	H372.4V232.7z M372.4,93.1v46.5H512V93.1H372.4z M372.4,325.8H512v-46.5H372.4V325.8z M0,232.7h139.6v-46.5H0V232.7z M0,325.8h139.6
	v-46.5H0V325.8z M0,418.9h139.6v-46.5H0V418.9z M0,46.5h139.6V0H0V46.5z M0,139.6h139.6V93.1H0V139.6z M0,512h139.6v-46.5H0V512z"/>
</svg>
