<?xml version="1.0" encoding="utf-8"?>
<!-- Generator: Adobe Illustrator 18.1.1, SVG Export Plug-In . SVG Version: 6.00 Build 0)  -->
<svg version="1.1" id="Layer_1" xmlns="http://www.w3.org/2000/svg" xmlns:xlink="http://www.w3.org/1999/xlink" x="0px" y="0px"
	 viewBox="0 0 512 512" enable-background="new 0 0 512 512" xml:space="preserve">
<path d="M387,128c-11.8,0-21.3,9.5-21.3,21.3v213.3c0,58.9-47.7,106.7-106.7,106.7s-106.7-47.8-106.7-106.7v-256
	c0-35.3,28.6-64,64-64s64,28.7,64,64V320c0,11.8-9.6,21.3-21.3,21.3s-21.3-9.5-21.3-21.3V149.3c0-11.8-9.6-21.3-21.3-21.3
	c-11.8,0-21.3,9.5-21.3,21.3V320c0,35.4,28.6,64,64,64s64-28.6,64-64V106.7C323,47.8,275.2,0,216.3,0S109.7,47.8,109.7,106.7v256
	c0,82.5,66.9,149.3,149.3,149.3s149.3-66.9,149.3-149.3V149.3C408.3,137.5,398.8,128,387,128z"/>
</svg>
