<?xml version="1.0" encoding="utf-8"?>
<!-- Generator: Adobe Illustrator 18.1.1, SVG Export Plug-In . SVG Version: 6.00 Build 0)  -->
<svg version="1.1" id="Layer_1" xmlns="http://www.w3.org/2000/svg" xmlns:xlink="http://www.w3.org/1999/xlink" x="0px" y="0px"
	 viewBox="0 0 512 512" enable-background="new 0 0 512 512" xml:space="preserve">
<path d="M192.9,447.7c42.6-21.3,53.3-53.3,53.3-106.6v-42.6h106.6v-64H246.2v-85.3c0-62.5,32.1-95.9,85.3-95.9
	c25.8,0,40.8,18.6,64,32V10.7C370.6,1.1,361.7,0,331.5,0c-44.8,0-88.5,13.6-116.7,40.8c-28.1,27.1-32.5,66.1-32.5,108.5v85.3H97v64
	h85.3v64c0,42.6-42.6,85.3-85.3,85.3l0.3,64.3H438l0.1-64.3H192.9z"/>
</svg>
