<?xml version="1.0" encoding="utf-8"?>
<!-- Generator: Adobe Illustrator 18.1.1, SVG Export Plug-In . SVG Version: 6.00 Build 0)  -->
<svg version="1.1" id="Layer_1" xmlns="http://www.w3.org/2000/svg" xmlns:xlink="http://www.w3.org/1999/xlink" x="0px" y="0px"
	 viewBox="0 0 512 512" enable-background="new 0 0 512 512" xml:space="preserve">
<path d="M334.5,53.1v64c58.3,29,98.5,89,98.5,158.6c0,97.9-79.3,177.2-177.2,177.2S78.5,373.6,78.5,275.7
	c0-69.6,40.2-129.6,98.5-158.6v-64C85.2,85.6,19.4,172.8,19.4,275.7C19.4,406.2,125.2,512,255.7,512S492,406.2,492,275.7
	C492,172.8,426.2,85.6,334.5,53.1z M255.7,196.9c21.7,0,39.4-17.7,39.4-39.4V39.4c0-21.7-17.6-39.4-39.4-39.4s-39.4,17.7-39.4,39.4
	v118.2C216.3,179.3,234,196.9,255.7,196.9z"/>
</svg>
