<?xml version="1.0" encoding="utf-8"?>
<!-- Generator: Adobe Illustrator 18.1.1, SVG Export Plug-In . SVG Version: 6.00 Build 0)  -->
<svg version="1.1" id="Layer_1" xmlns="http://www.w3.org/2000/svg" xmlns:xlink="http://www.w3.org/1999/xlink" x="0px" y="0px"
	 viewBox="0 0 512 512" enable-background="new 0 0 512 512" xml:space="preserve">
<path d="M472.8,90.1L298.6,192.5v-73.9c0-28.4-17.6-41.2-39.2-28.5l-152.8,89.8v-52c0-23.6-19.1-42.7-42.7-42.7H42.7
	C19.1,85.3,0,104.4,0,128V384c0,23.5,19.1,42.7,42.7,42.7H64c23.5,0,42.7-19.1,42.7-42.7v-51.9l152.8,89.8
	c21.5,12.7,39.2-0.2,39.2-28.5v-74l174.2,102.5c21.5,12.7,39.2-0.2,39.2-28.5V118.6C512,90.2,494.4,77.4,472.8,90.1z"/>
</svg>
