<?xml version="1.0" encoding="utf-8"?>
<!-- Generator: Adobe Illustrator 18.1.1, SVG Export Plug-In . SVG Version: 6.00 Build 0)  -->
<svg version="1.1" id="Layer_1" xmlns="http://www.w3.org/2000/svg" xmlns:xlink="http://www.w3.org/1999/xlink" x="0px" y="0px"
	 viewBox="0 0 512 512" enable-background="new 0 0 512 512" xml:space="preserve">
<path d="M384,362.7H128V384h256V362.7z M106.7,21.3h192V128h106.7v42.7h21.3v-64L320,0H85.3v170.7h21.3V21.3z M448,192H64
	c-42.7,0-64,21.3-64,64v128h85.3v128h341.3V384H512V256C512,213.3,490.7,192,448,192z M85.3,277.3H42.7v-42.7h42.7V277.3z
	 M405.3,490.7H106.7V341.3h298.7V490.7z M384,405.3H128v21.3h256V405.3z M384,448H128v21.3h256V448z"/>
</svg>
