<?xml version="1.0" encoding="utf-8"?>
<!-- Generator: Adobe Illustrator 18.1.1, SVG Export Plug-In . SVG Version: 6.00 Build 0)  -->
<svg version="1.1" id="Layer_1" xmlns="http://www.w3.org/2000/svg" xmlns:xlink="http://www.w3.org/1999/xlink" x="0px" y="0px"
	 viewBox="0 0 512 512" enable-background="new 0 0 512 512" xml:space="preserve">
<path d="M139.6,46.5h93.1V0h-93.1V46.5z M418.9,0v46.5h46.5v46.5H512V0H418.9z M46.5,46.5h46.5V0H0v93.1h46.5V46.5z M279.3,512h93.1
	v-46.5h-93.1V512z M46.5,139.6H0v93.1h46.5V139.6z M465.5,232.7H512v-93.1h-46.5V232.7z M465.5,372.4H512v-93.1h-46.5V372.4z
	 M465.5,465.5h-46.5V512H512v-93.1h-46.5V465.5z M279.3,46.5h93.1V0h-93.1V46.5z M0,512h232.7V279.3H0V512z"/>
</svg>
