<?xml version="1.0" encoding="utf-8"?>
<!-- Generator: Adobe Illustrator 18.1.1, SVG Export Plug-In . SVG Version: 6.00 Build 0)  -->
<svg version="1.1" id="Layer_1" xmlns="http://www.w3.org/2000/svg" xmlns:xlink="http://www.w3.org/1999/xlink" x="0px" y="0px"
	 viewBox="0 0 512 512" enable-background="new 0 0 512 512" xml:space="preserve">
<path d="M139.6,46.5h93.1V0h-93.1V46.5z M46.5,418.9H0V512h93.1v-46.5H46.5V418.9z M139.6,512h93.1v-46.5h-93.1V512z M46.5,279.3H0
	v93.1h46.5V279.3z M46.5,139.6H0v93.1h46.5V139.6z M0,93.1h46.5V46.5h46.5V0H0V93.1z M465.5,232.7H512v-93.1h-46.5V232.7z
	 M279.3,512h93.1v-46.5h-93.1V512z M418.9,0v46.5h46.5v46.5H512V0H418.9z M465.5,372.4H512v-93.1h-46.5V372.4z M465.5,465.5h-46.5
	V512H512v-93.1h-46.5V465.5z M279.3,46.5h93.1V0h-93.1V46.5z"/>
</svg>
