<?xml version="1.0" encoding="utf-8"?>
<!-- Generator: Adobe Illustrator 18.1.1, SVG Export Plug-In . SVG Version: 6.00 Build 0)  -->
<svg version="1.1" id="Layer_1" xmlns="http://www.w3.org/2000/svg" xmlns:xlink="http://www.w3.org/1999/xlink" x="0px" y="0px"
	 viewBox="0 0 512 512" enable-background="new 0 0 512 512" xml:space="preserve">
<path d="M256,0C179.9,0,111.7,33.4,64.9,86.2L0,21.3V192h170.7l-60.2-60.2C145.6,90.5,197.5,64,256,64c106,0,192,85.9,192,192
	c0,106.1-86,192-192,192c-53,0-101-21.5-135.8-56.2L75,437c46.4,46.3,110.4,75,181,75c141.4,0,256-114.6,256-256S397.4,0,256,0z
	 M234.7,106.7v170.7h128v-42.7h-85.3v-128H234.7z"/>
</svg>
