<?xml version="1.0" encoding="utf-8"?>
<!-- Generator: Adobe Illustrator 18.1.1, SVG Export Plug-In . SVG Version: 6.00 Build 0)  -->
<svg version="1.1" id="Layer_1" xmlns="http://www.w3.org/2000/svg" xmlns:xlink="http://www.w3.org/1999/xlink" x="0px" y="0px"
	 viewBox="0 0 512 512" enable-background="new 0 0 512 512" xml:space="preserve">
<path d="M465.5,0H186.2c-25.7,0-46.5,20.9-46.5,46.5v279.3c0,25.7,20.9,46.5,46.5,46.5h279.3c25.7,0,46.5-20.9,46.5-46.5V46.5
	C512,20.9,491.1,0,465.5,0z M442.2,209.5H209.5v-46.5h232.7V209.5z M93.1,325.8V139.6H46.5C20.9,139.6,0,160.5,0,186.2v279.3
	C0,491.1,20.9,512,46.5,512h279.3c25.7,0,46.5-20.9,46.5-46.5v-46.5H186.2C134.8,418.9,93.1,377.2,93.1,325.8z"/>
</svg>
