<?xml version="1.0" encoding="utf-8"?>
<!-- Generator: Adobe Illustrator 18.1.1, SVG Export Plug-In . SVG Version: 6.00 Build 0)  -->
<svg version="1.1" id="Layer_1" xmlns="http://www.w3.org/2000/svg" xmlns:xlink="http://www.w3.org/1999/xlink" x="0px" y="0px"
	 viewBox="0 0 512 512" enable-background="new 0 0 512 512" xml:space="preserve">
<path d="M447.1,86.2C400.3,33.4,332.2,0,256,0C114.6,0,0,114.6,0,256h64c0-106.1,85.9-192,192-192c58.5,0,110.4,26.5,145.5,67.8
	L341.3,192H512V21.3L447.1,86.2z M256,448c-58.5,0-110.4-26.5-145.5-67.8l60.2-60.2H0v170.7l64.9-64.9
	c46.8,52.8,115,86.2,191.1,86.2c141.4,0,256-114.6,256-256h-64C448,362.1,362.1,448,256,448z M298.7,256c0-23.6-19.1-42.7-42.7-42.7
	s-42.7,19.1-42.7,42.7s19.1,42.7,42.7,42.7S298.7,279.6,298.7,256z"/>
</svg>
