<?xml version="1.0" encoding="utf-8"?>
<!-- Generator: Adobe Illustrator 18.1.1, SVG Export Plug-In . SVG Version: 6.00 Build 0)  -->
<svg version="1.1" id="Layer_1" xmlns="http://www.w3.org/2000/svg" xmlns:xlink="http://www.w3.org/1999/xlink" x="0px" y="0px"
	 viewBox="0 0 512 512" enable-background="new 0 0 512 512" xml:space="preserve">
<path d="M247.6,393.8c-37.4,0-71.1-15.2-95.9-39.4h95.9l-59.1-59.1H31v157.5L90.1,512V403.6c39.5,42.2,95.2,69,157.5,69
	c113,0,205.7-86.5,215.6-196.9h-79.8C373.8,342.4,317,393.8,247.6,393.8z M405.2,0v108.4c-39.5-42.2-95.2-69-157.5-69
	C134.6,39.4,42,125.9,32,236.3h79.8c9.6-66.7,66.5-118.2,135.9-118.2c37.4,0,71.1,15.2,95.9,39.4h-95.9l59.1,59.1h157.5V59.1
	L405.2,0z"/>
</svg>
