<?xml version="1.0" encoding="utf-8"?>
<!-- Generator: Adobe Illustrator 18.1.1, SVG Export Plug-In . SVG Version: 6.00 Build 0)  -->
<svg version="1.1" id="Layer_1" xmlns="http://www.w3.org/2000/svg" xmlns:xlink="http://www.w3.org/1999/xlink" x="0px" y="0px"
	 viewBox="0 0 512 512" enable-background="new 0 0 512 512" xml:space="preserve">
<path d="M110.5,131.8C145.6,90.5,197.5,64,256,64c106.1,0,192,85.9,192,192h64C512,114.6,397.4,0,256,0
	C179.8,0,111.7,33.4,64.9,86.2L0,21.3V192h170.7L110.5,131.8z M401.5,380.2c-35.2,41.3-87,67.8-145.5,67.8
	c-106.1,0-192-85.9-192-192H0c0,141.4,114.6,256,256,256c76.2,0,144.3-33.4,191.1-86.2l64.9,64.9V320H341.3L401.5,380.2z"/>
</svg>
