<?xml version="1.0" encoding="utf-8"?>
<!-- Generator: Adobe Illustrator 18.1.1, SVG Export Plug-In . SVG Version: 6.00 Build 0)  -->
<svg version="1.1" id="Layer_1" xmlns="http://www.w3.org/2000/svg" xmlns:xlink="http://www.w3.org/1999/xlink" x="0px" y="0px"
	 viewBox="0 0 512 512" enable-background="new 0 0 512 512" xml:space="preserve">
<path d="M254.5,157.5h-95.9c24.8-24.2,58.5-39.4,95.9-39.4c69.4,0,126.2,51.4,135.9,118.2h79.8c-10-110.4-102.6-196.9-215.6-196.9
	c-62.4,0-118.1,26.8-157.5,69V0L37.9,59.1v157.5h157.5L254.5,157.5z M313.6,295.4l-59.1,59.1h95.9c-24.8,24.2-58.5,39.4-95.9,39.4
	c-69.4,0-126.2-51.4-135.9-118.2H38.9c10,110.4,102.6,196.9,215.6,196.9c62.4,0,118.1-26.8,157.5-69V512l59.1-59.1V295.4H313.6z"/>
</svg>
