<?xml version="1.0" encoding="utf-8"?>
<!-- Generator: Adobe Illustrator 18.1.1, SVG Export Plug-In . SVG Version: 6.00 Build 0)  -->
<svg version="1.1" id="Layer_1" xmlns="http://www.w3.org/2000/svg" xmlns:xlink="http://www.w3.org/1999/xlink" x="0px" y="0px"
	 viewBox="0 0 512 512" enable-background="new 0 0 512 512" xml:space="preserve">
<path d="M325.8,0C223,0,139.6,83.4,139.6,186.2c0,33.5,9,64.8,24.4,92L0,442.2l23.3,46.5L69.8,512l164-164
	c27.1,15.5,58.5,24.4,92,24.4C428.6,372.4,512,289,512,186.2S428.6,0,325.8,0z M325.8,314.2c-70.7,0-128-57.3-128-128
	c0-70.7,57.3-128,128-128s128,57.3,128,128C453.8,256.9,396.5,314.2,325.8,314.2z"/>
</svg>
