<?xml version="1.0" encoding="utf-8"?>
<!-- Generator: Adobe Illustrator 18.1.1, SVG Export Plug-In . SVG Version: 6.00 Build 0)  -->
<svg version="1.1" id="Layer_1" xmlns="http://www.w3.org/2000/svg" xmlns:xlink="http://www.w3.org/1999/xlink" x="0px" y="0px"
	 viewBox="0 0 512 512" enable-background="new 0 0 512 512" xml:space="preserve">
<path d="M447.1,259.8l64.9-27.1l-19.8-83.2l-72.7,7.8c-7.3-12.4-15.9-23.7-25.4-33.8L421,58.1l-72.8-44.9l-45.4,56.5
	c-15.7-4.1-32-6.2-48.3-6.3L225.9,0l-82.7,22.2l9.7,70.2c-11.4,7.1-21.9,15.1-31.2,24L59,90.5l-44.9,72.8l54,43.7
	c-3.9,14.9-6.3,30.3-6.6,45.8L0,278.4l19.8,83.3l68.7-7.4c7.9,13.8,17.2,26.3,28,37.3L91.2,453l72.8,44.9l43.6-54.2
	c14.8,3.7,29.9,5.7,45.3,5.9l25.8,62.4l83.2-19.8l-7.5-70.8c12.9-7.8,24.7-16.8,34.9-27l63.8,26.3l44.9-72.9l-56.4-45.6
	C445,288.4,446.9,274.1,447.1,259.8z M256,374.4c-65.2,0-118-53-118-118.5c0-65.4,52.8-118.5,118-118.5s118,53,118,118.5
	C374,321.4,321.1,374.4,256,374.4z M256,216.4c-21.9,0-39.6,17.7-39.6,39.6c0,21.9,17.7,39.6,39.6,39.6s39.6-17.7,39.6-39.6
	C295.6,234.1,277.8,216.4,256,216.4z"/>
</svg>
