<?xml version="1.0" encoding="utf-8"?>
<!-- Generator: Adobe Illustrator 18.1.1, SVG Export Plug-In . SVG Version: 6.00 Build 0)  -->
<svg version="1.1" id="Layer_1" xmlns="http://www.w3.org/2000/svg" xmlns:xlink="http://www.w3.org/1999/xlink" x="0px" y="0px"
	 viewBox="0 0 512 512" enable-background="new 0 0 512 512" xml:space="preserve">
<path d="M341.3,0v85.3h-64c-70.7,0-128,57.3-128,128v85.3c0,35.4-28.6,64-64,64H0v64h85.3c70.7,0,128-57.3,128-128v-85.3
	c0-35.4,28.6-64,64-64h64v85.3L512,128v-21.3L341.3,0z M114,156.4l37.6-52.1c-19.4-11.8-42-19-66.3-19H0v64h85.3
	C95.7,149.3,105.3,152,114,156.4z M341.3,362.7h-64c-10.4,0-20-2.7-28.7-7.1L211,407.7c19.4,11.8,42,19,66.3,19h64V512L512,405.3
	V384L341.3,277.3L341.3,362.7L341.3,362.7z"/>
</svg>
