<?xml version="1.0" encoding="utf-8"?>
<!-- Generator: Adobe Illustrator 18.1.1, SVG Export Plug-In . SVG Version: 6.00 Build 0)  -->
<svg version="1.1" id="Layer_1" xmlns="http://www.w3.org/2000/svg" xmlns:xlink="http://www.w3.org/1999/xlink" x="0px" y="0px"
	 viewBox="0 0 512 512" enable-background="new 0 0 512 512" xml:space="preserve">
<path d="M256,0C114.6,0,0,85.9,0,192c0,75,57.5,139.8,141.1,171.4L85.3,512l160.5-128.4c3.4,0.1,6.7,0.4,10.2,0.4
	c141.4,0,256-85.9,256-192C512,85.9,397.4,0,256,0z M128,234.7c-23.5,0-42.7-19.1-42.7-42.7s19.1-42.7,42.7-42.7
	c23.5,0,42.7,19.1,42.7,42.7S151.5,234.7,128,234.7z M256,234.7c-23.5,0-42.7-19.1-42.7-42.7s19.1-42.7,42.7-42.7
	c23.5,0,42.7,19.1,42.7,42.7S279.5,234.7,256,234.7z M384,234.7c-23.5,0-42.7-19.1-42.7-42.7s19.1-42.7,42.7-42.7
	c23.5,0,42.7,19.1,42.7,42.7S407.5,234.7,384,234.7z"/>
</svg>
