<?xml version="1.0" encoding="utf-8"?>
<!-- Generator: Adobe Illustrator 18.1.1, SVG Export Plug-In . SVG Version: 6.00 Build 0)  -->
<svg version="1.1" id="Layer_1" xmlns="http://www.w3.org/2000/svg" xmlns:xlink="http://www.w3.org/1999/xlink" x="0px" y="0px"
	 viewBox="0 0 512 512" enable-background="new 0 0 512 512" xml:space="preserve">
<path d="M391,256c0-35.5-21.7-65.9-52.5-78.7l-16.4,39.4c15.4,6.4,26.2,21.6,26.2,39.4c0,17.7-10.8,32.9-26.2,39.4l16.4,39.4
	C369.3,321.9,391,291.5,391,256z M371.3,98.5l-16.4,39.4c46.3,19.3,78.8,64.9,78.8,118.1c0,53.3-32.5,98.8-78.8,118.1l16.4,39.4
	c61.7-25.7,105-86.5,105-157.5C476.3,185,433,124.2,371.3,98.5z M49.7,149.3v213.3H135L284.3,512V0L135,149.3H49.7z"/>
</svg>
