<?xml version="1.0" encoding="utf-8"?>
<!-- Generator: Adobe Illustrator 18.1.1, SVG Export Plug-In . SVG Version: 6.00 Build 0)  -->
<svg version="1.1" id="Layer_1" xmlns="http://www.w3.org/2000/svg" xmlns:xlink="http://www.w3.org/1999/xlink" x="0px" y="0px"
	 viewBox="0 0 512 512" enable-background="new 0 0 512 512" xml:space="preserve">
<path d="M469.3,362.7H42.7C19.1,362.7,0,381.8,0,405.3V448c0,23.5,19.1,42.7,42.7,42.7h426.7c23.5,0,42.7-19.1,42.7-42.7v-42.7
	C512,381.8,492.9,362.7,469.3,362.7z M85.3,448H42.7v-42.7h42.7V448z M384,448h-21.3v-42.7H384V448z M426.7,448h-21.3v-42.7h21.3
	V448z M469.3,448H448v-42.7h21.3V448z M469.3,192H42.7C19.1,192,0,211.1,0,234.7v42.7C0,300.9,19.1,320,42.7,320h426.7
	c23.5,0,42.7-19.1,42.7-42.7v-42.7C512,211.1,492.9,192,469.3,192z M85.3,277.3H42.7v-42.7h42.7V277.3z M384,277.3h-21.3v-42.7H384
	V277.3z M426.7,277.3h-21.3v-42.7h21.3V277.3z M469.3,277.3H448v-42.7h21.3V277.3z M469.3,21.3H42.7C19.1,21.3,0,40.5,0,64v42.7
	c0,23.5,19.1,42.7,42.7,42.7h426.7c23.5,0,42.7-19.1,42.7-42.7V64C512,40.5,492.9,21.3,469.3,21.3z M85.3,106.7H42.7V64h42.7V106.7z
	 M384,106.7h-21.3V64H384V106.7z M426.7,106.7h-21.3V64h21.3V106.7z M469.3,106.7H448V64h21.3V106.7z"/>
</svg>
