<?xml version="1.0" encoding="utf-8"?>
<!-- Generator: Adobe Illustrator 18.1.1, SVG Export Plug-In . SVG Version: 6.00 Build 0)  -->
<svg version="1.1" id="Layer_1" xmlns="http://www.w3.org/2000/svg" xmlns:xlink="http://www.w3.org/1999/xlink" x="0px" y="0px"
	 viewBox="0 0 512 512" enable-background="new 0 0 512 512" xml:space="preserve">
<path d="M387.1,64.2c-7.8-14.1-18.5-25.9-32-35.4c-13.6-9.5-29.4-16.6-47.5-21.5C289.4,2.4,270.2,0,249.8,0
	c-44.2,0-87.3,9.5-128.5,31.7v85.4c33.9-30.7,70-49.8,107.4-49.8c11.6,0,22.4,1.3,32.6,3.8c10.2,2.5,19.2,6.4,27.1,11.6
	c7.9,5.2,14.2,11.7,18.7,19.4s6.2,15.2,6.2,25.6c0,11.6-2.5,23.8-8.7,33.6c-6.2,9.7-13.8,19-23,27.7c-9.2,8.8-19,17.8-29.6,27.1
	c-10.8,9.3-20.8,18.9-30,28.8c-9.2,9.9-16.8,20.6-23,32.1s-9.2,24.2-9.2,38.3c0,9,0.9,18.2,2.6,27.4c1.8,9.2,1.2,14.1,3.5,19.8h85.4
	c-7.5-15.1-10.7-24.8-10.7-42.7c0-11.8,4.1-33,10.7-42.7c6.5-9.7,8.9-10.8,18.8-19.8c9.9-9,20.7-18,32.2-27.1
	c11.3-9,21.9-19.3,31.8-31c9.9-11.7,18.2-24.5,24.7-38.3c6.5-13.8,9.8-26.1,9.8-43.9C398.8,98.4,394.8,78.3,387.1,64.2z
	 M238.7,405.3c-29.5,0-53.4,23.9-53.4,53.4c0,29.5,23.9,53.4,53.4,53.4s53.4-23.9,53.4-53.4C292,429.2,268.1,405.3,238.7,405.3z"/>
</svg>
