<?xml version="1.0" encoding="utf-8"?>
<!-- Generator: Adobe Illustrator 18.1.1, SVG Export Plug-In . SVG Version: 6.00 Build 0)  -->
<svg version="1.1" id="Layer_1" xmlns="http://www.w3.org/2000/svg" xmlns:xlink="http://www.w3.org/1999/xlink" x="0px" y="0px"
	 viewBox="0 0 512 512" enable-background="new 0 0 512 512" xml:space="preserve">
<path d="M469.3,77H42.7C19.1,77,0,96.1,0,119.7v298.7C0,441.9,19.1,461,42.7,461h426.7c23.6,0,42.7-19.1,42.7-42.7V119.7
	C512,96.1,492.9,77,469.3,77z M384,354.3H128c-47.1,0-85.3-38.2-85.3-85.3s38.2-85.3,85.3-85.3s85.3,38.2,85.3,85.3
	c0,15.6-4.5,30.1-11.8,42.7h109c-7.3-12.6-11.8-27-11.8-42.7c0-47.1,38.2-85.3,85.3-85.3s85.3,38.2,85.3,85.3S431.1,354.3,384,354.3
	z"/>
</svg>
