<?xml version="1.0" encoding="utf-8"?>
<!-- Generator: Adobe Illustrator 18.1.1, SVG Export Plug-In . SVG Version: 6.00 Build 0)  -->
<svg version="1.1" id="Layer_1" xmlns="http://www.w3.org/2000/svg" xmlns:xlink="http://www.w3.org/1999/xlink" x="0px" y="0px"
	 viewBox="0 0 512 512" enable-background="new 0 0 512 512" xml:space="preserve">
<path d="M256,0C114.6,0,0,114.6,0,256s114.6,256,256,256c141.4,0,256-114.6,256-256S397.4,0,256,0z M256,469.3
	c-117.8,0-213.3-95.5-213.3-213.3c0-117.8,95.5-213.3,213.3-213.3c117.8,0,213.3,95.5,213.3,213.3
	C469.3,373.8,373.8,469.3,256,469.3z M234.7,213.3L181.3,160l-32,32l128,128V85.3h-42.7V213.3z"/>
</svg>
