<?xml version="1.0" encoding="utf-8"?>
<!-- Generator: Adobe Illustrator 18.1.1, SVG Export Plug-In . SVG Version: 6.00 Build 0)  -->
<svg version="1.1" id="Layer_1" xmlns="http://www.w3.org/2000/svg" xmlns:xlink="http://www.w3.org/1999/xlink" x="0px" y="0px"
	 viewBox="0 0 512 512" enable-background="new 0 0 512 512" xml:space="preserve">
<path d="M109.7,28.5c-36.6,0-54.9,18.3-54.9,36.6s18.3,36.6,36.6,36.6c-36.6,0-54.9,18.3-54.9,36.6s18.3,36.6,36.6,36.6
	c-36.6,0-54.9,18.3-54.9,36.6S36.6,248,54.9,248C18.3,248,0,266.2,0,284.5c0,18.3,18.3,36.6,36.6,36.6h146.3
	c-9.1,36.6-18.3,73.1-18.3,91.4c0,36.6,18.3,73.1,27.4,82.3c0.2,0.2,9.1,9.1,27.4,9.1c27.4,0,27.4-27.4,27.4-27.4
	c0-0.5,9.1-45.7,9.1-64c0-18.3,36.6-91.4,54.9-109.7l18.3-9.1v-256l-18.3-9.1H109.7z M363.9,12l-16.5,34.8v237.7l18.3,18.3h143.8
	c1.5-12,2.5-24.2,2.5-36.6C512,157.3,452.3,62.4,363.9,12z"/>
</svg>
