<?xml version="1.0" encoding="utf-8"?>
<!-- Generator: Adobe Illustrator 18.1.1, SVG Export Plug-In . SVG Version: 6.00 Build 0)  -->
<svg version="1.1" id="Layer_1" xmlns="http://www.w3.org/2000/svg" xmlns:xlink="http://www.w3.org/1999/xlink" x="0px" y="0px"
	 viewBox="0 0 512 512" enable-background="new 0 0 512 512" xml:space="preserve">
<path d="M418.9,232.7h-256v-93.1c0-51.4,41.7-93.1,93.1-93.1s93.1,41.7,93.1,93.1v23.3h46.5v-23.3C395.6,62.5,333.1,0,256,0
	c-77.1,0-139.6,62.5-139.6,139.6v93.1H93.1c-12.8,0-23.3,10.4-23.3,23.3v232.7c0,12.9,10.4,23.3,23.3,23.3h325.8
	c12.8,0,23.3-10.4,23.3-23.3V256C442.2,243.1,431.8,232.7,418.9,232.7z"/>
</svg>
