<?xml version="1.0" encoding="utf-8"?>
<!-- Generator: Adobe Illustrator 18.1.1, SVG Export Plug-In . SVG Version: 6.00 Build 0)  -->
<svg version="1.1" id="Layer_1" xmlns="http://www.w3.org/2000/svg" xmlns:xlink="http://www.w3.org/1999/xlink" x="0px" y="0px"
	 viewBox="0 0 512 512" enable-background="new 0 0 512 512" xml:space="preserve">
<path d="M412.4,232.7h-256V69.8c0-12.9,10.4-23.3,23.3-23.3h139.6c12.8,0,23.3,10.4,23.3,23.3v93.1h46.5V69.8
	c0-38.6-31.3-69.8-69.8-69.8H179.7c-38.6,0-69.8,31.3-69.8,69.8v162.9H86.6c-12.8,0-23.3,10.4-23.3,23.3v232.7
	c0,12.9,10.4,23.3,23.3,23.3h325.8c12.8,0,23.3-10.4,23.3-23.3V256C435.7,243.1,425.2,232.7,412.4,232.7z"/>
</svg>
