<?xml version="1.0" encoding="utf-8"?>
<!-- Generator: Adobe Illustrator 18.1.1, SVG Export Plug-In . SVG Version: 6.00 Build 0)  -->
<svg version="1.1" id="Layer_1" xmlns="http://www.w3.org/2000/svg" xmlns:xlink="http://www.w3.org/1999/xlink" x="0px" y="0px"
	 viewBox="0 0 512 512" enable-background="new 0 0 512 512" xml:space="preserve">
<path d="M393,315.6c-6.3-12.5-14.8-23.9-25.5-34.2c-10.7-10.3-23.1-19.6-37.3-28.1c-14.1-8.5-29.2-16.6-45.1-24.3
	c-3.8-1.6-7.2-3-10.8-4.5v-129c2.7-0.1,5.5-0.4,8.2-0.4c40.8,0,75.6,15.5,101.5,32.8V54.9C362.2,44.8,324.8,36.6,277,36.6
	c-0.9,0-1.7,0.1-2.6,0.1V0h-36.6v39.8c-7.1,1.1-14.3,2.1-21.5,3.7c-20.2,4.6-38.2,11.8-54,21.3c-15.8,9.6-28.6,21.7-38.3,36.4
	c-9.7,14.7-14.5,32-14.5,52c0,16.2,2.8,30.3,8.4,42.3c5.6,12.1,13.4,22.9,23.3,32.4c9.9,9.6,21.5,18.3,34.9,26.2
	c13.4,7.9,27.8,15.7,43.3,23.4c6.3,2.7,12.4,5.3,18.3,7.9v131.2c-3.3,0.1-6.2,0.4-9.7,0.4c-9.1,0-19.1-0.9-29.9-2.7
	c-10.8-1.8-21.7-4.3-32.5-7.6c-10.8-3.2-21.1-7.3-30.8-12c-9.7-4.7-18-10.1-25-16l0,74.6c6.4,3.8,14.9,5.1,25.3,8
	c10.4,3,21.4,5.5,33.1,7.6c11.7,2.1,23.1,3.6,34.2,4.7c11.1,1.1,25.1,1.6,32.7,1.6c0.9,0,1.7-0.1,2.6-0.1V512h36.6v-39.2
	c7-1,14.1-2.1,21.6-3.6c20.6-4.2,38.8-10.8,54.7-20.1c15.8-9.3,28.4-21.3,37.8-36.1c9.4-14.8,14-33,14-54.5
	C402.4,342.5,399.3,328.2,393,315.6z M214.3,194.7c-8.2-5.7-14.4-12-18.6-18.9c-4.3-6.9-6.4-15.1-6.4-24.6c0-10.1,2.8-18.6,8.3-25.7
	c5.5-7.1,12.7-12.9,21.5-17.5c5.7-2.9,12.1-5.1,18.8-7v107.3C228.9,203.8,220.8,199.3,214.3,194.7z M299.4,402.3
	c-6.7,4.2-15.2,7.4-24.9,9.8V302.1c6.8,3.5,13.1,7,18.7,10.7c9.3,6.1,16.6,12.9,21.8,20.3c5.2,7.4,7.8,16.1,7.8,26.2
	C322.8,378.1,315,392.4,299.4,402.3z"/>
</svg>
