<?xml version="1.0" encoding="utf-8"?>
<!-- Generator: Adobe Illustrator 18.1.1, SVG Export Plug-In . SVG Version: 6.00 Build 0)  -->
<svg version="1.1" id="Layer_1" xmlns="http://www.w3.org/2000/svg" xmlns:xlink="http://www.w3.org/1999/xlink" x="0px" y="0px"
	 viewBox="0 0 512 512" enable-background="new 0 0 512 512" xml:space="preserve">
<path d="M395.6,69.8L325.8,0h-58.2l69.8,69.8H395.6z M23.3,0H0v69.8h93.1L23.3,0z M244.4,69.8L174.5,0h-58.2l69.8,69.8H244.4z
	 M418.9,162.9h-93.1l69.8-69.8h-58.2l-69.8,69.8h-93.1l69.8-69.8h-58.2l-69.8,69.8H23.3l69.8-69.8H0v372.4
	C0,491.1,20.9,512,46.5,512h418.9c25.7,0,46.5-20.9,46.5-46.5V93.1h-23.3L418.9,162.9z M186.2,442.2V232.7l186.2,104.7L186.2,442.2z
	 M418.9,0l69.8,69.8H512V0H418.9z"/>
</svg>
