<?xml version="1.0" encoding="utf-8"?>
<!-- Generator: Adobe Illustrator 18.1.1, SVG Export Plug-In . SVG Version: 6.00 Build 0)  -->
<svg version="1.1" id="Layer_1" xmlns="http://www.w3.org/2000/svg" xmlns:xlink="http://www.w3.org/1999/xlink" x="0px" y="0px"
	 viewBox="0 0 512 512" enable-background="new 0 0 512 512" xml:space="preserve">
<path d="M302.5,162.9h-256C20.9,162.9,0,183.8,0,209.5v256C0,491.1,20.9,512,46.5,512h256c25.7,0,46.5-20.9,46.5-46.5v-256
	C349.1,183.8,328.2,162.9,302.5,162.9z M372.4,279.3v116.4L512,465.5v-256L372.4,279.3z M69.8,139.6c38.6,0,69.8-31.3,69.8-69.8
	S108.4,0,69.8,0C31.3,0,0,31.3,0,69.8S31.3,139.6,69.8,139.6z M279.3,0c-38.6,0-69.8,31.3-69.8,69.8s31.3,69.8,69.8,69.8
	c38.6,0,69.8-31.3,69.8-69.8S317.8,0,279.3,0z"/>
</svg>
