<?xml version="1.0" encoding="utf-8"?>
<!-- Generator: Adobe Illustrator 18.1.1, SVG Export Plug-In . SVG Version: 6.00 Build 0)  -->
<svg version="1.1" id="Layer_1" xmlns="http://www.w3.org/2000/svg" xmlns:xlink="http://www.w3.org/1999/xlink" x="0px" y="0px"
	 viewBox="0 0 512 512" enable-background="new 0 0 512 512" xml:space="preserve">
<path d="M248,426.7c-58.9,0-112.6-21.9-153.8-57.7L56,512h384l-38.2-143.1C360.7,404.8,306.9,426.7,248,426.7z M248,277.3
	c47.1,0,85.3-38.2,85.3-85.3s-38.2-85.3-85.3-85.3s-85.3,38.2-85.3,85.3S200.9,277.3,248,277.3z M226.7,149.3
	c11.8,0,21.3,9.5,21.3,21.3c0,11.8-9.6,21.3-21.3,21.3c-11.8,0-21.3-9.5-21.3-21.3C205.4,158.9,214.9,149.3,226.7,149.3z M248,384
	c106.1,0,192-86,192-192S354.1,0,248,0S56,86,56,192S142,384,248,384z M248,64c70.7,0,128,57.3,128,128s-57.3,128-128,128
	s-128-57.3-128-128S177.3,64,248,64z"/>
</svg>
