<?xml version="1.0" encoding="utf-8"?>
<!-- Generator: Adobe Illustrator 18.1.1, SVG Export Plug-In . SVG Version: 6.00 Build 0)  -->
<svg version="1.1" id="Layer_1" xmlns="http://www.w3.org/2000/svg" xmlns:xlink="http://www.w3.org/1999/xlink" x="0px" y="0px"
	 viewBox="0 0 512 512" enable-background="new 0 0 512 512" xml:space="preserve">
<path d="M413.4,0H114.7C91.1,0,72,19.1,72,42.7v426.7c0,23.5,19.1,42.7,42.7,42.7h298.7c23.5,0,42.7-19.1,42.7-42.7V42.7
	C456,19.1,436.9,0,413.4,0z M221.4,469.3L242.7,320h42.7l21.3,149.3H221.4z M328,128h-64v42.7h64v42.7h-64V256h64v42.7h-64V256h-64
	v-42.7h64v-42.7h-64V128h64V85.3h-64V42.7h64v42.7h64V128z M253.4,405.3L242.7,448h42.7l-10.7-42.7H253.4z"/>
</svg>
