<?xml version="1.0" encoding="utf-8"?>
<!-- Generator: Adobe Illustrator 15.1.0, SVG Export Plug-In  -->
<!DOCTYPE svg PUBLIC "-//W3C//DTD SVG 1.1//EN" "http://www.w3.org/Graphics/SVG/1.1/DTD/svg11.dtd" [
	<!ENTITY ns_flows "http://ns.adobe.com/Flows/1.0/">
]>
<svg version="1.1"
	 xmlns="http://www.w3.org/2000/svg" xmlns:xlink="http://www.w3.org/1999/xlink" xmlns:a="http://ns.adobe.com/AdobeSVGViewerExtensions/3.0/"
	 x="0px" y="0px" width="40px" height="40px" viewBox="0 0 40 40" overflow="visible" enable-background="new 0 0 40 40"
	 xml:space="preserve">
<defs>
</defs>
<path fill-rule="evenodd" clip-rule="evenodd" fill="#FFFFFF" d="M8,32l7-2v-3.5c-0.194,0.233-0.389,0.438-0.584,0.695
	c-0.446,0.59-0.799,1.055-1.192,1.252c-0.232,0.116-0.47,0.167-0.706,0.167c-1.11,0-2.222-1.111-2.871-1.761
	c-0.826-0.826-0.159-1.845,0.43-2.743C10.51,23.45,11,22.701,11,22v-4h1v4c0,1-0.577,1.881-1.088,2.659
	c-0.571,0.871-0.774,1.271-0.559,1.487c0.812,0.812,1.821,1.71,2.423,1.406c0.185-0.092,0.534-0.554,0.842-0.961
	C14,26.089,14.453,25.511,15,25V8l-7,2V32z M11.5,14c0.828,0,1.5,0.671,1.5,1.5S12.328,17,11.5,17S10,16.329,10,15.5
	S10.672,14,11.5,14z M16,24.246c0.742-0.404,1.617-0.568,2.658-0.221c0.685,0.229,0.89-0.037,0.976-0.15
	C20.016,23.375,20.106,23,20,23c0.339,0,0.696,0.104,1,0c0,0.5-0.187,0.979-0.572,1.481c-0.27,0.354-0.901,0.887-2.086,0.493
	c-0.917-0.305-1.66-0.055-2.342,0.481V30l8,2V14.257c-0.854-0.255-1.633-0.514-2.224-0.81c-0.986-0.492-2.39-0.316-3.004,0.379
	c-0.528,0.598-0.213,1.361,0.144,1.896c0.166,0.25,0.426,0.974,0.584,1.277c-0.336,0.068-0.715-0.171-1,0
	c-0.124-0.229-0.28-0.519-0.416-0.723c-0.768-1.152-0.79-2.287-0.062-3.113c0.917-1.038,2.801-1.312,4.201-0.612
	c0.463,0.231,1.087,0.446,1.776,0.659V10l-8-2V24.246z M20,18c1.104,0,2,0.896,2,2s-0.896,2-2,2s-2-0.896-2-2S18.896,18,20,18z
	 M25,10v3.509c0.148,0.043,0.294,0.085,0.445,0.128c1.924,0.548,3.912,1.116,4.889,1.99c1.137,1.019,0.379,2.363-0.29,3.549
	C29.53,20.086,29,21.027,29,22h-1c0-1.235,0.623-2.34,1.173-3.315c0.733-1.3,0.983-1.874,0.493-2.312
	c-0.804-0.721-2.765-1.28-4.494-1.773c-0.059-0.017-0.114-0.033-0.172-0.049V32l7-2V8L25,10z M31,27l-1,1l-1.5-1.5L27,28l-1-1
	l1.5-1.5L26,24l1-1l1.5,1.5L30,23l1,1l-1.5,1.5L31,27z"/>
</svg>