<?xml version="1.0" encoding="utf-8"?>
<!-- Generator: Adobe Illustrator 15.1.0, SVG Export Plug-In  -->
<!DOCTYPE svg PUBLIC "-//W3C//DTD SVG 1.1//EN" "http://www.w3.org/Graphics/SVG/1.1/DTD/svg11.dtd" [
	<!ENTITY ns_flows "http://ns.adobe.com/Flows/1.0/">
]>
<svg version="1.1"
	 xmlns="http://www.w3.org/2000/svg" xmlns:xlink="http://www.w3.org/1999/xlink" xmlns:a="http://ns.adobe.com/AdobeSVGViewerExtensions/3.0/"
	 x="0px" y="0px" width="40px" height="40px" viewBox="0 0 40 40" overflow="visible" enable-background="new 0 0 40 40"
	 xml:space="preserve">
<defs>
</defs>
<path fill-rule="evenodd" clip-rule="evenodd" fill="#FFFFFF" d="M30,12h-1c-1.104,0-2,0.896-2,2v2.435l-7.158-4.209
	c-1.011-0.595-1.837,0.006-1.837,1.335v3.465l-8.164-4.8c-1.01-0.595-1.836,0.006-1.836,1.335v12.88
	c0,1.328,0.826,1.929,1.836,1.335l8.164-4.801v3.466c0,1.328,0.826,1.929,1.837,1.335L27,23.565V26c0,1.104,0.896,2,2,2h1
	c1.104,0,2-0.896,2-2V14C32,12.896,31.104,12,30,12z"/>
</svg>