<?xml version="1.0" encoding="utf-8"?>
<!-- Generator: Adobe Illustrator 15.1.0, SVG Export Plug-In  -->
<!DOCTYPE svg PUBLIC "-//W3C//DTD SVG 1.1//EN" "http://www.w3.org/Graphics/SVG/1.1/DTD/svg11.dtd" [
	<!ENTITY ns_flows "http://ns.adobe.com/Flows/1.0/">
]>
<svg version="1.1"
	 xmlns="http://www.w3.org/2000/svg" xmlns:xlink="http://www.w3.org/1999/xlink" xmlns:a="http://ns.adobe.com/AdobeSVGViewerExtensions/3.0/"
	 x="0px" y="0px" width="40px" height="40px" viewBox="0 0 40 40" overflow="visible" enable-background="new 0 0 40 40"
	 xml:space="preserve">
<defs>
</defs>
<path fill-rule="evenodd" clip-rule="evenodd" fill="#FFFFFF" d="M20,8C13.373,8,8,13.373,8,20c0,6.628,5.373,12,12,12
	s12-5.372,12-12C32,13.373,26.627,8,20,8z M21,28.941V25h-2v3.939c-4.17-0.462-7.479-3.769-7.941-7.939H15v-2h-3.939
	c0.462-4.17,3.769-7.479,7.939-7.941V15h2v-3.941c4.171,0.462,7.478,3.771,7.939,7.941H25v2h3.939
	C28.478,25.17,25.171,28.479,21,28.941z"/>
</svg>