<?xml version="1.0" encoding="utf-8"?>
<!-- Generator: Adobe Illustrator 15.1.0, SVG Export Plug-In  -->
<!DOCTYPE svg PUBLIC "-//W3C//DTD SVG 1.1//EN" "http://www.w3.org/Graphics/SVG/1.1/DTD/svg11.dtd" [
	<!ENTITY ns_flows "http://ns.adobe.com/Flows/1.0/">
]>
<svg version="1.1"
	 xmlns="http://www.w3.org/2000/svg" xmlns:xlink="http://www.w3.org/1999/xlink" xmlns:a="http://ns.adobe.com/AdobeSVGViewerExtensions/3.0/"
	 x="0px" y="0px" width="40px" height="40px" viewBox="0 0 40 40" overflow="visible" enable-background="new 0 0 40 40"
	 xml:space="preserve">
<defs>
</defs>
<path fill-rule="evenodd" clip-rule="evenodd" fill="#FFFFFF" d="M20,8C13.373,8,8,13.373,8,20s5.373,12,12,12s12-5.373,12-12
	S26.627,8,20,8z M20,12c1.104,0,2,0.896,2,2s-0.896,2-2,2s-2-0.896-2-2S18.896,12,20,12z M20,28c-1.104,0-2-0.896-2-2s0.896-2,2-2
	s2,0.896,2,2S21.104,28,20,28z M27,21c0,0.552-0.447,1-1,1H14c-0.553,0-1-0.448-1-1v-2c0-0.552,0.447-1,1-1h12c0.553,0,1,0.448,1,1
	V21z"/>
</svg>