<?xml version="1.0" encoding="utf-8"?>
<!-- Generator: Adobe Illustrator 15.1.0, SVG Export Plug-In  -->
<!DOCTYPE svg PUBLIC "-//W3C//DTD SVG 1.1//EN" "http://www.w3.org/Graphics/SVG/1.1/DTD/svg11.dtd" [
	<!ENTITY ns_flows "http://ns.adobe.com/Flows/1.0/">
]>
<svg version="1.1"
	 xmlns="http://www.w3.org/2000/svg" xmlns:xlink="http://www.w3.org/1999/xlink" xmlns:a="http://ns.adobe.com/AdobeSVGViewerExtensions/3.0/"
	 x="0px" y="0px" width="40px" height="40px" viewBox="0 0 40 40" overflow="visible" enable-background="new 0 0 40 40"
	 xml:space="preserve">
<defs>
</defs>
<path fill-rule="evenodd" clip-rule="evenodd" fill="#FFFFFF" d="M29,14H11v-3h12v2h2v-2c0-1.104-0.896-2-2-2H11
	c-1.104,0-2,0.896-2,2v18c0,1.104,0.896,2,2,2h18c1.104,0,2-0.896,2-2v-3h-5c-1.104,0-2-0.896-2-2v-3c0-1.104,0.896-2,2-2h5v-3
	C31,14.896,30.104,14,29,14z M26,24h5v-3h-5V24z"/>
</svg>