<?xml version="1.0" encoding="utf-8"?>
<!-- Generator: Adobe Illustrator 15.1.0, SVG Export Plug-In  -->
<!DOCTYPE svg PUBLIC "-//W3C//DTD SVG 1.1//EN" "http://www.w3.org/Graphics/SVG/1.1/DTD/svg11.dtd" [
	<!ENTITY ns_flows "http://ns.adobe.com/Flows/1.0/">
]>
<svg version="1.1"
	 xmlns="http://www.w3.org/2000/svg" xmlns:xlink="http://www.w3.org/1999/xlink" xmlns:a="http://ns.adobe.com/AdobeSVGViewerExtensions/3.0/"
	 x="0px" y="0px" width="40px" height="40px" viewBox="0 0 40 40" overflow="visible" enable-background="new 0 0 40 40"
	 xml:space="preserve">
<defs>
</defs>
<path fill-rule="evenodd" clip-rule="evenodd" fill="#FFFFFF" d="M28,13h-2v1c0,1.104-0.896,2-2,2s-2-0.896-2-2v-1h-4v1
	c0,1.104-0.896,2-2,2s-2-0.896-2-2v-1h-2c0,10-1,18-1,18h18C29,31,28,23,28,13z M16,15c0.553,0,1-0.447,1-1v-2c0-1.657,1.343-3,3-3
	s3,1.343,3,3v2c0,0.553,0.447,1,1,1s1-0.447,1-1v-2c0-2.762-2.238-5-5-5s-5,2.238-5,5v2C15,14.553,15.447,15,16,15z"/>
</svg>