<?xml version="1.0" encoding="utf-8"?>
<!-- Generator: Adobe Illustrator 15.1.0, SVG Export Plug-In  -->
<!DOCTYPE svg PUBLIC "-//W3C//DTD SVG 1.1//EN" "http://www.w3.org/Graphics/SVG/1.1/DTD/svg11.dtd" [
	<!ENTITY ns_flows "http://ns.adobe.com/Flows/1.0/">
]>
<svg version="1.1"
	 xmlns="http://www.w3.org/2000/svg" xmlns:xlink="http://www.w3.org/1999/xlink" xmlns:a="http://ns.adobe.com/AdobeSVGViewerExtensions/3.0/"
	 x="0px" y="0px" width="40px" height="40px" viewBox="0 0 40 40" overflow="visible" enable-background="new 0 0 40 40"
	 xml:space="preserve">
<defs>
</defs>
<path fill-rule="evenodd" clip-rule="evenodd" fill="#FFFFFF" d="M21,10h-2v2h2V10z M10,21h2v-2h-2V21z M20,7C12.82,7,7,12.82,7,20
	s5.82,13,13,13s13-5.82,13-13S27.18,7,20,7z M20,31c-6.075,0-11-4.925-11-11S13.925,9,20,9s11,4.925,11,11S26.075,31,20,31z M19,30
	h2v-2h-2V30z M28,19v2h2v-2H28z M14,20c0,3.313,2.687,6,6,6s6-2.687,6-6c0,0,0,0,0-0.001V14h-6C16.687,14,14,16.687,14,20z M20,17
	c-1.657,0-3,1.343-3,3h-1c0-2.209,1.791-4,4-4V17z"/>
</svg>