<?xml version="1.0" encoding="utf-8"?>
<!-- Generator: Adobe Illustrator 15.1.0, SVG Export Plug-In  -->
<!DOCTYPE svg PUBLIC "-//W3C//DTD SVG 1.1//EN" "http://www.w3.org/Graphics/SVG/1.1/DTD/svg11.dtd" [
	<!ENTITY ns_flows "http://ns.adobe.com/Flows/1.0/">
]>
<svg version="1.1"
	 xmlns="http://www.w3.org/2000/svg" xmlns:xlink="http://www.w3.org/1999/xlink" xmlns:a="http://ns.adobe.com/AdobeSVGViewerExtensions/3.0/"
	 x="0px" y="0px" width="40px" height="40px" viewBox="0 0 40 40" enable-background="new 0 0 40 40" xml:space="preserve">
<defs>
</defs>
<path fill-rule="evenodd" clip-rule="evenodd" fill="#FFFFFF" d="M23,15H12c-1.104,0-2,0.896-2,2v11c0,1.104,0.896,2,2,2h11
	c1.104,0,2-0.896,2-2V17C25,15.896,24.104,15,23,15z M26,20v5l6,3V17L26,20z M13,14c1.657,0,3-1.343,3-3s-1.343-3-3-3s-3,1.343-3,3
	S11.343,14,13,14z M22,8c-1.657,0-3,1.343-3,3s1.343,3,3,3s3-1.343,3-3S23.657,8,22,8z"/>
</svg>