<?xml version="1.0" encoding="utf-8"?>
<!-- Generator: Adobe Illustrator 15.1.0, SVG Export Plug-In  -->
<!DOCTYPE svg PUBLIC "-//W3C//DTD SVG 1.1//EN" "http://www.w3.org/Graphics/SVG/1.1/DTD/svg11.dtd" [
	<!ENTITY ns_flows "http://ns.adobe.com/Flows/1.0/">
]>
<svg version="1.1"
	 xmlns="http://www.w3.org/2000/svg" xmlns:xlink="http://www.w3.org/1999/xlink" xmlns:a="http://ns.adobe.com/AdobeSVGViewerExtensions/3.0/"
	 x="0px" y="0px" width="40px" height="40px" viewBox="0 0 40 40" overflow="visible" enable-background="new 0 0 40 40"
	 xml:space="preserve">
<defs>
</defs>
<path fill-rule="evenodd" clip-rule="evenodd" fill="#FFFFFF" d="M28,8v4h-4V8h-8v4h-4V8H8v24h24V8H28z M30,30H10V14h20V30z M27,8
	h-2v3h2V8z M15,8h-2v3h2V8z M19,26h-2v-9l-4,1v1.5l2-0.5v7h-2v1h6V26z M23,27c2.5,0,4-2,4-5s-1.5-5-4-5c-2.501,0-4,2-4,5
	S20.5,27,23,27z M23,18.5c1,0,1.5,1.5,1.5,3.5S24,25.5,23,25.5S21.5,24,21.5,22S22,18.5,23,18.5z"/>
</svg>