<?xml version="1.0" encoding="utf-8"?>
<!-- Generator: Adobe Illustrator 15.1.0, SVG Export Plug-In  -->
<!DOCTYPE svg PUBLIC "-//W3C//DTD SVG 1.1//EN" "http://www.w3.org/Graphics/SVG/1.1/DTD/svg11.dtd" [
	<!ENTITY ns_flows "http://ns.adobe.com/Flows/1.0/">
]>
<svg version="1.1"
	 xmlns="http://www.w3.org/2000/svg" xmlns:xlink="http://www.w3.org/1999/xlink" xmlns:a="http://ns.adobe.com/AdobeSVGViewerExtensions/3.0/"
	 x="0px" y="0px" width="40px" height="40px" viewBox="0 0 40 40" enable-background="new 0 0 40 40" xml:space="preserve">
<defs>
</defs>
<path fill-rule="evenodd" clip-rule="evenodd" fill="#FFFFFF" d="M28,10h-2v4h2V10z M14,10h-2v4h2V10z M30,12h-1v3h-4v-3H15v3h-4v-3
	h-1c-1.104,0-2,0.896-2,2v12c0,1.104,0.896,2,2,2h20c1.104,0,2-0.896,2-2V14C32,12.896,31.104,12,30,12z M17,25h-7v-7h7V25z M24,24
	h-5v-2h5V24z M30,21H19v-2h11V21z"/>
</svg>