<?xml version="1.0" encoding="utf-8"?>
<!-- Generator: Adobe Illustrator 15.1.0, SVG Export Plug-In  -->
<!DOCTYPE svg PUBLIC "-//W3C//DTD SVG 1.1//EN" "http://www.w3.org/Graphics/SVG/1.1/DTD/svg11.dtd" [
	<!ENTITY ns_flows "http://ns.adobe.com/Flows/1.0/">
]>
<svg version="1.1"
	 xmlns="http://www.w3.org/2000/svg" xmlns:xlink="http://www.w3.org/1999/xlink" xmlns:a="http://ns.adobe.com/AdobeSVGViewerExtensions/3.0/"
	 x="0px" y="0px" width="40px" height="40px" viewBox="0 0 40 40" enable-background="new 0 0 40 40" xml:space="preserve">
<defs>
</defs>
<path fill-rule="evenodd" clip-rule="evenodd" fill="#FFFFFF" d="M16,28c0,0-2,2-3,2c-1.657,0-3-1.343-3-3c0-1,2-3,2-3l3.908-3.908
	C15.613,20.037,15.312,20,15,20c-1.144,0-2.163,0.351-3,1l-3,3c-0.624,0.827-1,1.882-1,3c0,2.762,2.238,5,5,5
	c1.126,0,2.17-0.369,3-1l3-3c0.636-0.831,1-1.87,1-3c0-0.312-0.037-0.613-0.092-0.908L16,28z M27,8c-1.125,0-2.17,0.369-3,1l-3,3
	c-0.636,0.832-1,1.87-1,3c0,0.312,0.037,0.613,0.092,0.908L24,12c0,0,2-2,3-2c1.657,0,3,1.343,3,3c0,1-2,3-2,3l-3.908,3.908
	C24.387,19.963,24.688,20,25,20c1.144,0,2.163-0.351,3-1l3-3c0.624-0.827,1-1.881,1-3C32,10.238,29.762,8,27,8z M15,23.5
	c0,0.828,0.672,1.5,1.5,1.5c0.591,0,1.097-0.345,1.342-0.842l6.316-6.316C24.655,17.597,25,17.091,25,16.5
	c0-0.828-0.672-1.5-1.5-1.5c-0.591,0-1.097,0.345-1.342,0.842l-6.316,6.316C15.345,22.403,15,22.909,15,23.5z"/>
</svg>