<?xml version="1.0" encoding="utf-8"?>
<!-- Generator: Adobe Illustrator 15.1.0, SVG Export Plug-In  -->
<!DOCTYPE svg PUBLIC "-//W3C//DTD SVG 1.1//EN" "http://www.w3.org/Graphics/SVG/1.1/DTD/svg11.dtd" [
	<!ENTITY ns_flows "http://ns.adobe.com/Flows/1.0/">
]>
<svg version="1.1"
	 xmlns="http://www.w3.org/2000/svg" xmlns:xlink="http://www.w3.org/1999/xlink" xmlns:a="http://ns.adobe.com/AdobeSVGViewerExtensions/3.0/"
	 x="0px" y="0px" width="40px" height="40px" viewBox="0 0 40 40" overflow="visible" enable-background="new 0 0 40 40"
	 xml:space="preserve">
<defs>
</defs>
<path fill-rule="evenodd" clip-rule="evenodd" fill="#FFFFFF" d="M13,23v-8h-2c-1.104,0-2,0.896-2,2v12c0,1.104,0.896,2,2,2h12
	c1.104,0,2-0.896,2-2v-2h-8C14.791,27,13,25.209,13,23z M29,9H17c-1.104,0-2,0.896-2,2v12c0,1.104,0.896,2,2,2h12
	c1.104,0,2-0.896,2-2V11C31,9.896,30.104,9,29,9z M28,18h-4v4h-2v-4h-4v-2h4v-4h2v4h4V18z"/>
</svg>