<?xml version="1.0" encoding="utf-8"?>
<!-- Generator: Adobe Illustrator 15.1.0, SVG Export Plug-In  -->
<!DOCTYPE svg PUBLIC "-//W3C//DTD SVG 1.1//EN" "http://www.w3.org/Graphics/SVG/1.1/DTD/svg11.dtd" [
	<!ENTITY ns_flows "http://ns.adobe.com/Flows/1.0/">
]>
<svg version="1.1"
	 xmlns="http://www.w3.org/2000/svg" xmlns:xlink="http://www.w3.org/1999/xlink" xmlns:a="http://ns.adobe.com/AdobeSVGViewerExtensions/3.0/"
	 x="0px" y="0px" width="40px" height="40px" viewBox="0 0 40 40" overflow="visible" enable-background="new 0 0 40 40"
	 xml:space="preserve">
<defs>
</defs>
<path fill-rule="evenodd" clip-rule="evenodd" fill="#FFFFFF" d="M26,10c-3,0-4.509,1.296-6,3c-1.491-1.704-3-3-6-3s-6,2-6,8
	c0,3,3,9,12,14c9-5,12-11,12-14C32,12,29,10,26,10z M20,29.694C11.828,24.847,10,19.649,10,18c0-2.737,0.694-6,4-6
	c2.099,0,3.121,0.747,4.495,2.317L20,16l1.505-1.683C22.879,12.747,23.902,12,26,12c3.306,0,4,3.263,4,6
	C30,19.649,28.172,24.847,20,29.694z"/>
</svg>