<?xml version="1.0" encoding="utf-8"?>
<!-- Generator: Adobe Illustrator 15.1.0, SVG Export Plug-In  -->
<!DOCTYPE svg PUBLIC "-//W3C//DTD SVG 1.1//EN" "http://www.w3.org/Graphics/SVG/1.1/DTD/svg11.dtd" [
	<!ENTITY ns_flows "http://ns.adobe.com/Flows/1.0/">
]>
<svg version="1.1"
	 xmlns="http://www.w3.org/2000/svg" xmlns:xlink="http://www.w3.org/1999/xlink" xmlns:a="http://ns.adobe.com/AdobeSVGViewerExtensions/3.0/"
	 x="0px" y="0px" width="40px" height="40px" viewBox="0 0 40 40" overflow="visible" enable-background="new 0 0 40 40"
	 xml:space="preserve">
<defs>
</defs>
<path fill-rule="evenodd" clip-rule="evenodd" fill="#FFFFFF" d="M22.809,26.031c-0.414-0.86-0.954-1.483-1.885-1.1l-1.832,0.682
	c-1.466,0.683-2.198,0-2.932-1.023l-3.298-7.505c-0.414-0.86-0.197-1.664,0.733-2.047l2.564-1.023
	c0.931-0.383,0.78-1.187,0.367-2.047l-2.199-4.093c-0.414-0.86-1.268-1.065-2.198-0.683c-1.859,0.767-3.398,1.968-4.397,3.752
	c-1.218,2.177-0.607,5.207-0.366,6.481c0.242,1.274,1.095,3.506,2.199,5.799c1.104,2.293,2.068,4.098,2.931,5.117
	s2.932,3.814,5.496,4.435c2.103,0.508,4.368,0.082,6.229-0.683c0.931-0.382,0.933-1.19,0.519-2.05L22.809,26.031z M33,17h-9l4-4h-3
	l-5,5l5,5h3l-4-4h9V17z"/>
</svg>