<?xml version="1.0" encoding="utf-8"?>
<!-- Generator: Adobe Illustrator 15.1.0, SVG Export Plug-In  -->
<!DOCTYPE svg PUBLIC "-//W3C//DTD SVG 1.1//EN" "http://www.w3.org/Graphics/SVG/1.1/DTD/svg11.dtd" [
	<!ENTITY ns_flows "http://ns.adobe.com/Flows/1.0/">
]>
<svg version="1.1"
	 xmlns="http://www.w3.org/2000/svg" xmlns:xlink="http://www.w3.org/1999/xlink" xmlns:a="http://ns.adobe.com/AdobeSVGViewerExtensions/3.0/"
	 x="0px" y="0px" width="40px" height="40px" viewBox="0 0 40 40" overflow="visible" enable-background="new 0 0 40 40"
	 xml:space="preserve">
<defs>
</defs>
<path fill="#FFFFFF" d="M20,8C13.373,8,8,13.373,8,20s5.373,12,12,12c3.313,0,6.313-1.343,8.485-3.515S32,23.313,32,20
	C32,13.373,26.627,8,20,8z M20,20c-4.531-4.531-7.54-4.499-9.412-3.351C11.967,12.777,15.654,10,20,10c5.522,0,10,4.478,10,10
	c0,1.177-0.214,2.302-0.587,3.351C27.54,24.499,24.531,24.531,20,20z"/>
</svg>