<?xml version="1.0" encoding="utf-8"?>
<!-- Generator: Adobe Illustrator 15.1.0, SVG Export Plug-In  -->
<!DOCTYPE svg PUBLIC "-//W3C//DTD SVG 1.1//EN" "http://www.w3.org/Graphics/SVG/1.1/DTD/svg11.dtd" [
	<!ENTITY ns_flows "http://ns.adobe.com/Flows/1.0/">
]>
<svg version="1.1"
	 xmlns="http://www.w3.org/2000/svg" xmlns:xlink="http://www.w3.org/1999/xlink" xmlns:a="http://ns.adobe.com/AdobeSVGViewerExtensions/3.0/"
	 x="0px" y="0px" width="40px" height="40px" viewBox="0 0 40 40" overflow="visible" enable-background="new 0 0 40 40"
	 xml:space="preserve">
<defs>
</defs>
<path fill-rule="evenodd" clip-rule="evenodd" fill="#FFFFFF" d="M16.5,29c2-1,2.5-2.5,2.5-5v-2h5v-3h-5v-4c0-2.932,1.508-4.5,4-4.5
	c1.212,0,1.914,0.874,3,1.5V8.5C24.834,8.05,24.418,8,23,8c-2.104,0-4.152,0.64-5.474,1.913C16.206,11.187,16,13.013,16,15v4h-4v3h4
	v3c0,2-2,4-4,4l0.013,3.016h15.984L28,29H16.5z"/>
</svg>