<?xml version="1.0" encoding="utf-8"?>
<!-- Generator: Adobe Illustrator 15.1.0, SVG Export Plug-In  -->
<!DOCTYPE svg PUBLIC "-//W3C//DTD SVG 1.1//EN" "http://www.w3.org/Graphics/SVG/1.1/DTD/svg11.dtd" [
	<!ENTITY ns_flows "http://ns.adobe.com/Flows/1.0/">
]>
<svg version="1.1"
	 xmlns="http://www.w3.org/2000/svg" xmlns:xlink="http://www.w3.org/1999/xlink" xmlns:a="http://ns.adobe.com/AdobeSVGViewerExtensions/3.0/"
	 x="0px" y="0px" width="40px" height="40px" viewBox="0 0 40 40" overflow="visible" enable-background="new 0 0 40 40"
	 xml:space="preserve">
<defs>
</defs>
<path fill-rule="evenodd" clip-rule="evenodd" fill="#FFFFFF" d="M26.8,14.115c-1.034,1.321-1.421,3.61-1.772,5.721
	C24.644,22.137,24.167,25,23.014,25c-1.152,0-1.63-2.863-2.014-5.164C20.466,16.632,19.86,13,17.014,13s-3.452,3.632-3.986,6.836
	c-0.25,1.501-0.544,3.228-1.036,4.257c0.335,0.653,0.746,1.26,1.224,1.809c1.044-1.319,1.433-3.618,1.785-5.736
	C15.384,17.864,15.861,15,17.014,15c1.153,0,1.63,2.863,2.014,5.165C19.562,23.368,20.167,27,23.014,27s3.452-3.632,3.986-6.835
	c0.248-1.488,0.538-3.199,1.021-4.231C27.688,15.276,27.277,14.667,26.8,14.115z M20,8C13.373,8,8,13.373,8,20
	c0,6.628,5.373,12,12,12c6.628,0,12-5.372,12-12C32,13.373,26.628,8,20,8z M20,30c-5.522,0-10-4.478-10-10s4.478-10,10-10
	c5.523,0,10,4.478,10,10C30,25.523,25.523,30,20,30z"/>
</svg>