<?xml version="1.0" encoding="utf-8"?>
<!-- Generator: Adobe Illustrator 15.1.0, SVG Export Plug-In  -->
<!DOCTYPE svg PUBLIC "-//W3C//DTD SVG 1.1//EN" "http://www.w3.org/Graphics/SVG/1.1/DTD/svg11.dtd" [
	<!ENTITY ns_flows "http://ns.adobe.com/Flows/1.0/">
]>
<svg version="1.1"
	 xmlns="http://www.w3.org/2000/svg" xmlns:xlink="http://www.w3.org/1999/xlink" xmlns:a="http://ns.adobe.com/AdobeSVGViewerExtensions/3.0/"
	 x="0px" y="0px" width="40px" height="40px" viewBox="0 0 40 40" overflow="visible" enable-background="new 0 0 40 40"
	 xml:space="preserve">
<defs>
</defs>
<path fill-rule="evenodd" clip-rule="evenodd" fill="#FFFFFF" d="M21,31h4v-2h-4V31z M15,31h4v-2h-4V31z M21,11h4V9h-4V11z M11,27H9
	v4h4v-2h-2V27z M11,21H9v4h2V21z M29,19h2v-4h-2V19z M29,29h-2v2h4v-4h-2V29z M27,9v2h2v2h2V9H27z M29,25h2v-4h-2V25z M9,19h10V9H9
	V19z"/>
</svg>