<?xml version="1.0" encoding="utf-8"?>
<!-- Generator: Adobe Illustrator 15.1.0, SVG Export Plug-In  -->
<!DOCTYPE svg PUBLIC "-//W3C//DTD SVG 1.1//EN" "http://www.w3.org/Graphics/SVG/1.1/DTD/svg11.dtd" [
	<!ENTITY ns_flows "http://ns.adobe.com/Flows/1.0/">
]>
<svg version="1.1"
	 xmlns="http://www.w3.org/2000/svg" xmlns:xlink="http://www.w3.org/1999/xlink" xmlns:a="http://ns.adobe.com/AdobeSVGViewerExtensions/3.0/"
	 x="0px" y="0px" width="40px" height="40px" viewBox="0 0 40 40" overflow="visible" enable-background="new 0 0 40 40"
	 xml:space="preserve">
<defs>
</defs>
<path fill-rule="evenodd" clip-rule="evenodd" fill="#FFFFFF" d="M26,12l-3-3h-2.5l3,3H26z M19.5,12l-3-3H14l3,3H19.5z M27,9l3,3h1
	V9H27z M10,9H9v3h4L10,9z M27,16h-4l3-3h-2.5l-3,3h-4l3-3H17l-3,3h-4l3-3H9v16c0,1.104,0.896,2,2,2h18c1.104,0,2-0.896,2-2V13h-1
	L27,16z"/>
</svg>