<?xml version="1.0" encoding="utf-8"?>
<!-- Generator: Adobe Illustrator 15.1.0, SVG Export Plug-In  -->
<!DOCTYPE svg PUBLIC "-//W3C//DTD SVG 1.1//EN" "http://www.w3.org/Graphics/SVG/1.1/DTD/svg11.dtd" [
	<!ENTITY ns_flows "http://ns.adobe.com/Flows/1.0/">
]>
<svg version="1.1"
	 xmlns="http://www.w3.org/2000/svg" xmlns:xlink="http://www.w3.org/1999/xlink" xmlns:a="http://ns.adobe.com/AdobeSVGViewerExtensions/3.0/"
	 x="0px" y="0px" width="40px" height="40px" viewBox="0 0 40 40" overflow="visible" enable-background="new 0 0 40 40"
	 xml:space="preserve">
<defs>
</defs>
<path fill-rule="evenodd" clip-rule="evenodd" fill="#FFFFFF" d="M6,29h8v-8H6V29z M8,23h4v4H8V23z M6,19h8v-8H6V19z M8,13h4v4H8V13
	z M16,29h8v-8h-8V29z M18,23h4v4h-4V23z M26,29h8v-8h-8V29z M28,23h4v4h-4V23z M26,11v8h8v-8H26z M32,17h-4v-4h4V17z M16,19h8v-8h-8
	V19z M18,13h4v4h-4V13z"/>
</svg>