<?xml version="1.0" encoding="utf-8"?>
<!-- Generator: Adobe Illustrator 15.1.0, SVG Export Plug-In  -->
<!DOCTYPE svg PUBLIC "-//W3C//DTD SVG 1.1//EN" "http://www.w3.org/Graphics/SVG/1.1/DTD/svg11.dtd" [
	<!ENTITY ns_flows "http://ns.adobe.com/Flows/1.0/">
]>
<svg version="1.1"
	 xmlns="http://www.w3.org/2000/svg" xmlns:xlink="http://www.w3.org/1999/xlink" xmlns:a="http://ns.adobe.com/AdobeSVGViewerExtensions/3.0/"
	 x="0px" y="0px" width="40px" height="40px" viewBox="0 0 40 40" overflow="visible" enable-background="new 0 0 40 40"
	 xml:space="preserve">
<defs>
</defs>
<path fill-rule="evenodd" clip-rule="evenodd" fill="#FFFFFF" d="M24,8.697v3.249c2.961,1.474,5,4.521,5,8.054c0,4.971-4.029,9-9,9
	s-9-4.029-9-9c0-3.532,2.039-6.58,5-8.054V8.697C11.342,10.347,8,14.777,8,20c0,6.628,5.373,12,12,12s12-5.372,12-12
	C32,14.777,28.658,10.347,24,8.697z M20,16c1.104,0,2-0.896,2-2V8c0-1.104-0.896-2-2-2s-2,0.896-2,2v6C18,15.104,18.896,16,20,16z"
	/>
</svg>