<?xml version="1.0" encoding="utf-8"?>
<!-- Generator: Adobe Illustrator 15.1.0, SVG Export Plug-In  -->
<!DOCTYPE svg PUBLIC "-//W3C//DTD SVG 1.1//EN" "http://www.w3.org/Graphics/SVG/1.1/DTD/svg11.dtd" [
	<!ENTITY ns_flows "http://ns.adobe.com/Flows/1.0/">
]>
<svg version="1.1"
	 xmlns="http://www.w3.org/2000/svg" xmlns:xlink="http://www.w3.org/1999/xlink" xmlns:a="http://ns.adobe.com/AdobeSVGViewerExtensions/3.0/"
	 x="0px" y="0px" width="40px" height="40px" viewBox="0 0 40 40" overflow="visible" enable-background="new 0 0 40 40"
	 xml:space="preserve">
<defs>
</defs>
<path fill-rule="evenodd" clip-rule="evenodd" fill="#FFFFFF" d="M14,7c-2,0-3,1-3,2s1,2,2,2c-2,0-3,1-3,2s1,2,2,2c-2,0-3,1-3,2
	s1,2,2,2c-2,0-3,1-3,2s1,2,2,2h8c-0.5,2-1,4-1,5c0,2,1,4,1.5,4.5C18.511,32.512,19,33,20,33c1.5,0,1.5-1.5,1.5-1.5
	c0-0.028,0.5-2.5,0.5-3.5s2-5,3-6l1-0.5v-14L25,7H14z M27.901,6.099L27,8v13l1,1h7.862C35.944,21.344,36,20.679,36,20
	C36,14.04,32.734,8.852,27.901,6.099z"/>
</svg>