<?xml version="1.0" encoding="utf-8"?>
<!-- Generator: Adobe Illustrator 15.1.0, SVG Export Plug-In  -->
<!DOCTYPE svg PUBLIC "-//W3C//DTD SVG 1.1//EN" "http://www.w3.org/Graphics/SVG/1.1/DTD/svg11.dtd" [
	<!ENTITY ns_flows "http://ns.adobe.com/Flows/1.0/">
]>
<svg version="1.1"
	 xmlns="http://www.w3.org/2000/svg" xmlns:xlink="http://www.w3.org/1999/xlink" xmlns:a="http://ns.adobe.com/AdobeSVGViewerExtensions/3.0/"
	 x="0px" y="0px" width="40px" height="40px" viewBox="0 0 40 40" overflow="visible" enable-background="new 0 0 40 40"
	 xml:space="preserve">
<defs>
</defs>
<path fill-rule="evenodd" clip-rule="evenodd" fill="#FFFFFF" d="M27,7H13c-1.104,0-2,0.896-2,2v20c0,1.104,0.896,2,2,2h14
	c1.104,0,2-0.896,2-2V9C29,7.896,28.104,7,27,7z M18,29l1-7h2l1,7H18z M23,13h-3v2h3v2h-3v2h3v2h-3v-2h-3v-2h3v-2h-3v-2h3v-2h-3V9h3
	v2h3V13z M19.5,26L19,28h2l-0.5-2H19.5z"/>
</svg>