<?xml version="1.0" encoding="utf-8"?>
<!-- Generator: Adobe Illustrator 15.1.0, SVG Export Plug-In  -->
<!DOCTYPE svg PUBLIC "-//W3C//DTD SVG 1.1//EN" "http://www.w3.org/Graphics/SVG/1.1/DTD/svg11.dtd" [
	<!ENTITY ns_flows "http://ns.adobe.com/Flows/1.0/">
]>
<svg version="1.1"
	 xmlns="http://www.w3.org/2000/svg" xmlns:xlink="http://www.w3.org/1999/xlink" xmlns:a="http://ns.adobe.com/AdobeSVGViewerExtensions/3.0/"
	 x="0px" y="0px" width="40px" height="40px" viewBox="0 0 40 40" overflow="visible" enable-background="new 0 0 40 40"
	 xml:space="preserve">
<defs>
</defs>
<path fill-rule="evenodd" clip-rule="evenodd" fill="#FFFFFF" d="M27,19h-1v-7c0-1.657-1.343-3-3-3h-6c-1.657,0-3,1.343-3,3v7h-1
	c-0.552,0-1,0.447-1,1v10c0,0.553,0.448,1,1,1h14c0.552,0,1-0.447,1-1V20C28,19.447,27.552,19,27,19z M24,19h-8v-7
	c0-0.553,0.448-1,1-1h6c0.552,0,1,0.447,1,1V19z"/>
</svg>