<?xml version="1.0" encoding="utf-8"?>
<!-- Generator: Adobe Illustrator 15.1.0, SVG Export Plug-In  -->
<!DOCTYPE svg PUBLIC "-//W3C//DTD SVG 1.1//EN" "http://www.w3.org/Graphics/SVG/1.1/DTD/svg11.dtd" [
	<!ENTITY ns_flows "http://ns.adobe.com/Flows/1.0/">
]>
<svg version="1.1"
	 xmlns="http://www.w3.org/2000/svg" xmlns:xlink="http://www.w3.org/1999/xlink" xmlns:a="http://ns.adobe.com/AdobeSVGViewerExtensions/3.0/"
	 x="0px" y="0px" width="40px" height="40px" viewBox="0 0 40 40" overflow="visible" enable-background="new 0 0 40 40"
	 xml:space="preserve">
<defs>
</defs>
<path fill-rule="evenodd" clip-rule="evenodd" fill="#FFFFFF" d="M20,8C13.373,8,8,13.373,8,20s5.373,12,12,12s12-5.373,12-12
	S26.627,8,20,8z M11,20c0-4.971,4.029-9,9-9c1.975,0,3.795,0.644,5.278,1.722L12.722,25.278C11.644,23.795,11,21.975,11,20z M20,29
	c-1.975,0-3.795-0.644-5.278-1.721l12.557-12.557C28.356,16.206,29,18.025,29,20C29,24.971,24.971,29,20,29z"/>
</svg>