<?xml version="1.0" encoding="utf-8"?>
<!-- Generator: Adobe Illustrator 15.1.0, SVG Export Plug-In  -->
<!DOCTYPE svg PUBLIC "-//W3C//DTD SVG 1.1//EN" "http://www.w3.org/Graphics/SVG/1.1/DTD/svg11.dtd" [
	<!ENTITY ns_flows "http://ns.adobe.com/Flows/1.0/">
]>
<svg version="1.1"
	 xmlns="http://www.w3.org/2000/svg" xmlns:xlink="http://www.w3.org/1999/xlink" xmlns:a="http://ns.adobe.com/AdobeSVGViewerExtensions/3.0/"
	 x="0px" y="0px" width="40px" height="40px" viewBox="0 0 40 40" overflow="visible" enable-background="new 0 0 40 40"
	 xml:space="preserve">
<defs>
</defs>
<path fill-rule="evenodd" clip-rule="evenodd" fill="#FFFFFF" d="M26,14c-0.552,0-1,0.447-1,1v10c0,2.762-2.238,5-5,5
	c-2.761,0-5-2.238-5-5V13c0-1.656,1.343-3,3-3c1.657,0,3,1.344,3,3v10c0,0.553-0.448,1-1,1s-1-0.447-1-1v-8c0-0.553-0.448-1-1-1
	c-0.553,0-1,0.447-1,1v8c0,1.657,1.343,3,3,3s3-1.343,3-3V13c0-2.762-2.239-5-5-5s-5,2.238-5,5v12c0,3.866,3.134,7,7,7s7-3.134,7-7
	V15C27,14.447,26.552,14,26,14z"/>
</svg>