<?xml version="1.0" encoding="utf-8"?>
<!-- Generator: Adobe Illustrator 15.1.0, SVG Export Plug-In  -->
<!DOCTYPE svg PUBLIC "-//W3C//DTD SVG 1.1//EN" "http://www.w3.org/Graphics/SVG/1.1/DTD/svg11.dtd" [
	<!ENTITY ns_flows "http://ns.adobe.com/Flows/1.0/">
]>
<svg version="1.1"
	 xmlns="http://www.w3.org/2000/svg" xmlns:xlink="http://www.w3.org/1999/xlink" xmlns:a="http://ns.adobe.com/AdobeSVGViewerExtensions/3.0/"
	 x="0px" y="0px" width="40px" height="40px" viewBox="0 0 40 40" overflow="visible" enable-background="new 0 0 40 40"
	 xml:space="preserve">
<defs>
</defs>
<path fill-rule="evenodd" clip-rule="evenodd" fill="#FFFFFF" d="M25.5,8c-3.59,0-6.5,2.91-6.5,6.5c0,0.749,0.133,1.465,0.366,2.134
	L9,27l-1,5h6v-2l1-1l1,1l2-2l-1-1l2-2l1,1l2-2l-1-1l2.366-2.366C24.035,20.867,24.751,21,25.5,21c3.59,0,6.5-2.91,6.5-6.5
	S29.09,8,25.5,8z M27,15c-1.104,0-2-0.896-2-2s0.896-2,2-2s2,0.896,2,2S28.104,15,27,15z"/>
</svg>