<?xml version="1.0" encoding="utf-8"?>
<!-- Generator: Adobe Illustrator 15.1.0, SVG Export Plug-In  -->
<!DOCTYPE svg PUBLIC "-//W3C//DTD SVG 1.1//EN" "http://www.w3.org/Graphics/SVG/1.1/DTD/svg11.dtd" [
	<!ENTITY ns_flows "http://ns.adobe.com/Flows/1.0/">
]>
<svg version="1.1"
	 xmlns="http://www.w3.org/2000/svg" xmlns:xlink="http://www.w3.org/1999/xlink" xmlns:a="http://ns.adobe.com/AdobeSVGViewerExtensions/3.0/"
	 x="0px" y="0px" width="40px" height="40px" viewBox="0 0 40 40" overflow="visible" enable-background="new 0 0 40 40"
	 xml:space="preserve">
<defs>
</defs>
<path fill-rule="evenodd" clip-rule="evenodd" fill="#FFFFFF" d="M20,9c-6.627,0-12,4.029-12,9c0,3.516,2.694,6.553,6.612,8.034
	L12,33l7.522-6.018C19.683,26.987,19.839,27,20,27c6.628,0,12-4.029,12-9S26.628,9,20,9z M25.5,21L23,23.5l-3-3l-3,3L14.5,21l3-3
	l-3-3l2.5-2.5l3,3l3-3l2.5,2.5l-3,3L25.5,21z"/>
</svg>