<?xml version="1.0" encoding="utf-8"?>
<!-- Generator: Adobe Illustrator 15.1.0, SVG Export Plug-In  -->
<!DOCTYPE svg PUBLIC "-//W3C//DTD SVG 1.1//EN" "http://www.w3.org/Graphics/SVG/1.1/DTD/svg11.dtd" [
	<!ENTITY ns_flows "http://ns.adobe.com/Flows/1.0/">
]>
<svg version="1.1"
	 xmlns="http://www.w3.org/2000/svg" xmlns:xlink="http://www.w3.org/1999/xlink" xmlns:a="http://ns.adobe.com/AdobeSVGViewerExtensions/3.0/"
	 x="0px" y="0px" width="40px" height="40px" viewBox="0 0 40 40" overflow="visible" enable-background="new 0 0 40 40"
	 xml:space="preserve">
<defs>
</defs>
<path fill-rule="evenodd" clip-rule="evenodd" fill="#FFFFFF" d="M20,8c-5,0-9,4-9,9c0,1.728,0.518,3.065,1.411,4.42l6.641,10.076
	v0.001C19.252,31.8,19.602,32,20,32c0.399,0,0.75-0.201,0.949-0.504L27.59,21.42C28.482,20.065,29,18.728,29,17C29,12,25,8,20,8z
	 M20,23.995c-3.866,0-7-3.137-7-7.007c0-3.869,3.134-7.006,7-7.006s7,3.137,7,7.006C27,20.858,23.866,23.995,20,23.995z M23,16h-2
	v-3c0-0.553-0.447-1-1-1c-0.552,0-1,0.447-1,1v4c0,0.553,0.448,1,1,1h3c0.553,0,1-0.447,1-1S23.553,16,23,16z"/>
</svg>