<?xml version="1.0" encoding="utf-8"?>
<!-- Generator: Adobe Illustrator 15.1.0, SVG Export Plug-In  -->
<!DOCTYPE svg PUBLIC "-//W3C//DTD SVG 1.1//EN" "http://www.w3.org/Graphics/SVG/1.1/DTD/svg11.dtd" [
	<!ENTITY ns_flows "http://ns.adobe.com/Flows/1.0/">
]>
<svg version="1.1"
	 xmlns="http://www.w3.org/2000/svg" xmlns:xlink="http://www.w3.org/1999/xlink" xmlns:a="http://ns.adobe.com/AdobeSVGViewerExtensions/3.0/"
	 x="0px" y="0px" width="40px" height="40px" viewBox="0 0 40 40" overflow="visible" enable-background="new 0 0 40 40"
	 xml:space="preserve">
<defs>
</defs>
<path fill-rule="evenodd" clip-rule="evenodd" d="M29.703,20.191l3.294-1.374l-1.004-4.225L28.3,14.988
	c-0.373-0.629-0.805-1.203-1.29-1.717l1.365-3.315l-3.696-2.28l-2.306,2.867c-0.799-0.21-1.622-0.314-2.454-0.319l-1.445-3.219
	l-4.197,1.127l0.493,3.562c-0.58,0.359-1.111,0.769-1.584,1.217l-3.187-1.313L7.72,15.295l2.743,2.218
	c-0.2,0.755-0.318,1.538-0.335,2.327l-3.125,1.298l1.007,4.23l3.487-0.375c0.403,0.7,0.875,1.334,1.422,1.893l-1.285,3.116
	l3.695,2.278l2.216-2.75c0.752,0.187,1.518,0.291,2.3,0.299l1.312,3.167l4.223-1.007L25,28.396c0.653-0.398,1.255-0.854,1.773-1.368
	l3.237,1.334l2.277-3.701l-2.865-2.312C29.595,21.644,29.692,20.92,29.703,20.191z M20,26.014c-3.308,0-5.989-2.692-5.989-6.014
	s2.682-6.014,5.989-6.014s5.989,2.692,5.989,6.014S23.308,26.014,20,26.014z M20,17.99c-1.11,0-2.01,0.9-2.01,2.01
	c0,1.11,0.9,2.01,2.01,2.01s2.01-0.899,2.01-2.01C22.01,18.891,21.11,17.99,20,17.99z"/>
</svg>