<?xml version="1.0" encoding="utf-8"?>
<!-- Generator: Adobe Illustrator 15.1.0, SVG Export Plug-In  -->
<!DOCTYPE svg PUBLIC "-//W3C//DTD SVG 1.1//EN" "http://www.w3.org/Graphics/SVG/1.1/DTD/svg11.dtd" [
	<!ENTITY ns_flows "http://ns.adobe.com/Flows/1.0/">
]>
<svg version="1.1"
	 xmlns="http://www.w3.org/2000/svg" xmlns:xlink="http://www.w3.org/1999/xlink" xmlns:a="http://ns.adobe.com/AdobeSVGViewerExtensions/3.0/"
	 x="0px" y="0px" width="40px" height="40px" viewBox="0 0 40 40" overflow="visible" enable-background="new 0 0 40 40"
	 xml:space="preserve">
<defs>
</defs>
<path fill-rule="evenodd" clip-rule="evenodd" d="M11,26c-1,3-1.5,4-4,4c8.5,3.5,10-2.5,10-2.5L14.5,25C14.5,25,12,24.5,11,26z
	 M32.5,9.5c-0.707-0.707-1.922-0.198-1.922-0.198C28.811,9.656,19,19.5,19,19.5l3.5,3.5c0,0,9.846-9.809,10.199-11.576
	C32.699,11.424,33.207,10.207,32.5,9.5z M15.5,24l2.5,2.5l3.5-2.5L18,20.5L15.5,24z"/>
</svg>