<?xml version="1.0" encoding="utf-8"?>
<!-- Generator: Adobe Illustrator 15.1.0, SVG Export Plug-In  -->
<!DOCTYPE svg PUBLIC "-//W3C//DTD SVG 1.1//EN" "http://www.w3.org/Graphics/SVG/1.1/DTD/svg11.dtd" [
	<!ENTITY ns_flows "http://ns.adobe.com/Flows/1.0/">
]>
<svg version="1.1"
	 xmlns="http://www.w3.org/2000/svg" xmlns:xlink="http://www.w3.org/1999/xlink" xmlns:a="http://ns.adobe.com/AdobeSVGViewerExtensions/3.0/"
	 x="0px" y="0px" width="40px" height="40px" viewBox="0 0 40 40" overflow="visible" enable-background="new 0 0 40 40"
	 xml:space="preserve">
<defs>
</defs>
<path fill-rule="evenodd" clip-rule="evenodd" d="M30,11H10c-1.104,0-2,0.896-2,2v14c0,1.104,0.896,2,2,2h20c1.104,0,2-0.896,2-2V13
	C32,11.896,31.104,11,30,11z M26,24H14c-2.209,0-4-1.791-4-4s1.791-4,4-4s4,1.791,4,4c0,0.732-0.211,1.41-0.555,2h5.109
	C22.211,21.41,22,20.732,22,20c0-2.209,1.791-4,4-4s4,1.791,4,4S28.209,24,26,24z"/>
</svg>