<?xml version="1.0" encoding="utf-8"?>
<!-- Generator: Adobe Illustrator 15.1.0, SVG Export Plug-In  -->
<!DOCTYPE svg PUBLIC "-//W3C//DTD SVG 1.1//EN" "http://www.w3.org/Graphics/SVG/1.1/DTD/svg11.dtd" [
	<!ENTITY ns_flows "http://ns.adobe.com/Flows/1.0/">
]>
<svg version="1.1"
	 xmlns="http://www.w3.org/2000/svg" xmlns:xlink="http://www.w3.org/1999/xlink" xmlns:a="http://ns.adobe.com/AdobeSVGViewerExtensions/3.0/"
	 x="0px" y="0px" width="40px" height="40px" viewBox="0 0 40 40" overflow="visible" enable-background="new 0 0 40 40"
	 xml:space="preserve">
<defs>
</defs>
<path fill-rule="evenodd" clip-rule="evenodd" d="M25,27h-2v2h2V27z M25,23h-2v2h2V23z M21,15h-2v2h2V15z M25,19h-2v2h2V19z M29,19
	h-2v2h2V19z M25,15h-2v2h2V15z M29,15h-2v2h2V15z M15,8h-2v3h2V8z M29,23h-2v2h2V23z M21,19h-2v2h2V19z M21,27h-2v2h2V27z M13,19h-2
	v2h2V19z M13,27h-2v2h2V27z M13,23h-2v2h2V23z M28,8v4h-4V8h-8v4h-4V8H8v24h24V8H28z M30,30H10V14h20V30z M17,23h-2v2h2V23z M17,15
	h-2v2h2V15z M17,19h-2v2h2V19z M17,27h-2v2h2V27z M21,23h-2v2h2V23z M27,8h-2v3h2V8z"/>
</svg>