<?xml version="1.0" encoding="utf-8"?>
<!-- Generator: Adobe Illustrator 15.1.0, SVG Export Plug-In  -->
<!DOCTYPE svg PUBLIC "-//W3C//DTD SVG 1.1//EN" "http://www.w3.org/Graphics/SVG/1.1/DTD/svg11.dtd" [
	<!ENTITY ns_flows "http://ns.adobe.com/Flows/1.0/">
]>
<svg version="1.1"
	 xmlns="http://www.w3.org/2000/svg" xmlns:xlink="http://www.w3.org/1999/xlink" xmlns:a="http://ns.adobe.com/AdobeSVGViewerExtensions/3.0/"
	 x="0px" y="0px" width="40px" height="40px" viewBox="0 0 40 40" overflow="visible" enable-background="new 0 0 40 40"
	 xml:space="preserve">
<defs>
</defs>
<path fill-rule="evenodd" clip-rule="evenodd" d="M20,8C13.373,8,8,13.373,8,20c0,6.628,5.373,12,12,12s12-5.372,12-12
	C32,13.373,26.627,8,20,8z M20,10c1.657,0,3,1.343,3,3s-1.343,3-3,3s-3-1.343-3-3S18.343,10,20,10z M10.5,18c0-1.657,1.343-3,3-3
	s3,1.343,3,3s-1.343,3-3,3S10.5,19.657,10.5,18z M16,28.5c-1.657,0-3-1.343-3-3s1.343-3,3-3s3,1.343,3,3S17.657,28.5,16,28.5z
	 M18,20c0-1.104,0.896-2,2-2s2,0.896,2,2s-0.896,2-2,2S18,21.104,18,20z M24,28.5c-1.657,0-3-1.343-3-3s1.343-3,3-3s3,1.343,3,3
	S25.657,28.5,24,28.5z M26.5,21c-1.657,0-3-1.343-3-3s1.343-3,3-3s3,1.343,3,3S28.157,21,26.5,21z"/>
</svg>