<?xml version="1.0" encoding="utf-8"?>
<!-- Generator: Adobe Illustrator 15.1.0, SVG Export Plug-In  -->
<!DOCTYPE svg PUBLIC "-//W3C//DTD SVG 1.1//EN" "http://www.w3.org/Graphics/SVG/1.1/DTD/svg11.dtd" [
	<!ENTITY ns_flows "http://ns.adobe.com/Flows/1.0/">
]>
<svg version="1.1"
	 xmlns="http://www.w3.org/2000/svg" xmlns:xlink="http://www.w3.org/1999/xlink" xmlns:a="http://ns.adobe.com/AdobeSVGViewerExtensions/3.0/"
	 x="0px" y="0px" width="40px" height="40px" viewBox="0 0 40 40" overflow="visible" enable-background="new 0 0 40 40"
	 xml:space="preserve">
<defs>
</defs>
<path fill-rule="evenodd" clip-rule="evenodd" d="M32,19c0-1-1-2-2-2h-8c0.5-2,1-4,1-5c0-2-1-4-1.5-4.5C21.489,7.489,21,7,20,7
	c-1.5,0-1.5,1.5-1.5,1.5C18.5,8.528,18,11,18,12s-2,5-3,6l-1,0.5v14l1,0.5h11c2,0,3-1,3-2s-1-2-2-2c2,0,3-1,3-2s-1-2-2-2
	c2,0,3-1,3-2s-1-2-2-2C31,21,32,20,32,19z M4.139,18C4.056,18.656,4,19.321,4,20c0,5.96,3.266,11.148,8.099,13.901L13,32V19l-1-1
	H4.139z"/>
</svg>