<?xml version="1.0" encoding="utf-8"?>
<!-- Generator: Adobe Illustrator 15.1.0, SVG Export Plug-In  -->
<!DOCTYPE svg PUBLIC "-//W3C//DTD SVG 1.1//EN" "http://www.w3.org/Graphics/SVG/1.1/DTD/svg11.dtd" [
	<!ENTITY ns_flows "http://ns.adobe.com/Flows/1.0/">
]>
<svg version="1.1"
	 xmlns="http://www.w3.org/2000/svg" xmlns:xlink="http://www.w3.org/1999/xlink" xmlns:a="http://ns.adobe.com/AdobeSVGViewerExtensions/3.0/"
	 x="0px" y="0px" width="40px" height="40px" viewBox="0 0 40 40" overflow="visible" enable-background="new 0 0 40 40"
	 xml:space="preserve">
<defs>
</defs>
<path fill-rule="evenodd" clip-rule="evenodd" d="M19.263,26.602L19.263,26.602C19.418,26.842,19.69,27,20,27
	c0.311,0,0.583-0.159,0.738-0.398l5.165-7.978C26.598,17.552,27,16.368,27,15c0-3.958-3.111-7-7-7s-7,3.042-7,7
	c0,1.368,0.402,2.552,1.098,3.624L19.263,26.602z M20,11c2.209,0,4,1.791,4,4s-1.791,4-4,4s-4-1.791-4-4S17.791,11,20,11z
	 M25.127,23.164L20,30l-5.127-6.836C13.118,24.081,12,25.458,12,27c0,2.762,3.582,5,8,5s8-2.238,8-5
	C28,25.458,26.882,24.081,25.127,23.164z"/>
</svg>