<?xml version="1.0" encoding="utf-8"?>
<!-- Generator: Adobe Illustrator 15.1.0, SVG Export Plug-In  -->
<!DOCTYPE svg PUBLIC "-//W3C//DTD SVG 1.1//EN" "http://www.w3.org/Graphics/SVG/1.1/DTD/svg11.dtd" [
	<!ENTITY ns_flows "http://ns.adobe.com/Flows/1.0/">
]>
<svg version="1.1"
	 xmlns="http://www.w3.org/2000/svg" xmlns:xlink="http://www.w3.org/1999/xlink" xmlns:a="http://ns.adobe.com/AdobeSVGViewerExtensions/3.0/"
	 x="0px" y="0px" width="40px" height="40px" viewBox="0 0 40 40" overflow="visible" enable-background="new 0 0 40 40"
	 xml:space="preserve">
<defs>
</defs>
<path fill-rule="evenodd" clip-rule="evenodd" d="M30,9H10c-1.104,0-2,0.896-2,2v2c0,1.104,0.896,2,2,2h20c1.104,0,2-0.896,2-2v-2
	C32,9.896,31.104,9,30,9z M12,13h-2v-2h2V13z M26,13h-1v-2h1V13z M28,13h-1v-2h1V13z M30,13h-1v-2h1V13z M30,17H10
	c-1.104,0-2,0.896-2,2v2c0,1.104,0.896,2,2,2h20c1.104,0,2-0.896,2-2v-2C32,17.896,31.104,17,30,17z M12,21h-2v-2h2V21z M26,21h-1
	v-2h1V21z M28,21h-1v-2h1V21z M30,21h-1v-2h1V21z M30,25H10c-1.104,0-2,0.896-2,2v2c0,1.104,0.896,2,2,2h20c1.104,0,2-0.896,2-2v-2
	C32,25.896,31.104,25,30,25z M12,29h-2v-2h2V29z M26,29h-1v-2h1V29z M28,29h-1v-2h1V29z M30,29h-1v-2h1V29z"/>
</svg>