<?xml version="1.0" encoding="utf-8"?>
<!-- Generator: Adobe Illustrator 15.1.0, SVG Export Plug-In  -->
<!DOCTYPE svg PUBLIC "-//W3C//DTD SVG 1.1//EN" "http://www.w3.org/Graphics/SVG/1.1/DTD/svg11.dtd" [
	<!ENTITY ns_flows "http://ns.adobe.com/Flows/1.0/">
]>
<svg version="1.1"
	 xmlns="http://www.w3.org/2000/svg" xmlns:xlink="http://www.w3.org/1999/xlink" xmlns:a="http://ns.adobe.com/AdobeSVGViewerExtensions/3.0/"
	 x="0px" y="0px" width="40px" height="40px" viewBox="0 0 40 40" overflow="visible" enable-background="new 0 0 40 40"
	 xml:space="preserve">
<defs>
</defs>
<path fill-rule="evenodd" clip-rule="evenodd" d="M12.5,25.5L8,30l2,2l4.5-4.5L18,31v-9H9L12.5,25.5z M31,22h-9v9l3.5-3.5L30,32l2-2
	l-4.5-4.5L31,22z M10,8l-2,2l4.5,4.5L9,18h9V9l-3.5,3.5L10,8z M27.5,14.5L32,10l-2-2l-4.5,4.5L22,9v9h9L27.5,14.5z"/>
</svg>