<?xml version="1.0" encoding="utf-8"?>
<!-- Generator: Adobe Illustrator 15.1.0, SVG Export Plug-In  -->
<!DOCTYPE svg PUBLIC "-//W3C//DTD SVG 1.1//EN" "http://www.w3.org/Graphics/SVG/1.1/DTD/svg11.dtd" [
	<!ENTITY ns_flows "http://ns.adobe.com/Flows/1.0/">
]>
<svg version="1.1"
	 xmlns="http://www.w3.org/2000/svg" xmlns:xlink="http://www.w3.org/1999/xlink" xmlns:a="http://ns.adobe.com/AdobeSVGViewerExtensions/3.0/"
	 x="0px" y="0px" width="40px" height="40px" viewBox="0 0 40 40" overflow="visible" enable-background="new 0 0 40 40"
	 xml:space="preserve">
<defs>
</defs>
<path fill-rule="evenodd" clip-rule="evenodd" d="M30,9c-1,0-2,0-2.5,0.5l-4,4.5H8l-1,1.5L18,19l-3,4h-4.5L9,24.5l3,1V27
	c0.034,0.537,0.5,1,1,1h1.5l1,3l1.5-1.5V25l4-3l3.5,11l1.5-1V16.5l4.5-4C31,12,31,11,31,10C31,9.5,30.5,9,30,9z"/>
</svg>