<?xml version="1.0" encoding="utf-8"?>
<!-- Generator: Adobe Illustrator 15.1.0, SVG Export Plug-In  -->
<!DOCTYPE svg PUBLIC "-//W3C//DTD SVG 1.1//EN" "http://www.w3.org/Graphics/SVG/1.1/DTD/svg11.dtd" [
	<!ENTITY ns_flows "http://ns.adobe.com/Flows/1.0/">
]>
<svg version="1.1"
	 xmlns="http://www.w3.org/2000/svg" xmlns:xlink="http://www.w3.org/1999/xlink" xmlns:a="http://ns.adobe.com/AdobeSVGViewerExtensions/3.0/"
	 x="0px" y="0px" width="40px" height="40px" viewBox="0 0 40 40" overflow="visible" enable-background="new 0 0 40 40"
	 xml:space="preserve">
<defs>
</defs>
<path fill-rule="evenodd" clip-rule="evenodd" d="M29,9H11c-1.657,0-3,1.343-3,3v12c0,1.657,1.343,3,3,3h6l-2,6l9-6h5
	c1.657,0,3-1.343,3-3V12C32,10.343,30.657,9,29,9z M14,20c-1.104,0-2-0.896-2-2s0.896-2,2-2s2,0.896,2,2S15.104,20,14,20z M20,20
	c-1.104,0-2-0.896-2-2s0.896-2,2-2s2,0.896,2,2S21.104,20,20,20z M26,20c-1.104,0-2-0.896-2-2s0.896-2,2-2s2,0.896,2,2
	S27.104,20,26,20z"/>
</svg>