<?xml version="1.0" encoding="utf-8"?>
<!-- Generator: Adobe Illustrator 15.1.0, SVG Export Plug-In  -->
<!DOCTYPE svg PUBLIC "-//W3C//DTD SVG 1.1//EN" "http://www.w3.org/Graphics/SVG/1.1/DTD/svg11.dtd" [
	<!ENTITY ns_flows "http://ns.adobe.com/Flows/1.0/">
]>
<svg version="1.1"
	 xmlns="http://www.w3.org/2000/svg" xmlns:xlink="http://www.w3.org/1999/xlink" xmlns:a="http://ns.adobe.com/AdobeSVGViewerExtensions/3.0/"
	 x="0px" y="0px" width="40px" height="40px" viewBox="0 0 40 40" overflow="visible" enable-background="new 0 0 40 40"
	 xml:space="preserve">
<defs>
</defs>
<path fill-rule="evenodd" clip-rule="evenodd" d="M12,9h-2v2h2V9z M10,31h2V19h-2V31z M26,23v4h6v-4H26z M31,26h-4v-2h4V26z M30,9
	h-2v12h2V9z M21,9h-2v7h2V9z M19,31h2v-7h-2V31z M17,22h6v-4h-6V22z M18,19h4v2h-4V19z M8,17h6v-4H8V17z M9,14h4v2H9V14z M28,31h2
	v-2h-2V31z"/>
</svg>