<?xml version="1.0" encoding="utf-8"?>
<!-- Generator: Adobe Illustrator 15.1.0, SVG Export Plug-In  -->
<!DOCTYPE svg PUBLIC "-//W3C//DTD SVG 1.1//EN" "http://www.w3.org/Graphics/SVG/1.1/DTD/svg11.dtd" [
	<!ENTITY ns_flows "http://ns.adobe.com/Flows/1.0/">
]>
<svg version="1.1"
	 xmlns="http://www.w3.org/2000/svg" xmlns:xlink="http://www.w3.org/1999/xlink" xmlns:a="http://ns.adobe.com/AdobeSVGViewerExtensions/3.0/"
	 x="0px" y="0px" width="40px" height="40px" viewBox="0 0 40 40" overflow="visible" enable-background="new 0 0 40 40"
	 xml:space="preserve">
<defs>
</defs>
<path fill-rule="evenodd" clip-rule="evenodd" d="M20,17c-1.657,0-3,1.343-3,3s1.343,3,3,3s3-1.343,3-3S21.657,17,20,17z M20,15
	c1.104,0,2-0.896,2-2v-3c0-1.104-0.896-2-2-2s-2,0.896-2,2v3C18,14.104,18.896,15,20,15z M20,25c-1.104,0-2,0.896-2,2v3
	c0,1.104,0.896,2,2,2s2-0.896,2-2v-3C22,25.896,21.104,25,20,25z M30,18h-3c-1.104,0-2,0.896-2,2s0.896,2,2,2h3c1.104,0,2-0.896,2-2
	S31.104,18,30,18z M15,20c0-1.104-0.896-2-2-2h-3c-1.104,0-2,0.896-2,2s0.896,2,2,2h3C14.104,22,15,21.104,15,20z M26.364,23.535
	c-0.781-0.78-2.048-0.78-2.829,0c-0.78,0.781-0.78,2.048,0,2.829l2.122,2.121c0.78,0.781,2.047,0.781,2.828,0s0.781-2.048,0-2.828
	L26.364,23.535z M13.636,16.465c0.781,0.78,2.048,0.78,2.829,0c0.78-0.781,0.78-2.048,0-2.829l-2.122-2.121
	c-0.78-0.781-2.047-0.781-2.828,0s-0.781,2.048,0,2.828L13.636,16.465z M26.364,16.465l2.121-2.122c0.781-0.78,0.781-2.047,0-2.828
	s-2.048-0.781-2.828,0l-2.122,2.121c-0.78,0.781-0.78,2.048,0,2.829C24.316,17.245,25.583,17.245,26.364,16.465z M13.636,23.535
	l-2.121,2.122c-0.781,0.78-0.781,2.047,0,2.828s2.048,0.781,2.828,0l2.122-2.121c0.78-0.781,0.78-2.048,0-2.829
	C15.684,22.755,14.417,22.755,13.636,23.535z"/>
</svg>