<?xml version="1.0" encoding="utf-8"?>
<!-- Generator: Adobe Illustrator 15.1.0, SVG Export Plug-In  -->
<!DOCTYPE svg PUBLIC "-//W3C//DTD SVG 1.1//EN" "http://www.w3.org/Graphics/SVG/1.1/DTD/svg11.dtd" [
	<!ENTITY ns_flows "http://ns.adobe.com/Flows/1.0/">
]>
<svg version="1.1"
	 xmlns="http://www.w3.org/2000/svg" xmlns:xlink="http://www.w3.org/1999/xlink" xmlns:a="http://ns.adobe.com/AdobeSVGViewerExtensions/3.0/"
	 x="0px" y="0px" width="40px" height="40px" viewBox="0 0 40 40" overflow="visible" enable-background="new 0 0 40 40"
	 xml:space="preserve">
<defs>
</defs>
<path fill-rule="evenodd" clip-rule="evenodd" d="M10,30c0,1.104,0.896,2,2,2h16c1.104,0,2-0.896,2-2V17H10V30z M25,20h2v9h-2V20z
	 M19,20h2v9h-2V20z M13,20h2v9h-2V20z M31,12h-6v-2c0-1.104-0.896-2-2-2h-6c-1.104,0-2,0.896-2,2v2H9c-0.553,0-1,0.447-1,1v1
	c0,0.553,0.447,1,1,1h22c0.553,0,1-0.447,1-1v-1C32,12.447,31.553,12,31,12z M23,12h-6v-2h6V12z"/>
</svg>