<?xml version="1.0" encoding="utf-8"?>
<!-- Generator: Adobe Illustrator 15.1.0, SVG Export Plug-In  -->
<!DOCTYPE svg PUBLIC "-//W3C//DTD SVG 1.1//EN" "http://www.w3.org/Graphics/SVG/1.1/DTD/svg11.dtd" [
	<!ENTITY ns_flows "http://ns.adobe.com/Flows/1.0/">
]>
<svg version="1.1"
	 xmlns="http://www.w3.org/2000/svg" xmlns:xlink="http://www.w3.org/1999/xlink" xmlns:a="http://ns.adobe.com/AdobeSVGViewerExtensions/3.0/"
	 x="0px" y="0px" width="40px" height="40px" viewBox="0 0 40 40" overflow="visible" enable-background="new 0 0 40 40"
	 xml:space="preserve">
<defs>
</defs>
<path fill-rule="evenodd" clip-rule="evenodd" d="M20,8C13.373,8,8,13.373,8,20c0,6.628,5.373,12,12,12c6.628,0,12-5.372,12-12
	C32,13.373,26.628,8,20,8z M20,28c-4.418,0-8-3.582-8-8s3.582-8,8-8s8,3.582,8,8S24.418,28,20,28z M20,16c-2.209,0-4,1.791-4,4
	s1.791,4,4,4s4-1.791,4-4S22.209,16,20,16z"/>
</svg>