<?xml version="1.0" encoding="utf-8"?>
<!-- Generator: Adobe Illustrator 15.1.0, SVG Export Plug-In  -->
<!DOCTYPE svg PUBLIC "-//W3C//DTD SVG 1.1//EN" "http://www.w3.org/Graphics/SVG/1.1/DTD/svg11.dtd" [
	<!ENTITY ns_flows "http://ns.adobe.com/Flows/1.0/">
]>
<svg version="1.1"
	 xmlns="http://www.w3.org/2000/svg" xmlns:xlink="http://www.w3.org/1999/xlink" xmlns:a="http://ns.adobe.com/AdobeSVGViewerExtensions/3.0/"
	 x="0px" y="0px" width="40px" height="40px" viewBox="0 0 40 40" overflow="visible" enable-background="new 0 0 40 40"
	 xml:space="preserve">
<defs>
</defs>
<path fill-rule="evenodd" clip-rule="evenodd" d="M30,12H10c-1.104,0-2,0.896-2,2v1h24v-1C32,12.896,31.104,12,30,12z M18,10h4v1h2
	v-1c0-1.104-0.896-2-2-2h-4c-1.104,0-2,0.896-2,2v1h2V10z M8,25h24v-8H8V25z M8,28c0,1.104,0.896,2,2,2h20c1.104,0,2-0.896,2-2v-1H8
	V28z"/>
</svg>