<?xml version="1.0" encoding="utf-8"?>
<!-- Generator: Adobe Illustrator 15.1.0, SVG Export Plug-In  -->
<!DOCTYPE svg PUBLIC "-//W3C//DTD SVG 1.1//EN" "http://www.w3.org/Graphics/SVG/1.1/DTD/svg11.dtd" [
	<!ENTITY ns_flows "http://ns.adobe.com/Flows/1.0/">
]>
<svg version="1.1"
	 xmlns="http://www.w3.org/2000/svg" xmlns:xlink="http://www.w3.org/1999/xlink" xmlns:a="http://ns.adobe.com/AdobeSVGViewerExtensions/3.0/"
	 x="0px" y="0px" width="40px" height="40px" viewBox="0 0 40 40" overflow="visible" enable-background="new 0 0 40 40"
	 xml:space="preserve">
<defs>
</defs>
<path fill-rule="evenodd" clip-rule="evenodd" d="M17,21l-4.5,4.5L9,22v9h9l-3.5-3.5L19,23L17,21z M18,9H9v9l3.5-3.5L17,19l2-2
	l-4.5-4.5L18,9z M22,9l3.5,3.5L21,17l2,2l4.5-4.5L31,18V9H22z M23,21l-2,2l4.5,4.5L22,31h9v-9l-3.5,3.5L23,21z"/>
</svg>