<?xml version="1.0" encoding="utf-8"?>
<!-- Generator: Adobe Illustrator 15.1.0, SVG Export Plug-In  -->
<!DOCTYPE svg PUBLIC "-//W3C//DTD SVG 1.1//EN" "http://www.w3.org/Graphics/SVG/1.1/DTD/svg11.dtd" [
	<!ENTITY ns_flows "http://ns.adobe.com/Flows/1.0/">
]>
<svg version="1.1"
	 xmlns="http://www.w3.org/2000/svg" xmlns:xlink="http://www.w3.org/1999/xlink" xmlns:a="http://ns.adobe.com/AdobeSVGViewerExtensions/3.0/"
	 x="0px" y="0px" width="40px" height="40px" viewBox="0 0 40 40" overflow="visible" enable-background="new 0 0 40 40"
	 xml:space="preserve">
<defs>
</defs>
<path fill-rule="evenodd" clip-rule="evenodd" d="M18.902,24.098c-0.487-0.844-0.9-1.708-1.274-2.582
	c-1.646,2.812-2.705,5.929-3.116,9.146c3.149,1.617,6.949,1.805,10.349,0.294C22.522,29.119,20.479,26.83,18.902,24.098z
	 M20.126,22.812c1.613,2.831,3.782,5.307,6.363,7.272c2.976-1.919,5.037-5.116,5.429-8.815C29.159,22.375,26.154,23,23,23
	C22.025,23,21.07,22.925,20.126,22.812z M17.502,18.703c-3.26-0.019-6.487,0.622-9.479,1.874c0.174,3.537,1.911,6.921,4.92,9.109
	c0.421-2.942,1.383-5.856,2.96-8.589C16.39,20.254,16.932,19.465,17.502,18.703z M19.874,17.188
	c-1.613-2.832-3.782-5.308-6.363-7.272c-2.976,1.918-5.037,5.115-5.429,8.814C10.841,17.625,13.846,17,17,17
	C17.975,17,18.93,17.075,19.874,17.188z M21.098,15.902c0.487,0.844,0.9,1.709,1.274,2.582c1.646-2.812,2.705-5.929,3.117-9.146
	c-3.15-1.617-6.949-1.805-10.349-0.294C17.478,10.881,19.521,13.17,21.098,15.902z M22.498,21.297
	c3.26,0.019,6.487-0.622,9.479-1.874c-0.174-3.537-1.911-6.921-4.919-9.109c-0.422,2.942-1.383,5.856-2.961,8.589
	C23.611,19.746,23.068,20.536,22.498,21.297z"/>
</svg>