<?xml version="1.0" encoding="utf-8"?>
<!-- Generator: Adobe Illustrator 15.1.0, SVG Export Plug-In  -->
<!DOCTYPE svg PUBLIC "-//W3C//DTD SVG 1.1//EN" "http://www.w3.org/Graphics/SVG/1.1/DTD/svg11.dtd" [
	<!ENTITY ns_flows "http://ns.adobe.com/Flows/1.0/">
]>
<svg version="1.1"
	 xmlns="http://www.w3.org/2000/svg" xmlns:xlink="http://www.w3.org/1999/xlink" xmlns:a="http://ns.adobe.com/AdobeSVGViewerExtensions/3.0/"
	 x="0px" y="0px" width="40px" height="40px" viewBox="0 0 40 40" overflow="visible" enable-background="new 0 0 40 40"
	 xml:space="preserve">
<defs>
</defs>
<path fill-rule="evenodd" clip-rule="evenodd" d="M20,21c2.209,0,4-1.791,4-4s-1.791-4-4-4s-4,1.791-4,4S17.791,21,20,21z M19,15
	c0.552,0,1,0.447,1,1s-0.448,1-1,1s-1-0.447-1-1S18.448,15,19,15z M20,28c-2.762,0-5.28-1.025-7.211-2.707L11,32h18l-1.789-6.707
	C25.28,26.975,22.762,28,20,28z M20,26c4.971,0,9-4.029,9-9s-4.029-9-9-9s-9,4.029-9,9S15.029,26,20,26z M20,11c3.313,0,6,2.687,6,6
	s-2.687,6-6,6s-6-2.687-6-6S16.687,11,20,11z"/>
</svg>