<?xml version="1.0" encoding="utf-8"?>
<!-- Generator: Adobe Illustrator 15.1.0, SVG Export Plug-In  -->
<!DOCTYPE svg PUBLIC "-//W3C//DTD SVG 1.1//EN" "http://www.w3.org/Graphics/SVG/1.1/DTD/svg11.dtd" [
	<!ENTITY ns_flows "http://ns.adobe.com/Flows/1.0/">
]>
<svg version="1.1"
	 xmlns="http://www.w3.org/2000/svg" xmlns:xlink="http://www.w3.org/1999/xlink" xmlns:a="http://ns.adobe.com/AdobeSVGViewerExtensions/3.0/"
	 x="0px" y="0px" width="40px" height="40px" viewBox="0 0 40 40" overflow="visible" enable-background="new 0 0 40 40"
	 xml:space="preserve">
<defs>
</defs>
<path fill-rule="evenodd" clip-rule="evenodd" d="M17,24c0,0.44,0.1,0.854,0.27,1.23l3.961-3.96C20.854,21.1,20.439,21,20,21
	C18.343,21,17,22.343,17,24z M20,27c1.657,0,3-1.343,3-3c0-0.439-0.1-0.854-0.27-1.23l-3.961,3.96C19.146,26.9,19.561,27,20,27z
	 M23,8v6h6L23,8z M22,8H11v24h18V15h-7V8z M25,24c0,2.762-2.238,5-5,5s-5-2.238-5-5c0-2.761,2.238-5,5-5S25,21.239,25,24z"/>
</svg>