<?xml version="1.0" encoding="utf-8"?>
<!-- Generator: Adobe Illustrator 15.1.0, SVG Export Plug-In  -->
<!DOCTYPE svg PUBLIC "-//W3C//DTD SVG 1.1//EN" "http://www.w3.org/Graphics/SVG/1.1/DTD/svg11.dtd" [
	<!ENTITY ns_flows "http://ns.adobe.com/Flows/1.0/">
]>
<svg version="1.1"
	 xmlns="http://www.w3.org/2000/svg" xmlns:xlink="http://www.w3.org/1999/xlink" xmlns:a="http://ns.adobe.com/AdobeSVGViewerExtensions/3.0/"
	 x="0px" y="0px" width="40px" height="40px" viewBox="0 0 40 40" overflow="visible" enable-background="new 0 0 40 40"
	 xml:space="preserve">
<defs>
</defs>
<path fill-rule="evenodd" clip-rule="evenodd" d="M27,24c-1.365,0-2.567,0.686-3.289,1.729l-8.864-4.692
	C14.937,20.704,15,20.361,15,20s-0.063-0.704-0.153-1.037l8.864-4.692C24.433,15.313,25.635,16,27,16c2.209,0,4-1.791,4-4
	s-1.791-4-4-4c-2.209,0-4,1.791-4,4c0,0.038,0.01,0.074,0.011,0.111l-9.329,4.939C12.972,16.404,12.036,16,11,16
	c-2.209,0-4,1.791-4,4s1.791,4,4,4c1.036,0,1.971-0.404,2.682-1.051l9.329,4.939C23.01,27.927,23,27.962,23,28c0,2.209,1.791,4,4,4
	c2.209,0,4-1.791,4-4S29.209,24,27,24z M27,10c1.104,0,2,0.896,2,2s-0.896,2-2,2s-2-0.896-2-2S25.896,10,27,10z M11,22
	c-1.104,0-2-0.896-2-2s0.896-2,2-2s2,0.896,2,2S12.104,22,11,22z M27,30c-1.104,0-2-0.896-2-2s0.896-2,2-2s2,0.896,2,2
	S28.104,30,27,30z"/>
</svg>