<?xml version="1.0" encoding="utf-8"?>
<!-- Generator: Adobe Illustrator 15.1.0, SVG Export Plug-In  -->
<!DOCTYPE svg PUBLIC "-//W3C//DTD SVG 1.1//EN" "http://www.w3.org/Graphics/SVG/1.1/DTD/svg11.dtd" [
	<!ENTITY ns_flows "http://ns.adobe.com/Flows/1.0/">
]>
<svg version="1.1"
	 xmlns="http://www.w3.org/2000/svg" xmlns:xlink="http://www.w3.org/1999/xlink" xmlns:a="http://ns.adobe.com/AdobeSVGViewerExtensions/3.0/"
	 x="0px" y="0px" width="40px" height="40px" viewBox="0 0 40 40" overflow="visible" enable-background="new 0 0 40 40"
	 xml:space="preserve">
<defs>
</defs>
<path d="M20,8C13.373,8,8,13.373,8,20c0,6.628,5.373,12,12,12c6.628,0,12-5.372,12-12C32,13.373,26.628,8,20,8z M27,20.165
	C26.466,23.368,25.86,27,23.014,27s-3.452-3.632-3.986-6.835C18.644,17.863,18.167,15,17.014,15c-1.152,0-1.63,2.864-2.014,5.165
	c-0.426,2.554-0.9,5.374-2.517,6.415c-0.45-0.514-0.851-1.07-1.188-1.669c0.948-0.434,1.383-2.976,1.732-5.075
	C13.562,16.632,14.167,13,17.014,13s3.452,3.632,3.986,6.836C21.384,22.137,21.861,25,23.014,25c1.153,0,1.63-2.863,2.014-5.164
	c0.424-2.546,0.898-5.354,2.501-6.404c0.447,0.513,0.845,1.068,1.182,1.665C27.776,15.559,27.348,18.081,27,20.165z"/>
</svg>