<?xml version="1.0" encoding="utf-8"?>
<!-- Generator: Adobe Illustrator 15.1.0, SVG Export Plug-In  -->
<!DOCTYPE svg PUBLIC "-//W3C//DTD SVG 1.1//EN" "http://www.w3.org/Graphics/SVG/1.1/DTD/svg11.dtd" [
	<!ENTITY ns_flows "http://ns.adobe.com/Flows/1.0/">
]>
<svg version="1.1"
	 xmlns="http://www.w3.org/2000/svg" xmlns:xlink="http://www.w3.org/1999/xlink" xmlns:a="http://ns.adobe.com/AdobeSVGViewerExtensions/3.0/"
	 x="0px" y="0px" width="40px" height="40px" viewBox="0 0 40 40" overflow="visible" enable-background="new 0 0 40 40"
	 xml:space="preserve">
<defs>
</defs>
<path fill-rule="evenodd" clip-rule="evenodd" d="M17,23h6v-2h-6V23z M17,27h6v-2h-6V27z M17,19h6v-2h-6V19z M17,31h6v-2h-6V31z
	 M25,23h6v-2h-6V23z M25,31h6v-2h-6V31z M25,19h6v-2h-6V19z M25,13v2h6v-2H25z M25,27h6v-2h-6V27z M9,23h6v-2H9V23z M9,27h6v-2H9V27
	z M9,19h6v-2H9V19z M9,15h6v-2H9V15z M9,11h6V9H9V11z M9,31h6v-2H9V31z"/>
</svg>