<?xml version="1.0" encoding="utf-8"?>
<!-- Generator: Adobe Illustrator 15.1.0, SVG Export Plug-In  -->
<!DOCTYPE svg PUBLIC "-//W3C//DTD SVG 1.1//EN" "http://www.w3.org/Graphics/SVG/1.1/DTD/svg11.dtd" [
	<!ENTITY ns_flows "http://ns.adobe.com/Flows/1.0/">
]>
<svg version="1.1"
	 xmlns="http://www.w3.org/2000/svg" xmlns:xlink="http://www.w3.org/1999/xlink" xmlns:a="http://ns.adobe.com/AdobeSVGViewerExtensions/3.0/"
	 x="0px" y="0px" width="40px" height="40px" viewBox="0 0 40 40" overflow="visible" enable-background="new 0 0 40 40"
	 xml:space="preserve">
<defs>
</defs>
<path fill-rule="evenodd" clip-rule="evenodd" d="M8.004,8.004v23.992h23.992V8.004H8.004z M11,31H9v-2h2V31z M11,27H9v-2h2V27z
	 M11,23H9v-2h2V23z M11,19H9v-2h2V19z M11,15H9v-2h2V15z M11,11H9V9h2V11z M28,30H12v-9h16V30z M28,19H12v-9h16V19z M31,31h-2v-2h2
	V31z M31,27h-2v-2h2V27z M31,23h-2v-2h2V23z M31,19h-2v-2h2V19z M31,15h-2v-2h2V15z M31,11h-2V9h2V11z"/>
</svg>