<?xml version="1.0" encoding="utf-8"?>
<!-- Generator: Adobe Illustrator 15.1.0, SVG Export Plug-In  -->
<!DOCTYPE svg PUBLIC "-//W3C//DTD SVG 1.1//EN" "http://www.w3.org/Graphics/SVG/1.1/DTD/svg11.dtd" [
	<!ENTITY ns_flows "http://ns.adobe.com/Flows/1.0/">
]>
<svg version="1.1"
	 xmlns="http://www.w3.org/2000/svg" xmlns:xlink="http://www.w3.org/1999/xlink" xmlns:a="http://ns.adobe.com/AdobeSVGViewerExtensions/3.0/"
	 x="0px" y="0px" width="40px" height="40px" viewBox="0 0 40 40" overflow="visible" enable-background="new 0 0 40 40"
	 xml:space="preserve">
<defs>
</defs>
<path fill-rule="evenodd" clip-rule="evenodd" d="M30.159,12.225l-8.164,4.8V13.56c0-1.329-0.826-1.93-1.836-1.335L13,16.435V14
	c0-1.104-0.896-2-2-2h-1c-1.104,0-2,0.896-2,2v12c0,1.104,0.896,2,2,2h1c1.104,0,2-0.896,2-2v-2.435l7.159,4.21
	c1.01,0.594,1.836-0.007,1.836-1.335v-3.466l8.164,4.801c1.01,0.594,1.836-0.007,1.836-1.335V13.56
	C31.995,12.231,31.169,11.63,30.159,12.225z"/>
</svg>