<?xml version="1.0" encoding="utf-8"?>
<!-- Generator: Adobe Illustrator 15.1.0, SVG Export Plug-In  -->
<!DOCTYPE svg PUBLIC "-//W3C//DTD SVG 1.1//EN" "http://www.w3.org/Graphics/SVG/1.1/DTD/svg11.dtd" [
	<!ENTITY ns_flows "http://ns.adobe.com/Flows/1.0/">
]>
<svg version="1.1"
	 xmlns="http://www.w3.org/2000/svg" xmlns:xlink="http://www.w3.org/1999/xlink" xmlns:a="http://ns.adobe.com/AdobeSVGViewerExtensions/3.0/"
	 x="0px" y="0px" width="40px" height="40px" viewBox="0 0 40 40" overflow="visible" enable-background="new 0 0 40 40"
	 xml:space="preserve">
<defs>
</defs>
<path fill-rule="evenodd" clip-rule="evenodd" d="M13,30h14V12H13V30z M8,14v14c0,1.104,0.896,2,2,2h1V12h-1C8.896,12,8,12.896,8,14
	z M30,12h-1v18h1c1.104,0,2-0.896,2-2V14C32,12.896,31.104,12,30,12z M18,10h4v1h2v-1c0-1.104-0.896-2-2-2h-4c-1.104,0-2,0.896-2,2
	v1h2V10z"/>
</svg>