<?xml version="1.0" encoding="utf-8"?>
<!-- Generator: Adobe Illustrator 15.1.0, SVG Export Plug-In  -->
<!DOCTYPE svg PUBLIC "-//W3C//DTD SVG 1.1//EN" "http://www.w3.org/Graphics/SVG/1.1/DTD/svg11.dtd" [
	<!ENTITY ns_flows "http://ns.adobe.com/Flows/1.0/">
]>
<svg version="1.1"
	 xmlns="http://www.w3.org/2000/svg" xmlns:xlink="http://www.w3.org/1999/xlink" xmlns:a="http://ns.adobe.com/AdobeSVGViewerExtensions/3.0/"
	 x="0px" y="0px" width="40px" height="40px" viewBox="0 0 40 40" overflow="visible" enable-background="new 0 0 40 40"
	 xml:space="preserve">
<defs>
</defs>
<path fill-rule="evenodd" clip-rule="evenodd" d="M20,25.701c0.986-0.017,0.904-0.442,1.96-0.426
	c1.618,0.027,2.021-0.639,2.04-1.691c0.023-1.242-1.482-2.053-1.637-2.419c-0.152-0.366-1.175-5.657-1.175-5.657
	S21.042,15.104,20,15.104c-1.041,0-1.188,0.404-1.188,0.404s-1.022,5.291-1.176,5.657s-1.66,1.177-1.637,2.419
	c0.02,1.053,0.422,1.719,2.04,1.691C19.096,25.259,19.015,25.685,20,25.701z M31.981,8.931c-1.638-0.328-3.253-0.937-4.923-0.926
	c-0.955,0.007-1.917,0.17-2.866,0.325c-1.063,0.174-2.093,0.562-3.155,0.709C20.693,9.087,20.348,9.104,20,9.104
	s-0.693-0.017-1.036-0.064C17.9,8.893,16.871,8.504,15.809,8.33c-0.95-0.155-1.911-0.318-2.867-0.325
	c-1.67-0.011-3.285,0.598-4.922,0.926c0,0.558-0.098,1.273,0.147,1.665C8.419,11,8.846,11.369,8.955,11.918
	c0.263,1.298,0.635,2.571,1.11,3.792c0.23,0.593,0.667,1.007,1.154,1.292c1.173,0.686,2.562,0.786,3.848,0.57
	c1.833-0.307,2.827-1.907,3.585-3.736c0.284-0.743,0.316-1.602,0.689-2.28c0.14-0.254,0.396-0.281,0.658-0.267
	c0.263-0.015,0.519,0.013,0.658,0.267c0.374,0.679,0.405,1.537,0.689,2.28c0.759,1.829,1.752,3.43,3.585,3.736
	c1.287,0.216,2.675,0.115,3.848-0.57c0.488-0.285,0.924-0.699,1.155-1.292c0.476-1.221,0.848-2.494,1.109-3.792
	c0.109-0.549,0.536-0.918,0.789-1.322C32.078,10.204,31.981,9.488,31.981,8.931z M17.577,14.142
	c-0.911,2.194-2.546,2.655-3.756,2.655c-0.471,0-0.964-0.07-1.466-0.21c-0.895-0.247-1.561-0.983-1.876-2.072
	c-0.422-1.453-0.595-2.62-0.545-3.671c0.064-1.361,1.306-1.636,2.685-1.816c0.643-0.084,1.159-0.125,1.623-0.128h0.004
	c0.624,0,1.117,0.055,1.574,0.168c1.336,0.329,2.094,0.783,2.387,1.431C18.533,11.222,18.352,12.277,17.577,14.142z M29.521,14.515
	c-0.316,1.089-0.982,1.825-1.877,2.072c-0.502,0.14-0.995,0.21-1.466,0.21c-1.21,0-2.844-0.461-3.755-2.655
	c-0.774-1.864-0.957-2.92-0.63-3.644c0.292-0.647,1.05-1.102,2.386-1.431c0.457-0.113,0.95-0.168,1.574-0.168h0.004
	c0.464,0.003,0.98,0.044,1.624,0.128c1.378,0.181,2.62,0.455,2.684,1.816C30.115,11.895,29.942,13.062,29.521,14.515z
	 M25.613,28.438c-3.208-1.783-5.161-0.562-5.613-0.223c-0.453-0.34-2.405-1.561-5.613,0.223c-3.189,1.774-4.787-1.283-4.975-1.736
	c0.296,0.721,3.768,8.346,8.46,3.916c0.743-0.701,1.479-0.894,2.128-0.888c0.648-0.006,1.385,0.187,2.127,0.888
	c4.692,4.43,8.165-3.195,8.461-3.916C30.4,27.154,28.803,30.212,25.613,28.438z"/>
</svg>