<?xml version="1.0" encoding="utf-8"?>
<!-- Generator: Adobe Illustrator 15.1.0, SVG Export Plug-In  -->
<!DOCTYPE svg PUBLIC "-//W3C//DTD SVG 1.1//EN" "http://www.w3.org/Graphics/SVG/1.1/DTD/svg11.dtd" [
	<!ENTITY ns_flows "http://ns.adobe.com/Flows/1.0/">
]>
<svg version="1.1"
	 xmlns="http://www.w3.org/2000/svg" xmlns:xlink="http://www.w3.org/1999/xlink" xmlns:a="http://ns.adobe.com/AdobeSVGViewerExtensions/3.0/"
	 x="0px" y="0px" width="40px" height="40px" viewBox="0 0 40 40" overflow="visible" enable-background="new 0 0 40 40"
	 xml:space="preserve">
<defs>
</defs>
<path fill-rule="evenodd" clip-rule="evenodd" d="M27.487,23.262c-0.343-0.686-0.808-1.309-1.395-1.87
	c-0.586-0.562-1.266-1.074-2.038-1.539c-0.773-0.464-1.595-0.907-2.466-1.328C21.38,18.439,21.196,18.36,21,18.278v-7.055
	c0.149-0.006,0.299-0.02,0.449-0.02c2.23,0,4.133,0.846,5.551,1.796V9c-1.196-0.551-3.243-1-5.857-1C21.094,8,21.049,8.008,21,8.008
	V6h-2v2.175c-0.391,0.058-0.78,0.112-1.176,0.203c-1.104,0.254-2.088,0.643-2.953,1.166c-0.866,0.524-1.563,1.188-2.092,1.992
	s-0.793,1.752-0.793,2.843c0,0.885,0.154,1.657,0.462,2.315c0.308,0.659,0.732,1.25,1.272,1.773c0.54,0.524,1.176,1.002,1.908,1.434
	c0.731,0.432,1.521,0.858,2.37,1.279c0.344,0.146,0.675,0.288,1.001,0.43v7.177c-0.179,0.007-0.342,0.022-0.531,0.022
	c-0.499,0-1.045-0.049-1.638-0.146c-0.593-0.097-1.185-0.234-1.777-0.413c-0.593-0.178-1.153-0.396-1.682-0.655
	c-0.529-0.26-0.984-0.551-1.368-0.875L12,30.8c0.349,0.205,0.812,0.276,1.381,0.438s1.173,0.3,1.812,0.413
	c0.639,0.113,1.263,0.2,1.873,0.259c0.61,0.06,1.373,0.09,1.791,0.09c0.05,0,0.094-0.003,0.143-0.004V34h2v-2.143
	c0.385-0.053,0.771-0.115,1.181-0.198c1.127-0.227,2.123-0.593,2.989-1.101c0.865-0.508,1.554-1.166,2.064-1.977
	c0.512-0.81,0.767-1.803,0.767-2.979C28.001,24.728,27.83,23.948,27.487,23.262z M17.711,16.646
	c-0.447-0.312-0.787-0.658-1.02-1.036s-0.349-0.826-0.349-1.345c0-0.55,0.151-1.02,0.453-1.408c0.303-0.389,0.694-0.708,1.177-0.956
	c0.312-0.161,0.661-0.281,1.027-0.383v5.866C18.512,17.143,18.07,16.897,17.711,16.646z M22.364,27.999
	c-0.367,0.232-0.833,0.404-1.364,0.536v-6.012c0.37,0.191,0.719,0.385,1.024,0.585c0.511,0.335,0.908,0.704,1.193,1.109
	c0.284,0.404,0.427,0.883,0.427,1.433C23.645,26.677,23.218,27.459,22.364,27.999z"/>
</svg>