<?xml version="1.0" encoding="utf-8"?>
<!-- Generator: Adobe Illustrator 15.1.0, SVG Export Plug-In  -->
<!DOCTYPE svg PUBLIC "-//W3C//DTD SVG 1.1//EN" "http://www.w3.org/Graphics/SVG/1.1/DTD/svg11.dtd" [
	<!ENTITY ns_flows "http://ns.adobe.com/Flows/1.0/">
]>
<svg version="1.1"
	 xmlns="http://www.w3.org/2000/svg" xmlns:xlink="http://www.w3.org/1999/xlink" xmlns:a="http://ns.adobe.com/AdobeSVGViewerExtensions/3.0/"
	 x="0px" y="0px" width="40px" height="40px" viewBox="0 0 40 40" overflow="visible" enable-background="new 0 0 40 40"
	 xml:space="preserve">
<defs>
</defs>
<path fill-rule="evenodd" clip-rule="evenodd" d="M15.513,11.441c-0.183,0.114-0.278,0.159-0.319,0.159
	c-0.074,0,0.027-0.145,0.119-0.288c0.091-0.145,0.172-0.287,0.055-0.287c-0.057,0-0.155,0.031-0.318,0.111
	c-0.443,0.292-1.191,1.107-1.521,1.107c-0.011,0-0.021,0-0.03-0.002c0.531-0.389,0.377-1.156,1.12-1.354
	c0.737-0.424,1.241-0.291,1.893-0.77c-0.193,0.099-0.48,0.201-0.543,0.201c-0.043,0,0.019-0.048,0.285-0.177
	c-0.027,0.005-0.047,0.007-0.059,0.007c-0.177,0,1.169-0.482,1.231-0.491c-0.556,0.078-1.446,0.543-1.569,0.543
	c-0.013,0-0.017-0.005-0.013-0.016c0.021-0.017,0.02-0.024,0.002-0.024c-0.064,0-0.341,0.093-0.617,0.185
	c-0.276,0.093-0.553,0.185-0.616,0.185c-0.021,0-0.02-0.01,0.011-0.031c-2.398,1.36-4.394,3.654-5.023,6.376
	c0.256,0.594,0.082,1.726,0.506,2.058c0.487,0.412-0.414,1.604-0.176,2.342c0.244,1.329,1.295,2.239,1.406,3.599
	c0.193,0.937,0.896,2.076,1.194,2.673c0.224,0.223,0.835,0.869,0.946,0.869c0.044,0,0.012-0.098-0.148-0.356
	c-0.1-0.287-0.688-1.044-0.404-1.044c0.016,0,0.032,0.002,0.051,0.006c-0.352-0.354,0.777-0.258-0.008-0.741
	c-0.093-0.112-0.113-0.149-0.089-0.149s0.095,0.039,0.18,0.079c0.086,0.04,0.186,0.079,0.27,0.079c0.126,0,0.216-0.089,0.161-0.403
	c0.021,0.008,0.041,0.012,0.057,0.012c0.13,0,0.086-0.258,0.098-0.516s0.078-0.516,0.43-0.516c0.041,0,0.084,0.004,0.133,0.011
	c0.82-0.445,0.108-1.682,1.053-2.134c-0.036-1.024-1.412-1.075-1.932-1.491c-0.087,0.051-0.17,0.068-0.248,0.068
	c-0.09,0-0.172-0.022-0.244-0.046c-0.072-0.022-0.135-0.046-0.185-0.046c-0.011,0-0.022,0.001-0.032,0.004
	c0.882-0.232,0.24-1.461-0.494-1.461c-0.017,0-0.033,0.001-0.049,0.002c-0.056-0.532-0.332-0.33-0.361-0.771
	c-0.047,0.025-0.094,0.035-0.137,0.035c-0.124,0-0.232-0.084-0.328-0.168s-0.178-0.168-0.247-0.168
	c-0.059,0-0.108,0.057-0.151,0.219c0.052-0.247,0.037-0.33-0.014-0.33c-0.053,0-0.145,0.087-0.244,0.175
	c-0.099,0.088-0.207,0.175-0.293,0.175c-0.009,0-0.018,0-0.025-0.002c-0.592-0.421,0.003-1.168-0.307-1.74
	c0.203-0.219,0.285-0.59,0.191-0.59c-0.047,0-0.138,0.092-0.279,0.34c-0.203-0.52,0.334-1.691,0.79-1.757
	c0.013-0.002,0.026-0.003,0.04-0.003c0.083,0,0.163,0.039,0.234,0.129c0.043,0.236-0.061,0.74-0.021,0.74
	c0.018,0,0.062-0.1,0.162-0.368c0.133-0.604,1.059-1.042,1.151-1.412c0.003,0.003,0.007,0.005,0.012,0.005
	c0.106,0,0.792-0.604,1.094-0.672c0.119-0.119,0.2-0.16,0.26-0.16c0.064,0,0.101,0.05,0.128,0.099s0.046,0.098,0.072,0.098
	c0.021,0,0.048-0.031,0.09-0.118c-0.156-0.311,0.249-0.604,0.135-0.604c-0.043,0-0.16,0.042-0.41,0.141
	c-0.04,0.018-0.062,0.025-0.072,0.025c-0.029,0,0.093-0.08,0.269-0.16s0.404-0.16,0.591-0.16c0.093,0,0.174,0.02,0.234,0.069
	c0.787-0.188,0.353-0.445,0.396-0.445c0.002,0,0.005,0,0.009,0.001C15.249,12.253,15.18,11.754,15.513,11.441z M11.989,13.52
	c-0.011,0,0.038-0.067,0.188-0.255c0.314-0.235,0.57-0.392,0.278-0.543c0.127-0.054,0.247-0.121,0.367-0.192
	c-0.004,0.247-0.211,0.853-0.326,0.853c-0.027,0-0.049-0.033-0.062-0.112c0.064-0.118,0.071-0.162,0.046-0.162
	c-0.039,0-0.156,0.103-0.266,0.206C12.105,13.416,12.002,13.52,11.989,13.52z M12.279,13.658c-0.137,0-0.11-0.086,0.31-0.175
	c0.181-0.027,0.038-0.017,0.26-0.067C12.636,13.594,12.397,13.658,12.279,13.658z M16.677,10.511c-0.046,0,0.013-0.056,0.083-0.11
	c0.069-0.056,0.151-0.111,0.154-0.111c0,0,0,0-0.004,0.003c0.278-0.105,0.109-0.132,0.256-0.205
	c-0.004,0.001-0.006,0.001-0.008,0.001c-0.029,0,0.025-0.043,0.074-0.087c0.051-0.043,0.098-0.087,0.052-0.087
	c-0.027,0-0.089,0.017-0.205,0.059c0.035-0.05,0.171-0.084,0.364-0.194c-0.277,0.089-0.5,0.15-0.525,0.15
	c-0.021,0,0.098-0.044,0.445-0.15c0.016,0.001,0.029,0.002,0.041,0.002c0.037,0,0.05-0.009,0.045-0.018
	c-0.006-0.009-0.027-0.018-0.059-0.018h-0.002c-0.501,0.04-0.879,0.357-0.767,0.396c0.065-0.023,0.113-0.033,0.143-0.033
	c0.067,0,0.036,0.056-0.096,0.139c0.061,0.141-1.017,0.507-1.138,0.639c0.06-0.033,0.1-0.047,0.123-0.047
	c0.079,0-0.028,0.157-0.133,0.234c0.064,0.059,0.114,0.081,0.155,0.081c0.106,0,0.154-0.148,0.242-0.192
	c0.02,0.043,0.043,0.061,0.067,0.061c0.086,0,0.195-0.211,0.279-0.324c0.023,0.027,0.056,0.045,0.098,0.045
	c0.082,0,0.205-0.066,0.395-0.251C16.718,10.505,16.692,10.511,16.677,10.511z M19.764,13.164c0.07,0,0.163-0.083,0.258-0.309
	c0.131-0.156,0.074-0.177-0.067-0.251C19.562,12.703,19.598,13.164,19.764,13.164z M20.18,13.146c0.06-0.007,0.105-0.01,0.14-0.01
	c0.146,0,0.081,0.061-0.005,0.121s-0.193,0.121-0.133,0.121c0.035,0,0.131-0.021,0.328-0.078c0.998-0.072-0.389-0.918-0.166-1.203
	l-0.059-0.019C19.875,12.602,20.559,12.612,20.18,13.146z M27.495,24.991c0.725-0.616,0.817-1.346,0.855-2.085
	C28.024,23.539,27.057,24.238,27.495,24.991z M24.187,15.091c-0.002,0.004-0.003,0.007-0.005,0.011
	c0.006,0.007,0.01,0.011,0.011,0.011C24.195,15.112,24.193,15.106,24.187,15.091z M23.264,14.775c-0.015,0-0.025,0.004-0.034,0.012
	c0.04,0.011,0.081,0.019,0.122,0.022C23.313,14.785,23.285,14.775,23.264,14.775z M30.086,16.038
	c0.088,0.188,0.13,0.267,0.138,0.267c0.037,0-0.639-1.648-0.917-1.942c-1.458-2.396-3.854-4.231-6.584-4.913h-0.006
	c-0.07,0,0.011,0.035,0.108,0.071s0.214,0.072,0.213,0.072c0,0-0.078-0.024-0.308-0.093c-0.258-0.075-0.521-0.133-0.791-0.153
	c-0.045,0.017,1.113,0.469,1.888,0.709C23.567,9.976,23.298,9.9,23.23,9.9c-0.044,0-0.002,0.032,0.186,0.114
	c-0.23-0.069-0.326-0.097-0.334-0.097c-0.016,0,0.304,0.105,0.606,0.212c0.304,0.106,0.592,0.212,0.513,0.212
	c-0.022,0-0.074-0.008-0.163-0.027c0.261,0.143,0.352,0.197,0.336,0.197c-0.026,0-0.348-0.152-0.674-0.304s-0.657-0.304-0.703-0.304
	c-0.027,0,0.042,0.051,0.265,0.184c0.306,0.133,0.61,0.264,0.525,0.264c-0.038,0-0.155-0.026-0.388-0.092
	c0.508,0.26-0.359,0.156-0.063,0.507c-0.165-0.15-0.23-0.202-0.245-0.202c-0.016,0,0.027,0.061,0.066,0.122
	c0.038,0.061,0.071,0.122,0.035,0.122c-0.003,0-0.006,0-0.01-0.001c0.353,0.385-0.249,0.042,0.183,0.385
	c-0.323-0.148-0.877-0.392-0.631-0.392c0.062,0,0.177,0.016,0.361,0.054c-0.33-0.385-1.263-0.399-1.284-0.445
	c-0.235,0.018-0.24,0.191-0.199,0.518c-0.004,0.509-0.509,0.522-0.444,0.817c0.002-0.005,0.004-0.007,0.005-0.007
	c0.011,0,0.013,0.104,0.045,0.207c0.033,0.104,0.096,0.207,0.227,0.207c0.07,0,0.161-0.03,0.277-0.106
	c0.158,0.283,0.299,0.388,0.41,0.388c0.167,0,0.267-0.231,0.259-0.436c-0.181-0.103-0.422-0.943-0.16-0.943
	c0.041,0,0.094,0.02,0.16,0.065c-0.41,1.01,1.625,0.334,0.471,0.796c0.257,0.341-0.165,0.325-0.043,0.736
	c-0.199,0.054-0.419,0.108-0.609,0.108c-0.284,0-0.501-0.122-0.479-0.551c-0.354,0.188,0.353,0.824-0.353,0.824h-0.042
	c-0.34,0.623-1.615,0.41-0.612,1.073c0.054,0.288-0.13,0.339-0.361,0.339c-0.063,0-0.129-0.004-0.195-0.008
	c-0.065-0.003-0.131-0.007-0.192-0.007c-0.262,0-0.451,0.066-0.288,0.479c-0.118,0.428,0.155,0.613,0.493,0.613
	c0.406,0,0.905-0.267,0.938-0.703c0.22-0.332,0.499-0.466,0.787-0.466c0.459,0,0.942,0.342,1.255,0.771
	c0.028,0.04,0.046,0.057,0.056,0.057c0.024,0,0.002-0.102-0.009-0.203c-0.009-0.081-0.011-0.162,0.022-0.191
	c-0.454-0.126-0.796-0.676-0.647-0.676c0.051,0,0.156,0.062,0.332,0.224c0.009-0.001,0.019-0.001,0.027-0.001
	c0.286,0,0.506,0.225,0.682,0.449c0.177,0.225,0.31,0.449,0.425,0.449c0.047,0,0.091-0.038,0.134-0.131
	c-0.022-0.031-0.071-0.117-0.097-0.203c-0.032-0.107-0.028-0.215,0.106-0.215c0.055,0,0.133,0.018,0.239,0.062
	c0.344-0.093-0.221-0.988,0.237-0.988c0.046,0,0.103,0.009,0.172,0.029c-0.005,0.156,0.063,0.211,0.133,0.211
	c0.13,0,0.264-0.186-0.058-0.243c0.12-0.116,0.193-0.161,0.243-0.161c0.176,0,0.036,0.588,0.649,0.59
	c0.21,0.492-1.807,0.037-1.165,0.978c0.149,0.105,0.329,0.125,0.506,0.125c0.053,0,0.105-0.002,0.157-0.003
	c0.051-0.002,0.101-0.004,0.149-0.004c0.314,0,0.537,0.076,0.404,0.729c-0.169,0.121-0.356,0.16-0.549,0.16
	c-0.171,0-0.346-0.03-0.514-0.062c-0.169-0.03-0.33-0.061-0.476-0.061c-0.228,0-0.414,0.074-0.523,0.34
	c-0.594-0.245-1.375-0.255-1.301-0.992c-1.035,0.147-2.12,0.07-2.882,0.706c-0.043,0.926-1.637,1.23-1.253,2.284
	c-0.463,0.973,0.558,2.34,1.601,2.34c0.037,0,0.074-0.002,0.111-0.005c0.568-0.005,1.145-0.26,1.645-0.26
	c0.257,0,0.494,0.067,0.698,0.272c0.044-0.006,0.085-0.009,0.121-0.009c0.78,0-0.251,1.233,0.679,1.442
	c0.842,0.875-0.516,1.772,0.146,2.612c0.074,0.658,0.399,1.202,0.399,1.846c0.086,0.012,0.17,0.017,0.252,0.017
	c1.07,0,1.74-0.933,2.373-1.638c-0.192-1.056,1.496-1.267,0.92-2.446c-0.271-1.295,1.275-2.064,1.186-3.356
	c0.014-0.182-0.033-0.24-0.113-0.24c-0.077,0-0.185,0.054-0.297,0.108c-0.112,0.054-0.231,0.108-0.33,0.108
	c-0.126,0-0.221-0.087-0.235-0.371c-0.744-0.694-1.089-1.641-1.782-2.408c0.902,0.438,1.415,1.422,1.831,2.314
	c0.036,0.01,0.073,0.015,0.111,0.015c0.738,0,1.76-1.765,0.646-2.189c-0.058,0.166-0.142,0.231-0.236,0.231
	c-0.166,0-0.362-0.203-0.498-0.404c-0.135-0.202-0.21-0.404-0.131-0.404c0.049,0,0.16,0.081,0.356,0.296
	c0.216,0.137,0.433,0.175,0.656,0.175c0.217,0,0.44-0.036,0.676-0.054c0.295,0.114,0.421,0.49,0.511,0.49
	c0.018,0,0.034-0.016,0.051-0.053c0.233,0.559,0.505,1.554,0.745,1.822C30.336,17.78,30.306,16.876,30.086,16.038z M27.253,14.867
	c-0.573-0.146-0.76-0.856-1.213-1.268c-0.004-0.11,0.16-0.091,0.124-0.281c0.608,0.186,0.411,0.375,0.356,0.413
	C26.739,14.102,27.363,14.353,27.253,14.867z M19.363,11.002c-0.553,0.162-0.631-0.018-0.535,0.327
	c0.043,0.029,0.115,0.042,0.193,0.042C19.293,11.371,19.66,11.214,19.363,11.002z M18.999,10.332c0.06,0,0.136,0.032,0.202,0.123
	c-0.297-0.421,0.328-0.24,0.367-0.641c0.354-0.264,0.229-0.436,0.328-0.449l0.113-0.092c-0.217,0.083-0.297,0.099-0.358,0.099
	c-0.017,0-0.032-0.002-0.048-0.003c-0.017-0.001-0.034-0.002-0.055-0.002c-0.078,0-0.203,0.016-0.504,0.107
	c-0.686,0.049-1.178,0.791-1.41,0.814c-0.239,0.129-0.229,0.152-0.171,0.152c0.016,0,0.035-0.002,0.054-0.004
	c0.02-0.002,0.038-0.003,0.052-0.003c0.056,0,0.042,0.025-0.282,0.178c0.075,0.021-0.568,0.306-0.574,0.752
	c-0.023,0.173,0.049,0.29,0.169,0.29c0.099,0,0.229-0.078,0.364-0.27c0.457-0.527,1.421-0.579,1.836-0.899
	C18.827,10.465,18.877,10.332,18.999,10.332z M20,7C12.82,7,7,12.82,7,20s5.82,13,13,13s13-5.82,13-13S27.18,7,20,7z M20,32
	c-6.627,0-12-5.372-12-12c0-6.627,5.373-12,12-12c6.628,0,12,5.373,12,12C32,26.628,26.628,32,20,32z"/>
</svg>