<?xml version="1.0" encoding="utf-8"?>
<!-- Generator: Adobe Illustrator 15.1.0, SVG Export Plug-In  -->
<!DOCTYPE svg PUBLIC "-//W3C//DTD SVG 1.1//EN" "http://www.w3.org/Graphics/SVG/1.1/DTD/svg11.dtd" [
	<!ENTITY ns_flows "http://ns.adobe.com/Flows/1.0/">
]>
<svg version="1.1"
	 xmlns="http://www.w3.org/2000/svg" xmlns:xlink="http://www.w3.org/1999/xlink" xmlns:a="http://ns.adobe.com/AdobeSVGViewerExtensions/3.0/"
	 x="0px" y="0px" width="48px" height="48px" viewBox="0 0 48 48" overflow="visible" enable-background="new 0 0 48 48"
	 xml:space="preserve">
<defs>
</defs>
<path fill-rule="evenodd" clip-rule="evenodd" d="M23.263,30.602L23.263,30.602C23.418,30.842,23.69,31,24,31
	c0.311,0,0.583-0.159,0.738-0.398l5.165-7.978C30.598,21.552,31,20.368,31,19c0-3.958-3.111-7-7-7s-7,3.042-7,7
	c0,1.368,0.402,2.552,1.098,3.624L23.263,30.602z M24,15c2.209,0,4,1.791,4,4s-1.791,4-4,4s-4-1.791-4-4S21.791,15,24,15z
	 M29.127,27.164L24,34l-5.127-6.836C17.118,28.081,16,29.458,16,31c0,2.762,3.582,5,8,5s8-2.238,8-5
	C32,29.458,30.882,28.081,29.127,27.164z"/>
</svg>