<?xml version="1.0" encoding="utf-8"?>
<!-- Generator: Adobe Illustrator 15.1.0, SVG Export Plug-In  -->
<!DOCTYPE svg PUBLIC "-//W3C//DTD SVG 1.1//EN" "http://www.w3.org/Graphics/SVG/1.1/DTD/svg11.dtd" [
	<!ENTITY ns_flows "http://ns.adobe.com/Flows/1.0/">
]>
<svg version="1.1"
	 xmlns="http://www.w3.org/2000/svg" xmlns:xlink="http://www.w3.org/1999/xlink" xmlns:a="http://ns.adobe.com/AdobeSVGViewerExtensions/3.0/"
	 x="0px" y="0px" width="48px" height="48px" viewBox="0 0 48 48" overflow="visible" enable-background="new 0 0 48 48"
	 xml:space="preserve">
<defs>
</defs>
<path fill-rule="evenodd" clip-rule="evenodd" d="M34,15H14c-1.104,0-2,0.896-2,2v14c0,1.104,0.896,2,2,2h20c1.104,0,2-0.896,2-2V17
	C36,15.896,35.104,15,34,15z M30,28H18c-2.209,0-4-1.791-4-4s1.791-4,4-4s4,1.791,4,4c0,0.732-0.211,1.41-0.555,2h5.109
	C26.211,25.41,26,24.732,26,24c0-2.209,1.791-4,4-4s4,1.791,4,4S32.209,28,30,28z"/>
</svg>