<?xml version="1.0" encoding="utf-8"?>
<!-- Generator: Adobe Illustrator 15.1.0, SVG Export Plug-In  -->
<!DOCTYPE svg PUBLIC "-//W3C//DTD SVG 1.1//EN" "http://www.w3.org/Graphics/SVG/1.1/DTD/svg11.dtd" [
	<!ENTITY ns_flows "http://ns.adobe.com/Flows/1.0/">
]>
<svg version="1.1"
	 xmlns="http://www.w3.org/2000/svg" xmlns:xlink="http://www.w3.org/1999/xlink" xmlns:a="http://ns.adobe.com/AdobeSVGViewerExtensions/3.0/"
	 x="0px" y="0px" width="48px" height="48px" viewBox="0 0 48 48" overflow="visible" enable-background="new 0 0 48 48"
	 xml:space="preserve">
<defs>
</defs>
<path fill-rule="evenodd" clip-rule="evenodd" d="M8,23v2c8,12,24,12,32,0v-2C32,11,16,11,8,23z M24,32c-4.418,0-8-3.582-8-8
	s3.582-8,8-8c4.418,0,8,3.582,8,8S28.418,32,24,32z M24,19.5c0-0.519,0.105-1.009,0.268-1.473C24.177,18.023,24.092,18,24,18
	c-3.313,0-6,2.687-6,6s2.686,6,6,6c3.314,0,6-2.687,6-6c0-0.092-0.022-0.177-0.027-0.267C29.509,23.895,29.019,24,28.5,24
	C26.015,24,24,21.985,24,19.5z"/>
</svg>