<?xml version="1.0" encoding="utf-8"?>
<!-- Generator: Adobe Illustrator 15.1.0, SVG Export Plug-In  -->
<!DOCTYPE svg PUBLIC "-//W3C//DTD SVG 1.1//EN" "http://www.w3.org/Graphics/SVG/1.1/DTD/svg11.dtd" [
	<!ENTITY ns_flows "http://ns.adobe.com/Flows/1.0/">
]>
<svg version="1.1"
	 xmlns="http://www.w3.org/2000/svg" xmlns:xlink="http://www.w3.org/1999/xlink" xmlns:a="http://ns.adobe.com/AdobeSVGViewerExtensions/3.0/"
	 x="0px" y="0px" width="48px" height="48px" viewBox="0 0 48 48" overflow="visible" enable-background="new 0 0 48 48"
	 xml:space="preserve">
<defs>
</defs>
<path fill-rule="evenodd" clip-rule="evenodd" d="M24,29.701c0.986-0.017,0.904-0.442,1.96-0.426
	c1.618,0.027,2.021-0.639,2.04-1.691c0.023-1.242-1.482-2.053-1.637-2.419c-0.152-0.366-1.175-5.657-1.175-5.657
	S25.042,19.104,24,19.104c-1.041,0-1.188,0.404-1.188,0.404s-1.022,5.291-1.176,5.657s-1.66,1.177-1.637,2.419
	c0.02,1.053,0.422,1.719,2.04,1.691C23.096,29.259,23.015,29.685,24,29.701z M35.981,12.932c-1.638-0.329-3.253-0.938-4.923-0.927
	c-0.955,0.007-1.917,0.17-2.866,0.325c-1.063,0.174-2.093,0.562-3.155,0.709c-0.344,0.048-0.689,0.064-1.037,0.064
	s-0.693-0.017-1.036-0.064c-1.063-0.146-2.093-0.535-3.155-0.709c-0.95-0.155-1.911-0.318-2.867-0.325
	c-1.67-0.011-3.285,0.598-4.922,0.927c0,0.557-0.098,1.272,0.147,1.664c0.252,0.404,0.679,0.773,0.788,1.322
	c0.263,1.298,0.635,2.571,1.11,3.792c0.23,0.593,0.667,1.007,1.154,1.292c1.173,0.686,2.562,0.786,3.848,0.57
	c1.833-0.307,2.827-1.907,3.585-3.736c0.284-0.743,0.316-1.602,0.689-2.28c0.14-0.255,0.396-0.281,0.658-0.267
	c0.263-0.015,0.519,0.012,0.658,0.267c0.374,0.679,0.405,1.537,0.689,2.28c0.759,1.829,1.752,3.43,3.585,3.736
	c1.287,0.216,2.675,0.115,3.848-0.57c0.487-0.285,0.924-0.699,1.155-1.292c0.476-1.221,0.848-2.494,1.109-3.792
	c0.109-0.549,0.536-0.918,0.789-1.322C36.078,14.204,35.981,13.488,35.981,12.932z M21.577,18.142
	c-0.911,2.194-2.546,2.655-3.756,2.655c-0.471,0-0.964-0.07-1.466-0.21c-0.895-0.247-1.561-0.983-1.876-2.072
	c-0.422-1.453-0.595-2.62-0.545-3.671c0.064-1.361,1.306-1.636,2.685-1.816c0.643-0.084,1.159-0.125,1.623-0.128h0.004
	c0.624,0,1.117,0.055,1.574,0.167c1.336,0.33,2.094,0.784,2.387,1.432C22.533,15.222,22.352,16.277,21.577,18.142z M33.521,18.515
	c-0.316,1.089-0.982,1.825-1.877,2.072c-0.502,0.14-0.995,0.21-1.466,0.21c-1.21,0-2.845-0.461-3.755-2.655
	c-0.774-1.864-0.957-2.92-0.63-3.644c0.292-0.647,1.05-1.102,2.386-1.432c0.457-0.112,0.95-0.167,1.574-0.167h0.004
	c0.464,0.003,0.98,0.044,1.623,0.128c1.379,0.181,2.621,0.455,2.685,1.816C34.115,15.895,33.942,17.062,33.521,18.515z
	 M29.613,32.438c-3.208-1.783-5.161-0.562-5.613-0.223c-0.453-0.34-2.405-1.561-5.613,0.223c-3.189,1.774-4.787-1.283-4.975-1.736
	c0.296,0.721,3.768,8.346,8.46,3.916c0.743-0.701,1.479-0.894,2.128-0.888c0.648-0.006,1.385,0.187,2.127,0.888
	c4.692,4.43,8.165-3.195,8.461-3.916C34.4,31.154,32.803,34.212,29.613,32.438z"/>
</svg>