<?xml version="1.0" encoding="utf-8"?>
<!-- Generator: Adobe Illustrator 15.1.0, SVG Export Plug-In  -->
<!DOCTYPE svg PUBLIC "-//W3C//DTD SVG 1.1//EN" "http://www.w3.org/Graphics/SVG/1.1/DTD/svg11.dtd" [
	<!ENTITY ns_flows "http://ns.adobe.com/Flows/1.0/">
]>
<svg version="1.1"
	 xmlns="http://www.w3.org/2000/svg" xmlns:xlink="http://www.w3.org/1999/xlink" xmlns:a="http://ns.adobe.com/AdobeSVGViewerExtensions/3.0/"
	 x="0px" y="0px" width="48px" height="48px" viewBox="0 0 48 48" overflow="visible" enable-background="new 0 0 48 48"
	 xml:space="preserve">
<defs>
</defs>
<path fill-rule="evenodd" clip-rule="evenodd" d="M12,18v14c0,1.104,0.896,2,2,2h1V16h-1C12.896,16,12,16.896,12,18z M34,16h-1v18h1
	c1.104,0,2-0.896,2-2V18C36,16.896,35.104,16,34,16z M17,34h14V16H17V34z M22,14h4v1h2v-1c0-1.104-0.896-2-2-2h-4
	c-1.104,0-2,0.896-2,2v1h2V14z"/>
</svg>