<?xml version="1.0" encoding="utf-8"?>
<!-- Generator: Adobe Illustrator 15.1.0, SVG Export Plug-In  -->
<!DOCTYPE svg PUBLIC "-//W3C//DTD SVG 1.1//EN" "http://www.w3.org/Graphics/SVG/1.1/DTD/svg11.dtd" [
	<!ENTITY ns_flows "http://ns.adobe.com/Flows/1.0/">
]>
<svg version="1.1"
	 xmlns="http://www.w3.org/2000/svg" xmlns:xlink="http://www.w3.org/1999/xlink" xmlns:a="http://ns.adobe.com/AdobeSVGViewerExtensions/3.0/"
	 x="0px" y="0px" width="48px" height="48px" viewBox="0 0 48 48" overflow="visible" enable-background="new 0 0 48 48"
	 xml:space="preserve">
<defs>
</defs>
<path fill-rule="evenodd" clip-rule="evenodd" d="M19,15h4v-2h-4V15z M15,31h-2v4h4v-2h-2V31z M19,35h4v-2h-4V35z M15,25h-2v4h2V25z
	 M15,19h-2v4h2V19z M13,17h2v-2h2v-2h-4V17z M33,23h2v-4h-2V23z M25,35h4v-2h-4V35z M31,13v2h2v2h2v-4H31z M33,29h2v-4h-2V29z
	 M33,33h-2v2h4v-4h-2V33z M25,15h4v-2h-4V15z"/>
</svg>