<?xml version="1.0" encoding="utf-8"?>
<!-- Generator: Adobe Illustrator 15.1.0, SVG Export Plug-In  -->
<!DOCTYPE svg PUBLIC "-//W3C//DTD SVG 1.1//EN" "http://www.w3.org/Graphics/SVG/1.1/DTD/svg11.dtd" [
	<!ENTITY ns_flows "http://ns.adobe.com/Flows/1.0/">
]>
<svg version="1.1"
	 xmlns="http://www.w3.org/2000/svg" xmlns:xlink="http://www.w3.org/1999/xlink" xmlns:a="http://ns.adobe.com/AdobeSVGViewerExtensions/3.0/"
	 x="0px" y="0px" width="48px" height="48px" viewBox="0 0 48 48" overflow="visible" enable-background="new 0 0 48 48"
	 xml:space="preserve">
<defs>
</defs>
<path fill-rule="evenodd" clip-rule="evenodd" d="M34,17H14v-3h14v2h2v-2c0-1.104-0.896-2-2-2H14c-1.104,0-2,0.896-2,2v20
	c0,1.104,0.896,2,2,2h20c1.104,0,2-0.896,2-2v-4h-5c-1.104,0-2-0.896-2-2v-3c0-1.104,0.896-2,2-2h5v-4C36,17.896,35.104,17,34,17z
	 M31,28h5v-3h-5V28z"/>
</svg>