<?xml version="1.0" encoding="utf-8"?>
<!-- Generator: Adobe Illustrator 15.1.0, SVG Export Plug-In  -->
<!DOCTYPE svg PUBLIC "-//W3C//DTD SVG 1.1//EN" "http://www.w3.org/Graphics/SVG/1.1/DTD/svg11.dtd" [
	<!ENTITY ns_flows "http://ns.adobe.com/Flows/1.0/">
]>
<svg version="1.1"
	 xmlns="http://www.w3.org/2000/svg" xmlns:xlink="http://www.w3.org/1999/xlink" xmlns:a="http://ns.adobe.com/AdobeSVGViewerExtensions/3.0/"
	 x="0px" y="0px" width="48px" height="48px" viewBox="0 0 48 48" overflow="visible" enable-background="new 0 0 48 48"
	 xml:space="preserve">
<defs>
</defs>
<path fill-rule="evenodd" clip-rule="evenodd" d="M28,12v4h-3c-3.313,0-6,2.687-6,6v4c0,1.657-1.343,3-3,3h-4v3h4
	c3.313,0,6-2.686,6-6v-4c0-1.657,1.343-3,3-3h3v4l8-5v-1L28,12z M17.344,19.332l1.764-2.441C18.198,16.336,17.142,16,16,16h-4v3h4
	C16.486,19,16.938,19.126,17.344,19.332z M28,29h-3c-0.485,0-0.938-0.126-1.344-0.332l-1.764,2.441C22.802,31.664,23.858,32,25,32h3
	v4l8-5v-1l-8-5V29z"/>
</svg>