<?xml version="1.0" encoding="utf-8"?>
<!-- Generator: Adobe Illustrator 15.1.0, SVG Export Plug-In  -->
<!DOCTYPE svg PUBLIC "-//W3C//DTD SVG 1.1//EN" "http://www.w3.org/Graphics/SVG/1.1/DTD/svg11.dtd" [
	<!ENTITY ns_flows "http://ns.adobe.com/Flows/1.0/">
]>
<svg version="1.1"
	 xmlns="http://www.w3.org/2000/svg" xmlns:xlink="http://www.w3.org/1999/xlink" xmlns:a="http://ns.adobe.com/AdobeSVGViewerExtensions/3.0/"
	 x="0px" y="0px" width="48px" height="48px" viewBox="0 0 48 48" overflow="visible" enable-background="new 0 0 48 48"
	 xml:space="preserve">
<defs>
</defs>
<path fill-rule="evenodd" clip-rule="evenodd" d="M24,11c-7.18,0-13,5.82-13,13s5.82,13,13,13s13-5.82,13-13S31.18,11,24,11z M24,35
	c-6.075,0-11-4.925-11-11s4.925-11,11-11s11,4.925,11,11S30.075,35,24,35z M24,15c-4.97,0-9,4.029-9,9s4.03,9,9,9
	c4.971,0,9-4.029,9-9S28.971,15,24,15z"/>
</svg>