<?xml version="1.0" encoding="utf-8"?>
<!-- Generator: Adobe Illustrator 15.1.0, SVG Export Plug-In  -->
<!DOCTYPE svg PUBLIC "-//W3C//DTD SVG 1.1//EN" "http://www.w3.org/Graphics/SVG/1.1/DTD/svg11.dtd" [
	<!ENTITY ns_flows "http://ns.adobe.com/Flows/1.0/">
]>
<svg version="1.1"
	 xmlns="http://www.w3.org/2000/svg" xmlns:xlink="http://www.w3.org/1999/xlink" xmlns:a="http://ns.adobe.com/AdobeSVGViewerExtensions/3.0/"
	 x="0px" y="0px" width="48px" height="48px" viewBox="0 0 48 48" overflow="visible" enable-background="new 0 0 48 48"
	 xml:space="preserve">
<defs>
</defs>
<path fill-rule="evenodd" clip-rule="evenodd" d="M8.139,22C8.056,22.656,8,23.321,8,24c0,5.96,3.266,11.148,8.099,13.901L17,36V23
	l-1-1H8.139z M36,23c0-1-1-2-2-2h-8c0.5-2,1-4,1-5c0-2-1-4-1.5-4.5C25.489,11.489,25,11,24,11c-1.5,0-1.5,1.5-1.5,1.5
	c0,0.028-0.5,2.5-0.5,3.5s-2,5-3,6l-1,0.5v14l1,0.5h11c2,0,3-1,3-2s-1-2-2-2c2,0,3-1,3-2s-1-2-2-2c2,0,3-1,3-2s-1-2-2-2
	C35,25,36,24,36,23z"/>
</svg>