<?xml version="1.0" encoding="utf-8"?>
<!-- Generator: Adobe Illustrator 15.1.0, SVG Export Plug-In  -->
<!DOCTYPE svg PUBLIC "-//W3C//DTD SVG 1.1//EN" "http://www.w3.org/Graphics/SVG/1.1/DTD/svg11.dtd" [
	<!ENTITY ns_flows "http://ns.adobe.com/Flows/1.0/">
]>
<svg version="1.1"
	 xmlns="http://www.w3.org/2000/svg" xmlns:xlink="http://www.w3.org/1999/xlink" xmlns:a="http://ns.adobe.com/AdobeSVGViewerExtensions/3.0/"
	 x="0px" y="0px" width="48px" height="48px" viewBox="0 0 48 48" overflow="visible" enable-background="new 0 0 48 48"
	 xml:space="preserve">
<defs>
</defs>
<path fill-rule="evenodd" clip-rule="evenodd" d="M27,19H16c-1.104,0-2,0.896-2,2v11c0,1.104,0.896,2,2,2h11c1.104,0,2-0.896,2-2V21
	C29,19.896,28.104,19,27,19z M30,24v5l6,3V21L30,24z M17,18c1.657,0,3-1.343,3-3s-1.343-3-3-3s-3,1.343-3,3S15.343,18,17,18z M26,12
	c-1.657,0-3,1.343-3,3s1.343,3,3,3s3-1.343,3-3S27.657,12,26,12z"/>
</svg>