<?xml version="1.0" encoding="utf-8"?>
<!-- Generator: Adobe Illustrator 15.1.0, SVG Export Plug-In  -->
<!DOCTYPE svg PUBLIC "-//W3C//DTD SVG 1.1//EN" "http://www.w3.org/Graphics/SVG/1.1/DTD/svg11.dtd" [
	<!ENTITY ns_flows "http://ns.adobe.com/Flows/1.0/">
]>
<svg version="1.1"
	 xmlns="http://www.w3.org/2000/svg" xmlns:xlink="http://www.w3.org/1999/xlink" xmlns:a="http://ns.adobe.com/AdobeSVGViewerExtensions/3.0/"
	 x="0px" y="0px" width="48px" height="48px" viewBox="0 0 48 48" overflow="visible" enable-background="new 0 0 48 48"
	 xml:space="preserve">
<defs>
</defs>
<path fill-rule="evenodd" clip-rule="evenodd" d="M30.452,15.022c-0.365-0.661-0.866-1.214-1.501-1.658
	c-0.636-0.443-1.377-0.779-2.226-1.007c-0.848-0.228-1.749-0.342-2.702-0.342c-2.073,0-4.091,0.444-6.022,1.484v4
	c1.59-1.44,3.278-2.332,5.033-2.332c0.542,0,1.051,0.061,1.528,0.18s0.901,0.3,1.271,0.544c0.371,0.244,0.663,0.547,0.875,0.91
	S27,17.513,27,18c0,0.542-0.119,1.117-0.408,1.572s-0.648,0.889-1.078,1.3c-0.43,0.412-0.892,0.835-1.386,1.268
	c-0.506,0.434-0.975,0.883-1.404,1.349c-0.43,0.466-0.789,0.967-1.078,1.503s-0.433,1.136-0.433,1.796
	c0,0.423,0.041,0.851,0.124,1.284C21.42,28.504,21.394,28.729,21.5,29h4c-0.352-0.706-0.5-1.162-0.5-2c0-0.553,0.194-1.545,0.5-2
	s0.415-0.504,0.88-0.927c0.465-0.422,0.968-0.845,1.51-1.268c0.53-0.422,1.027-0.907,1.492-1.454s0.851-1.146,1.157-1.796
	C30.846,18.906,31,18.334,31,17.5C31,16.622,30.816,15.684,30.452,15.022z M23.5,31c-1.381,0-2.5,1.119-2.5,2.5s1.119,2.5,2.5,2.5
	s2.5-1.119,2.5-2.5S24.881,31,23.5,31z"/>
</svg>