<?xml version="1.0" encoding="utf-8"?>
<!-- Generator: Adobe Illustrator 15.1.0, SVG Export Plug-In  -->
<!DOCTYPE svg PUBLIC "-//W3C//DTD SVG 1.1//EN" "http://www.w3.org/Graphics/SVG/1.1/DTD/svg11.dtd" [
	<!ENTITY ns_flows "http://ns.adobe.com/Flows/1.0/">
]>
<svg version="1.1"
	 xmlns="http://www.w3.org/2000/svg" xmlns:xlink="http://www.w3.org/1999/xlink" xmlns:a="http://ns.adobe.com/AdobeSVGViewerExtensions/3.0/"
	 x="0px" y="0px" width="48px" height="48px" viewBox="0 0 48 48" overflow="visible" enable-background="new 0 0 48 48"
	 xml:space="preserve">
<defs>
</defs>
<path fill-rule="evenodd" clip-rule="evenodd" d="M29,27h-2v2h2V27z M25,19h-2v2h2V19z M29,31h-2v2h2V31z M29,19h-2v2h2V19z M19,12
	h-2v3h2V12z M33,19h-2v2h2V19z M25,23h-2v2h2V23z M33,23h-2v2h2V23z M33,27h-2v2h2V27z M29,23h-2v2h2V23z M17,23h-2v2h2V23z M17,27
	h-2v2h2V27z M32,12v4h-4v-4h-8v4h-4v-4h-4v24h24V12H32z M34,34H14V18h20V34z M17,31h-2v2h2V31z M25,27h-2v2h2V27z M21,31h-2v2h2V31z
	 M25,31h-2v2h2V31z M21,19h-2v2h2V19z M21,23h-2v2h2V23z M21,27h-2v2h2V27z M31,12h-2v3h2V12z"/>
</svg>