<?xml version="1.0" encoding="utf-8"?>
<!-- Generator: Adobe Illustrator 15.1.0, SVG Export Plug-In  -->
<!DOCTYPE svg PUBLIC "-//W3C//DTD SVG 1.1//EN" "http://www.w3.org/Graphics/SVG/1.1/DTD/svg11.dtd" [
	<!ENTITY ns_flows "http://ns.adobe.com/Flows/1.0/">
]>
<svg version="1.1"
	 xmlns="http://www.w3.org/2000/svg" xmlns:xlink="http://www.w3.org/1999/xlink" xmlns:a="http://ns.adobe.com/AdobeSVGViewerExtensions/3.0/"
	 x="0px" y="0px" width="48px" height="48px" viewBox="0 0 48 48" overflow="visible" enable-background="new 0 0 48 48"
	 xml:space="preserve">
<defs>
</defs>
<path d="M24,12c-6.627,0-12,5.373-12,12s5.373,12,12,12c3.313,0,6.313-1.343,8.485-3.515S36,27.313,36,24C36,17.373,30.627,12,24,12
	z M24,24c-4.531-4.531-7.54-4.499-9.412-3.351C15.967,16.777,19.654,14,24,14c5.522,0,10,4.478,10,10
	c0,1.177-0.214,2.302-0.587,3.351C31.54,28.499,28.531,28.531,24,24z"/>
</svg>