<?xml version="1.0" encoding="utf-8"?>
<!-- Generator: Adobe Illustrator 15.1.0, SVG Export Plug-In  -->
<!DOCTYPE svg PUBLIC "-//W3C//DTD SVG 1.1//EN" "http://www.w3.org/Graphics/SVG/1.1/DTD/svg11.dtd" [
	<!ENTITY ns_flows "http://ns.adobe.com/Flows/1.0/">
]>
<svg version="1.1"
	 xmlns="http://www.w3.org/2000/svg" xmlns:xlink="http://www.w3.org/1999/xlink" xmlns:a="http://ns.adobe.com/AdobeSVGViewerExtensions/3.0/"
	 x="0px" y="0px" width="48px" height="48px" viewBox="0 0 48 48" overflow="visible" enable-background="new 0 0 48 48"
	 xml:space="preserve">
<defs>
</defs>
<path fill-rule="evenodd" clip-rule="evenodd" d="M24,12c-6.627,0-12,5.373-12,12s5.373,12,12,12s12-5.373,12-12S30.627,12,24,12z
	 M15,24c0-4.971,4.029-9,9-9c1.975,0,3.795,0.644,5.278,1.722L16.722,29.278C15.644,27.795,15,25.975,15,24z M24,33
	c-1.975,0-3.795-0.644-5.278-1.721l12.557-12.557C32.356,20.206,33,22.025,33,24C33,28.971,28.971,33,24,33z"/>
</svg>