<?xml version="1.0" encoding="utf-8"?>
<!-- Generator: Adobe Illustrator 15.1.0, SVG Export Plug-In  -->
<!DOCTYPE svg PUBLIC "-//W3C//DTD SVG 1.1//EN" "http://www.w3.org/Graphics/SVG/1.1/DTD/svg11.dtd" [
	<!ENTITY ns_flows "http://ns.adobe.com/Flows/1.0/">
]>
<svg version="1.1"
	 xmlns="http://www.w3.org/2000/svg" xmlns:xlink="http://www.w3.org/1999/xlink" xmlns:a="http://ns.adobe.com/AdobeSVGViewerExtensions/3.0/"
	 x="0px" y="0px" width="48px" height="48px" viewBox="0 0 48 48" overflow="visible" enable-background="new 0 0 48 48"
	 xml:space="preserve">
<defs>
</defs>
<path fill-rule="evenodd" clip-rule="evenodd" d="M27,12v6h6L27,12z M26,12H15v24h18V19h-7V12z M29,25c1.104,0,2,0.896,2,2
	s-0.896,2-2,2s-2-0.896-2-2S27.896,25,29,25z M19,29c-1.104,0-2-0.896-2-2s0.896-2,2-2s2,0.896,2,2S20.104,29,19,29z M24,29
	c-1.104,0-2-0.896-2-2s0.896-2,2-2s2,0.896,2,2S25.104,29,24,29z"/>
</svg>