<?xml version="1.0" encoding="utf-8"?>
<!-- Generator: Adobe Illustrator 15.1.0, SVG Export Plug-In  -->
<!DOCTYPE svg PUBLIC "-//W3C//DTD SVG 1.1//EN" "http://www.w3.org/Graphics/SVG/1.1/DTD/svg11.dtd" [
	<!ENTITY ns_flows "http://ns.adobe.com/Flows/1.0/">
]>
<svg version="1.1"
	 xmlns="http://www.w3.org/2000/svg" xmlns:xlink="http://www.w3.org/1999/xlink" xmlns:a="http://ns.adobe.com/AdobeSVGViewerExtensions/3.0/"
	 x="0px" y="0px" width="48px" height="48px" viewBox="0 0 48 48" overflow="visible" enable-background="new 0 0 48 48"
	 xml:space="preserve">
<defs>
</defs>
<path fill-rule="evenodd" clip-rule="evenodd" d="M14,34c0,1.104,0.896,2,2,2h16c1.104,0,2-0.896,2-2V21H14V34z M29,24h2v9h-2V24z
	 M23,24h2v9h-2V24z M17,24h2v9h-2V24z M35,16h-6v-2c0-1.104-0.896-2-2-2h-6c-1.104,0-2,0.896-2,2v2h-6c-0.553,0-1,0.447-1,1v1
	c0,0.553,0.447,1,1,1h22c0.553,0,1-0.447,1-1v-1C36,16.447,35.553,16,35,16z M27,16h-6v-2h6V16z"/>
</svg>