<?xml version="1.0" encoding="utf-8"?>
<!-- Generator: Adobe Illustrator 15.1.0, SVG Export Plug-In  -->
<!DOCTYPE svg PUBLIC "-//W3C//DTD SVG 1.1//EN" "http://www.w3.org/Graphics/SVG/1.1/DTD/svg11.dtd" [
	<!ENTITY ns_flows "http://ns.adobe.com/Flows/1.0/">
]>
<svg version="1.1"
	 xmlns="http://www.w3.org/2000/svg" xmlns:xlink="http://www.w3.org/1999/xlink" xmlns:a="http://ns.adobe.com/AdobeSVGViewerExtensions/3.0/"
	 x="0px" y="0px" width="48px" height="48px" viewBox="0 0 48 48" overflow="visible" enable-background="new 0 0 48 48"
	 xml:space="preserve">
<defs>
</defs>
<path fill-rule="evenodd" clip-rule="evenodd" d="M15,30c-1,3-1.5,4-4,4c8.5,3.5,10-2.5,10-2.5L18.5,29C18.5,29,16,28.5,15,30z
	 M36.5,13.5c-0.707-0.707-1.922-0.198-1.922-0.198C32.811,13.656,23,23.5,23,23.5l3.5,3.5c0,0,9.846-9.809,10.199-11.576
	C36.699,15.424,37.207,14.207,36.5,13.5z M19.5,28l2.5,2.5l3.5-2.5L22,24.5L19.5,28z"/>
</svg>