<?xml version="1.0" encoding="utf-8"?>
<!-- Generator: Adobe Illustrator 15.1.0, SVG Export Plug-In  -->
<!DOCTYPE svg PUBLIC "-//W3C//DTD SVG 1.1//EN" "http://www.w3.org/Graphics/SVG/1.1/DTD/svg11.dtd" [
	<!ENTITY ns_flows "http://ns.adobe.com/Flows/1.0/">
]>
<svg version="1.1"
	 xmlns="http://www.w3.org/2000/svg" xmlns:xlink="http://www.w3.org/1999/xlink" xmlns:a="http://ns.adobe.com/AdobeSVGViewerExtensions/3.0/"
	 x="0px" y="0px" width="48px" height="48px" viewBox="0 0 48 48" enable-background="new 0 0 48 48" xml:space="preserve">
<defs>
</defs>
<path fill-rule="evenodd" clip-rule="evenodd" d="M30,14c-3,0-4.509,1.296-6,3c-1.491-1.704-3-3-6-3s-6,2-6,8c0,3,3,9,12,14
	c9-5,12-11,12-14C36,16,33,14,30,14z M24,33.694C15.828,28.847,14,23.649,14,22c0-2.737,0.694-6,4-6
	c2.099,0,3.121,0.747,4.495,2.317L24,20l1.505-1.683C26.879,16.747,27.902,16,30,16c3.306,0,4,3.263,4,6
	C34,23.649,32.172,28.847,24,33.694z"/>
</svg>