<?xml version="1.0" encoding="utf-8"?>
<!-- Generator: Adobe Illustrator 15.1.0, SVG Export Plug-In  -->
<!DOCTYPE svg PUBLIC "-//W3C//DTD SVG 1.1//EN" "http://www.w3.org/Graphics/SVG/1.1/DTD/svg11.dtd" [
	<!ENTITY ns_flows "http://ns.adobe.com/Flows/1.0/">
]>
<svg version="1.1"
	 xmlns="http://www.w3.org/2000/svg" xmlns:xlink="http://www.w3.org/1999/xlink" xmlns:a="http://ns.adobe.com/AdobeSVGViewerExtensions/3.0/"
	 x="0px" y="0px" width="48px" height="48px" viewBox="0 0 48 48" overflow="visible" enable-background="new 0 0 48 48"
	 xml:space="preserve">
<defs>
</defs>
<path fill-rule="evenodd" clip-rule="evenodd" d="M14,35h2V23h-2V35z M34,13h-2v12h2V13z M16,13h-2v2h2V13z M25,13h-2v7h2V13z
	 M12,21h6v-4h-6V21z M13,18h4v2h-4V18z M23,35h2v-7h-2V35z M32,35h2v-2h-2V35z M30,27v4h6v-4H30z M35,30h-4v-2h4V30z M21,26h6v-4h-6
	V26z M22,23h4v2h-4V23z"/>
</svg>