<?xml version="1.0" encoding="utf-8"?>
<!-- Generator: Adobe Illustrator 15.1.0, SVG Export Plug-In  -->
<!DOCTYPE svg PUBLIC "-//W3C//DTD SVG 1.1//EN" "http://www.w3.org/Graphics/SVG/1.1/DTD/svg11.dtd" [
	<!ENTITY ns_flows "http://ns.adobe.com/Flows/1.0/">
]>
<svg version="1.1"
	 xmlns="http://www.w3.org/2000/svg" xmlns:xlink="http://www.w3.org/1999/xlink" xmlns:a="http://ns.adobe.com/AdobeSVGViewerExtensions/3.0/"
	 x="0px" y="0px" width="48px" height="48px" viewBox="0 0 48 48" overflow="visible" enable-background="new 0 0 48 48"
	 xml:space="preserve">
<defs>
</defs>
<path fill-rule="evenodd" clip-rule="evenodd" d="M33,13H15c-1.657,0-3,1.343-3,3v12c0,1.657,1.343,3,3,3h6l-2,6l9-6h5
	c1.657,0,3-1.343,3-3V16C36,14.343,34.657,13,33,13z M29.5,25L27,27.5l-3-3l-3,3L18.5,25l3-3l-3-3l2.5-2.5l3,3l3-3l2.5,2.5l-3,3
	L29.5,25z"/>
</svg>