<?xml version="1.0" encoding="utf-8"?>
<!-- Generator: Adobe Illustrator 15.1.0, SVG Export Plug-In  -->
<!DOCTYPE svg PUBLIC "-//W3C//DTD SVG 1.1//EN" "http://www.w3.org/Graphics/SVG/1.1/DTD/svg11.dtd" [
	<!ENTITY ns_flows "http://ns.adobe.com/Flows/1.0/">
]>
<svg version="1.1"
	 xmlns="http://www.w3.org/2000/svg" xmlns:xlink="http://www.w3.org/1999/xlink" xmlns:a="http://ns.adobe.com/AdobeSVGViewerExtensions/3.0/"
	 x="0px" y="0px" width="48px" height="48px" viewBox="0 0 48 48" overflow="visible" enable-background="new 0 0 48 48"
	 xml:space="preserve">
<defs>
</defs>
<path fill-rule="evenodd" clip-rule="evenodd" fill="#FFFFFF" d="M24,23c6.627,0,12-2.238,12-5s-5.373-5-12-5s-12,2.238-12,5
	S17.373,23,24,23z M24,31c-4.578,0-8.629-1.104-11.184-2.802C12.296,28.758,12,29.364,12,30c0,2.762,5.373,5,12,5s12-2.238,12-5
	c0-0.636-0.296-1.242-0.816-1.802C32.629,29.896,28.578,31,24,31z M24,25c-4.578,0-8.629-1.104-11.184-2.802
	C12.296,22.758,12,23.364,12,24c0,2.762,5.373,5,12,5s12-2.238,12-5c0-0.636-0.296-1.242-0.816-1.802C32.629,23.896,28.578,25,24,25
	z"/>
</svg>