<?xml version="1.0" encoding="utf-8"?>
<!-- Generator: Adobe Illustrator 15.1.0, SVG Export Plug-In  -->
<!DOCTYPE svg PUBLIC "-//W3C//DTD SVG 1.1//EN" "http://www.w3.org/Graphics/SVG/1.1/DTD/svg11.dtd" [
	<!ENTITY ns_flows "http://ns.adobe.com/Flows/1.0/">
]>
<svg version="1.1"
	 xmlns="http://www.w3.org/2000/svg" xmlns:xlink="http://www.w3.org/1999/xlink" xmlns:a="http://ns.adobe.com/AdobeSVGViewerExtensions/3.0/"
	 x="0px" y="0px" width="48px" height="48px" viewBox="0 0 48 48" overflow="visible" enable-background="new 0 0 48 48"
	 xml:space="preserve">
<defs>
</defs>
<path fill-rule="evenodd" clip-rule="evenodd" fill="#FFFFFF" d="M27.809,30.031c-0.414-0.86-0.954-1.483-1.885-1.1l-1.832,0.682
	c-1.466,0.682-2.198,0-2.932-1.023l-3.298-7.505c-0.414-0.86-0.197-1.664,0.733-2.047l2.564-1.023
	c0.931-0.383,0.78-1.187,0.367-2.047l-2.199-4.093c-0.414-0.86-1.268-1.065-2.198-0.683c-1.86,0.767-3.398,1.968-4.396,3.752
	c-1.219,2.176-0.608,5.207-0.367,6.481c0.242,1.274,1.095,3.506,2.198,5.799c1.104,2.293,2.069,4.098,2.932,5.117
	s2.932,3.814,5.496,4.435c2.103,0.508,4.368,0.082,6.229-0.683c0.93-0.382,0.933-1.19,0.519-2.05L27.809,30.031z M26.5,24
	c0.828,0,1.5-0.671,1.5-1.5c0-0.828-0.672-1.5-1.5-1.5S25,21.672,25,22.5C25,23.329,25.672,24,26.5,24z M30.5,21
	c-0.828,0-1.5,0.672-1.5,1.5c0,0.829,0.672,1.5,1.5,1.5s1.5-0.671,1.5-1.5C32,21.672,31.328,21,30.5,21z M34.5,21
	c-0.828,0-1.5,0.672-1.5,1.5c0,0.829,0.672,1.5,1.5,1.5s1.5-0.671,1.5-1.5C36,21.672,35.328,21,34.5,21z"/>
</svg>