<?xml version="1.0" encoding="utf-8"?>
<!-- Generator: Adobe Illustrator 15.1.0, SVG Export Plug-In  -->
<!DOCTYPE svg PUBLIC "-//W3C//DTD SVG 1.1//EN" "http://www.w3.org/Graphics/SVG/1.1/DTD/svg11.dtd" [
	<!ENTITY ns_flows "http://ns.adobe.com/Flows/1.0/">
]>
<svg version="1.1"
	 xmlns="http://www.w3.org/2000/svg" xmlns:xlink="http://www.w3.org/1999/xlink" xmlns:a="http://ns.adobe.com/AdobeSVGViewerExtensions/3.0/"
	 x="0px" y="0px" width="48px" height="48px" viewBox="0 0 48 48" overflow="visible" enable-background="new 0 0 48 48"
	 xml:space="preserve">
<defs>
</defs>
<path fill-rule="evenodd" clip-rule="evenodd" fill="#FFFFFF" d="M30,16l-3-3h-2.5l3,3H30z M14,13h-1v3h4L14,13z M23.5,16l-3-3H18
	l3,3H23.5z M31,20h-4l3-3h-2.5l-3,3h-4l3-3H21l-3,3h-4l3-3h-4v16c0,1.104,0.896,2,2,2h18c1.104,0,2-0.896,2-2V17h-1L31,20z M21,32
	v-9l8,4.5L21,32z M31,13l3,3h1v-3H31z"/>
</svg>