<?xml version="1.0" encoding="utf-8"?>
<!-- Generator: Adobe Illustrator 15.1.0, SVG Export Plug-In  -->
<!DOCTYPE svg PUBLIC "-//W3C//DTD SVG 1.1//EN" "http://www.w3.org/Graphics/SVG/1.1/DTD/svg11.dtd" [
	<!ENTITY ns_flows "http://ns.adobe.com/Flows/1.0/">
]>
<svg version="1.1"
	 xmlns="http://www.w3.org/2000/svg" xmlns:xlink="http://www.w3.org/1999/xlink" xmlns:a="http://ns.adobe.com/AdobeSVGViewerExtensions/3.0/"
	 x="0px" y="0px" width="48px" height="48px" viewBox="0 0 48 48" overflow="visible" enable-background="new 0 0 48 48"
	 xml:space="preserve">
<defs>
</defs>
<path fill-rule="evenodd" clip-rule="evenodd" fill="#FFFFFF" d="M16.5,29.5L12,34l2,2l4.5-4.5L22,35v-9h-9L16.5,29.5z M35,26h-9v9
	l3.5-3.5L34,36l2-2l-4.5-4.5L35,26z M14,12l-2,2l4.5,4.5L13,22h9v-9l-3.5,3.5L14,12z M31.5,18.5L36,14l-2-2l-4.5,4.5L26,13v9h9
	L31.5,18.5z"/>
</svg>