<?xml version="1.0" encoding="utf-8"?>
<!-- Generator: Adobe Illustrator 15.1.0, SVG Export Plug-In  -->
<!DOCTYPE svg PUBLIC "-//W3C//DTD SVG 1.1//EN" "http://www.w3.org/Graphics/SVG/1.1/DTD/svg11.dtd" [
	<!ENTITY ns_flows "http://ns.adobe.com/Flows/1.0/">
]>
<svg version="1.1"
	 xmlns="http://www.w3.org/2000/svg" xmlns:xlink="http://www.w3.org/1999/xlink" xmlns:a="http://ns.adobe.com/AdobeSVGViewerExtensions/3.0/"
	 x="0px" y="0px" width="48px" height="48px" viewBox="0 0 48 48" overflow="visible" enable-background="new 0 0 48 48"
	 xml:space="preserve">
<defs>
</defs>
<path fill-rule="evenodd" clip-rule="evenodd" fill="#FFFFFF" d="M29.5,12c-3.59,0-6.5,2.91-6.5,6.5
	c0,0.749,0.133,1.465,0.366,2.134L13,31l-1,5h6v-2l1-1l1,1l2-2l-1-1l2-2l1,1l2-2l-1-1l2.366-2.366C28.035,24.867,28.751,25,29.5,25
	c3.59,0,6.5-2.91,6.5-6.5S33.09,12,29.5,12z M31,19c-1.104,0-2-0.896-2-2s0.896-2,2-2s2,0.896,2,2S32.104,19,31,19z"/>
</svg>