<?xml version="1.0" encoding="utf-8"?>
<!-- Generator: Adobe Illustrator 15.1.0, SVG Export Plug-In  -->
<!DOCTYPE svg PUBLIC "-//W3C//DTD SVG 1.1//EN" "http://www.w3.org/Graphics/SVG/1.1/DTD/svg11.dtd" [
	<!ENTITY ns_flows "http://ns.adobe.com/Flows/1.0/">
]>
<svg version="1.1"
	 xmlns="http://www.w3.org/2000/svg" xmlns:xlink="http://www.w3.org/1999/xlink" xmlns:a="http://ns.adobe.com/AdobeSVGViewerExtensions/3.0/"
	 x="0px" y="0px" width="48px" height="48px" viewBox="0 0 48 48" overflow="visible" enable-background="new 0 0 48 48"
	 xml:space="preserve">
<defs>
</defs>
<path fill-rule="evenodd" clip-rule="evenodd" fill="#FFFFFF" d="M32.822,14.81c-2.108-1.879-4.868-2.818-8.279-2.818
	c-3.686,0-6.699,1.21-9.039,3.631c-2.341,2.421-3.511,5.407-3.511,8.959c0,3.484,1.097,6.259,3.29,8.323
	C17.477,34.969,20.321,36,23.818,36c2.549,0,4.633-0.356,6.253-1.068v-2.796c-1.772,0.839-3.724,1.259-5.855,1.259
	c-2.795,0-4.986-0.781-6.574-2.343c-1.587-1.561-2.38-3.698-2.38-6.412c0-2.801,0.897-5.175,2.693-7.122
	c1.795-1.947,4.048-2.92,6.758-2.92c2.53,0,4.501,0.729,5.913,2.188c1.412,1.459,2.118,3.33,2.118,5.614
	c0,1.669-0.246,3.021-0.739,4.055c-0.493,1.035-1.118,1.552-1.876,1.552c-0.72,0-1.081-0.683-1.081-2.05
	c0-1.278,0.213-3.996,0.64-8.154H26.49l-0.142,1.45h-0.057c-0.36-1.143-1.246-1.713-2.658-1.713c-1.563,0-2.899,0.7-4.008,2.101
	c-1.109,1.4-1.663,3.219-1.663,5.453c0,1.728,0.4,3.079,1.201,4.056c0.8,0.976,1.854,1.464,3.162,1.464
	c1.744,0,2.947-0.933,3.61-2.797h0.085c0.047,0.83,0.365,1.504,0.953,2.021c0.587,0.518,1.35,0.776,2.288,0.776
	c1.904,0,3.501-0.764,4.79-2.291s1.933-3.556,1.933-6.083C35.984,19.165,34.93,16.688,32.822,14.81z M25.31,26.558
	c-0.512,0.986-1.213,1.479-2.104,1.479c-0.578,0-1.049-0.261-1.414-0.783c-0.365-0.521-0.547-1.251-0.547-2.188
	c0-1.317,0.268-2.477,0.803-3.477c0.535-1.001,1.229-1.501,2.082-1.501c0.587,0,1.059,0.225,1.414,0.674
	c0.355,0.448,0.533,1.063,0.533,1.845C26.078,24.255,25.822,25.572,25.31,26.558z"/>
</svg>