<?xml version="1.0" encoding="utf-8"?>
<!-- Generator: Adobe Illustrator 15.1.0, SVG Export Plug-In  -->
<!DOCTYPE svg PUBLIC "-//W3C//DTD SVG 1.1//EN" "http://www.w3.org/Graphics/SVG/1.1/DTD/svg11.dtd" [
	<!ENTITY ns_flows "http://ns.adobe.com/Flows/1.0/">
]>
<svg version="1.1"
	 xmlns="http://www.w3.org/2000/svg" xmlns:xlink="http://www.w3.org/1999/xlink" xmlns:a="http://ns.adobe.com/AdobeSVGViewerExtensions/3.0/"
	 x="0px" y="0px" width="48px" height="48px" viewBox="0 0 48 48" overflow="visible" enable-background="new 0 0 48 48"
	 xml:space="preserve">
<defs>
</defs>
<path fill-rule="evenodd" clip-rule="evenodd" fill="#FFFFFF" d="M30.8,18.115c-1.034,1.321-1.421,3.61-1.772,5.721
	C28.644,26.137,28.167,29,27.014,29c-1.152,0-1.63-2.863-2.014-5.164C24.466,20.631,23.86,17,21.014,17s-3.452,3.631-3.986,6.836
	c-0.25,1.501-0.544,3.228-1.036,4.257c0.335,0.653,0.746,1.26,1.225,1.809c1.043-1.319,1.432-3.618,1.784-5.736
	C19.384,21.864,19.861,19,21.014,19c1.153,0,1.63,2.863,2.014,5.165C23.562,27.368,24.167,31,27.014,31s3.452-3.632,3.986-6.835
	c0.248-1.488,0.538-3.199,1.021-4.231C31.688,19.276,31.277,18.667,30.8,18.115z M24,12c-6.627,0-12,5.373-12,12
	c0,6.628,5.373,12,12,12c6.628,0,12-5.372,12-12C36,17.373,30.628,12,24,12z M24,34c-5.522,0-10-4.478-10-10s4.478-10,10-10
	c5.523,0,10,4.478,10,10C34,29.523,29.523,34,24,34z"/>
</svg>