<?xml version="1.0" encoding="utf-8"?>
<!-- Generator: Adobe Illustrator 15.1.0, SVG Export Plug-In  -->
<!DOCTYPE svg PUBLIC "-//W3C//DTD SVG 1.1//EN" "http://www.w3.org/Graphics/SVG/1.1/DTD/svg11.dtd" [
	<!ENTITY ns_flows "http://ns.adobe.com/Flows/1.0/">
]>
<svg version="1.1"
	 xmlns="http://www.w3.org/2000/svg" xmlns:xlink="http://www.w3.org/1999/xlink" xmlns:a="http://ns.adobe.com/AdobeSVGViewerExtensions/3.0/"
	 x="0px" y="0px" width="48px" height="48px" viewBox="0 0 48 48" enable-background="new 0 0 48 48" xml:space="preserve">
<defs>
</defs>
<path fill-rule="evenodd" clip-rule="evenodd" fill="#FFFFFF" d="M21,23h6v-2h-6V23z M21,27h6v-2h-6V27z M21,31h6v-2h-6V31z M21,35
	h6v-2h-6V35z M29,31h6v-2h-6V31z M29,35h6v-2h-6V35z M29,23h6v-2h-6V23z M29,17v2h6v-2H29z M29,27h6v-2h-6V27z M13,23h6v-2h-6V23z
	 M13,27h6v-2h-6V27z M13,31h6v-2h-6V31z M13,15h6v-2h-6V15z M13,19h6v-2h-6V19z M13,35h6v-2h-6V35z"/>
</svg>