<?xml version="1.0" encoding="utf-8"?>
<!-- Generator: Adobe Illustrator 15.1.0, SVG Export Plug-In  -->
<!DOCTYPE svg PUBLIC "-//W3C//DTD SVG 1.1//EN" "http://www.w3.org/Graphics/SVG/1.1/DTD/svg11.dtd" [
	<!ENTITY ns_flows "http://ns.adobe.com/Flows/1.0/">
]>
<svg version="1.1"
	 xmlns="http://www.w3.org/2000/svg" xmlns:xlink="http://www.w3.org/1999/xlink" xmlns:a="http://ns.adobe.com/AdobeSVGViewerExtensions/3.0/"
	 x="0px" y="0px" width="48px" height="48px" viewBox="0 0 48 48" overflow="visible" enable-background="new 0 0 48 48"
	 xml:space="preserve">
<defs>
</defs>
<path fill-rule="evenodd" clip-rule="evenodd" fill="#FFFFFF" d="M39.843,19.254c-2.175-0.443-4.32-1.262-6.539-1.247
	c-1.269,0.009-2.546,0.229-3.807,0.438c-1.412,0.234-2.779,0.758-4.191,0.955c-0.456,0.063-0.916,0.086-1.377,0.086
	s-0.922-0.022-1.377-0.086c-1.412-0.197-2.779-0.721-4.19-0.955c-1.262-0.209-2.538-0.429-3.808-0.438
	c-2.219-0.015-4.363,0.804-6.538,1.247c0,0.75-0.13,1.713,0.195,2.24c0.336,0.545,0.901,1.042,1.048,1.78
	c0.349,1.748,0.842,3.462,1.474,5.105c0.307,0.798,0.887,1.355,1.533,1.738c1.559,0.924,3.402,1.06,5.111,0.77
	c2.434-0.414,3.755-2.568,4.762-5.031c0.378-1,0.42-2.155,0.916-3.07c0.186-0.342,0.525-0.378,0.874-0.358
	c0.349-0.02,0.688,0.017,0.874,0.358c0.497,0.915,0.538,2.07,0.916,3.07c1.008,2.463,2.327,4.617,4.762,5.031
	c1.709,0.29,3.553,0.154,5.11-0.77c0.648-0.383,1.227-0.94,1.534-1.738c0.632-1.644,1.126-3.357,1.474-5.105
	c0.146-0.738,0.713-1.235,1.048-1.78C39.972,20.967,39.843,20.004,39.843,19.254z M20.71,26.268
	c-1.21,2.955-3.381,3.575-4.988,3.575c-0.625,0-1.279-0.095-1.946-0.282c-1.188-0.333-2.073-1.324-2.492-2.789
	c-0.561-1.958-0.79-3.528-0.725-4.943c0.086-1.832,1.735-2.202,3.566-2.444c0.854-0.113,1.539-0.168,2.156-0.173h0.006
	c0.828,0,1.483,0.074,2.091,0.226c1.773,0.443,2.78,1.055,3.169,1.926C21.98,22.337,21.738,23.758,20.71,26.268z M36.575,26.771
	c-0.42,1.465-1.305,2.456-2.493,2.789c-0.667,0.188-1.321,0.282-1.946,0.282c-1.607,0-3.778-0.62-4.988-3.575
	c-1.028-2.51-1.271-3.931-0.836-4.905c0.388-0.871,1.395-1.482,3.169-1.926c0.607-0.151,1.262-0.226,2.091-0.226h0.005
	c0.616,0.005,1.303,0.06,2.156,0.173c1.831,0.242,3.48,0.612,3.565,2.444C37.364,23.243,37.134,24.813,36.575,26.771z"/>
</svg>