<?xml version="1.0" encoding="utf-8"?>
<!-- Generator: Adobe Illustrator 15.1.0, SVG Export Plug-In  -->
<!DOCTYPE svg PUBLIC "-//W3C//DTD SVG 1.1//EN" "http://www.w3.org/Graphics/SVG/1.1/DTD/svg11.dtd" [
	<!ENTITY ns_flows "http://ns.adobe.com/Flows/1.0/">
]>
<svg version="1.1"
	 xmlns="http://www.w3.org/2000/svg" xmlns:xlink="http://www.w3.org/1999/xlink" xmlns:a="http://ns.adobe.com/AdobeSVGViewerExtensions/3.0/"
	 x="0px" y="0px" width="48px" height="48px" viewBox="0 0 48 48" overflow="visible" enable-background="new 0 0 48 48"
	 xml:space="preserve">
<defs>
</defs>
<path fill-rule="evenodd" clip-rule="evenodd" fill="#FFFFFF" d="M34,29H14c-1.104,0-2,0.896-2,2v2c0,1.104,0.896,2,2,2h20
	c1.104,0,2-0.896,2-2v-2C36,29.896,35.104,29,34,29z M16,33h-2v-2h2V33z M30,33h-1v-2h1V33z M32,33h-1v-2h1V33z M34,33h-1v-2h1V33z
	 M34,21H14c-1.104,0-2,0.896-2,2v2c0,1.104,0.896,2,2,2h20c1.104,0,2-0.896,2-2v-2C36,21.896,35.104,21,34,21z M16,25h-2v-2h2V25z
	 M30,25h-1v-2h1V25z M32,25h-1v-2h1V25z M34,25h-1v-2h1V25z M34,13H14c-1.104,0-2,0.896-2,2v2c0,1.104,0.896,2,2,2h20
	c1.104,0,2-0.896,2-2v-2C36,13.896,35.104,13,34,13z M16,17h-2v-2h2V17z M30,17h-1v-2h1V17z M32,17h-1v-2h1V17z M34,17h-1v-2h1V17z"
	/>
</svg>