<?xml version="1.0" encoding="utf-8"?>
<!-- Generator: Adobe Illustrator 15.1.0, SVG Export Plug-In  -->
<!DOCTYPE svg PUBLIC "-//W3C//DTD SVG 1.1//EN" "http://www.w3.org/Graphics/SVG/1.1/DTD/svg11.dtd" [
	<!ENTITY ns_flows "http://ns.adobe.com/Flows/1.0/">
]>
<svg version="1.1"
	 xmlns="http://www.w3.org/2000/svg" xmlns:xlink="http://www.w3.org/1999/xlink" xmlns:a="http://ns.adobe.com/AdobeSVGViewerExtensions/3.0/"
	 x="0px" y="0px" width="48px" height="48px" viewBox="0 0 48 48" overflow="visible" enable-background="new 0 0 48 48"
	 xml:space="preserve">
<defs>
</defs>
<path fill-rule="evenodd" clip-rule="evenodd" fill="#FFFFFF" d="M33.703,24.191l3.294-1.374l-1.004-4.225L32.3,18.988
	c-0.373-0.629-0.805-1.203-1.29-1.717l1.364-3.315l-3.696-2.28l-2.306,2.867c-0.799-0.21-1.622-0.314-2.454-0.319l-1.445-3.219
	l-4.197,1.127l0.493,3.562c-0.58,0.359-1.111,0.769-1.584,1.217l-3.187-1.313l-2.278,3.698l2.743,2.218
	c-0.2,0.755-0.318,1.538-0.335,2.327l-3.124,1.298l1.007,4.23l3.487-0.375c0.403,0.7,0.875,1.334,1.422,1.893l-1.285,3.116
	l3.695,2.278l2.216-2.75c0.752,0.187,1.518,0.291,2.3,0.299l1.312,3.167l4.223-1.007L29,32.396c0.653-0.398,1.255-0.854,1.773-1.368
	l3.237,1.334l2.277-3.701l-2.865-2.312C33.595,25.644,33.692,24.92,33.703,24.191z M24,30.014c-3.308,0-5.989-2.692-5.989-6.014
	s2.682-6.014,5.989-6.014s5.989,2.692,5.989,6.014S27.308,30.014,24,30.014z M24,21.99c-1.11,0-2.01,0.9-2.01,2.01
	c0,1.11,0.9,2.01,2.01,2.01s2.01-0.899,2.01-2.01C26.01,22.891,25.11,21.99,24,21.99z"/>
</svg>