<?xml version="1.0" encoding="utf-8"?>
<!-- Generator: Adobe Illustrator 15.1.0, SVG Export Plug-In  -->
<!DOCTYPE svg PUBLIC "-//W3C//DTD SVG 1.1//EN" "http://www.w3.org/Graphics/SVG/1.1/DTD/svg11.dtd" [
	<!ENTITY ns_flows "http://ns.adobe.com/Flows/1.0/">
]>
<svg version="1.1"
	 xmlns="http://www.w3.org/2000/svg" xmlns:xlink="http://www.w3.org/1999/xlink" xmlns:a="http://ns.adobe.com/AdobeSVGViewerExtensions/3.0/"
	 x="0px" y="0px" width="48px" height="48px" viewBox="0 0 48 48" overflow="visible" enable-background="new 0 0 48 48"
	 xml:space="preserve">
<defs>
</defs>
<path fill-rule="evenodd" clip-rule="evenodd" fill="#FFFFFF" d="M20,32c0,0-2,2-3,2c-1.657,0-3-1.343-3-3c0-1,2-3,2-3l3.908-3.908
	C19.613,24.037,19.312,24,19,24c-1.144,0-2.163,0.351-3,1l-3,3c-0.624,0.827-1,1.881-1,3c0,2.762,2.238,5,5,5
	c1.126,0,2.17-0.369,3-1l3-3c0.636-0.831,1-1.87,1-3c0-0.312-0.037-0.613-0.092-0.908L20,32z M31,12c-1.125,0-2.17,0.369-3,1l-3,3
	c-0.636,0.832-1,1.87-1,3c0,0.312,0.037,0.613,0.092,0.908L28,16c0,0,2-2,3-2c1.657,0,3,1.343,3,3c0,1-2,3-2,3l-3.908,3.908
	C28.387,23.963,28.688,24,29,24c1.144,0,2.163-0.351,3-1l3-3c0.624-0.827,1-1.881,1-3C36,14.238,33.762,12,31,12z M19,27.5
	c0,0.828,0.672,1.5,1.5,1.5c0.591,0,1.097-0.345,1.342-0.842l6.316-6.316C28.655,21.597,29,21.091,29,20.5
	c0-0.828-0.672-1.5-1.5-1.5c-0.591,0-1.097,0.345-1.342,0.842l-6.316,6.316C19.345,26.403,19,26.909,19,27.5z"/>
</svg>