<?xml version="1.0" encoding="utf-8"?>
<!-- Generator: Adobe Illustrator 15.1.0, SVG Export Plug-In  -->
<!DOCTYPE svg PUBLIC "-//W3C//DTD SVG 1.1//EN" "http://www.w3.org/Graphics/SVG/1.1/DTD/svg11.dtd" [
	<!ENTITY ns_flows "http://ns.adobe.com/Flows/1.0/">
]>
<svg version="1.1"
	 xmlns="http://www.w3.org/2000/svg" xmlns:xlink="http://www.w3.org/1999/xlink" xmlns:a="http://ns.adobe.com/AdobeSVGViewerExtensions/3.0/"
	 x="0px" y="0px" width="48px" height="48px" viewBox="0 0 48 48" overflow="visible" enable-background="new 0 0 48 48"
	 xml:space="preserve">
<defs>
</defs>
<path fill-rule="evenodd" clip-rule="evenodd" fill="#FFFFFF" d="M31.487,27.262c-0.343-0.686-0.808-1.309-1.395-1.87
	c-0.586-0.562-1.266-1.074-2.038-1.539c-0.773-0.464-1.595-0.907-2.466-1.328C25.38,22.439,25.196,22.36,25,22.278v-7.055
	c0.149-0.006,0.299-0.02,0.449-0.02c2.23,0,4.133,0.846,5.551,1.796v-4c-1.196-0.551-3.243-1-5.857-1
	c-0.049,0-0.094,0.008-0.143,0.008V10h-2v2.175c-0.391,0.058-0.78,0.112-1.176,0.203c-1.104,0.254-2.088,0.643-2.953,1.166
	c-0.866,0.523-1.563,1.188-2.092,1.992s-0.793,1.752-0.793,2.843c0,0.885,0.154,1.657,0.462,2.315
	c0.308,0.659,0.732,1.25,1.272,1.773c0.54,0.524,1.176,1.002,1.908,1.434c0.731,0.432,1.521,0.858,2.37,1.279
	c0.345,0.146,0.676,0.288,1.001,0.429v7.178c-0.179,0.007-0.342,0.022-0.531,0.022c-0.499,0-1.045-0.049-1.638-0.146
	c-0.593-0.097-1.185-0.234-1.777-0.413c-0.593-0.178-1.153-0.396-1.682-0.655c-0.529-0.26-0.984-0.551-1.368-0.875L16,34.8
	c0.349,0.205,0.812,0.276,1.381,0.438s1.173,0.3,1.812,0.413c0.639,0.113,1.263,0.2,1.873,0.259c0.609,0.06,1.372,0.09,1.791,0.09
	c0.05,0,0.094-0.003,0.143-0.004V38h2v-2.143c0.385-0.053,0.771-0.115,1.181-0.198c1.127-0.227,2.123-0.593,2.989-1.101
	c0.865-0.508,1.554-1.166,2.064-1.977c0.512-0.81,0.767-1.803,0.767-2.979C32.001,28.728,31.83,27.948,31.487,27.262z
	 M21.711,20.646c-0.447-0.312-0.787-0.658-1.02-1.036s-0.349-0.826-0.349-1.345c0-0.55,0.151-1.02,0.453-1.408
	c0.303-0.389,0.694-0.708,1.177-0.956c0.312-0.161,0.661-0.281,1.027-0.383v5.866C22.512,21.143,22.07,20.897,21.711,20.646z
	 M26.364,31.999c-0.367,0.232-0.833,0.404-1.364,0.536v-6.012c0.37,0.191,0.719,0.385,1.024,0.585
	c0.511,0.335,0.908,0.704,1.193,1.109c0.284,0.404,0.427,0.883,0.427,1.433C27.645,30.677,27.218,31.459,26.364,31.999z"/>
</svg>