<?xml version="1.0" encoding="utf-8"?>
<!-- Generator: Adobe Illustrator 15.1.0, SVG Export Plug-In  -->
<!DOCTYPE svg PUBLIC "-//W3C//DTD SVG 1.1//EN" "http://www.w3.org/Graphics/SVG/1.1/DTD/svg11.dtd" [
	<!ENTITY ns_flows "http://ns.adobe.com/Flows/1.0/">
]>
<svg version="1.1"
	 xmlns="http://www.w3.org/2000/svg" xmlns:xlink="http://www.w3.org/1999/xlink" xmlns:a="http://ns.adobe.com/AdobeSVGViewerExtensions/3.0/"
	 x="0px" y="0px" width="48px" height="48px" viewBox="0 0 48 48" overflow="visible" enable-background="new 0 0 48 48"
	 xml:space="preserve">
<defs>
</defs>
<path fill-rule="evenodd" clip-rule="evenodd" fill="#FFFFFF" d="M30,15v8h8v-8H30z M36,21h-4v-4h4V21z M10,33h8v-8h-8V33z M12,27h4
	v4h-4V27z M10,23h8v-8h-8V23z M12,17h4v4h-4V17z M20,23h8v-8h-8V23z M22,17h4v4h-4V17z M20,33h8v-8h-8V33z M22,27h4v4h-4V27z M30,33
	h8v-8h-8V33z M32,27h4v4h-4V27z"/>
</svg>