<?xml version="1.0" encoding="utf-8"?>
<!-- Generator: Adobe Illustrator 15.1.0, SVG Export Plug-In  -->
<!DOCTYPE svg PUBLIC "-//W3C//DTD SVG 1.1//EN" "http://www.w3.org/Graphics/SVG/1.1/DTD/svg11.dtd" [
	<!ENTITY ns_flows "http://ns.adobe.com/Flows/1.0/">
]>
<svg version="1.1"
	 xmlns="http://www.w3.org/2000/svg" xmlns:xlink="http://www.w3.org/1999/xlink" xmlns:a="http://ns.adobe.com/AdobeSVGViewerExtensions/3.0/"
	 x="0px" y="0px" width="48px" height="48px" viewBox="0 0 48 48" overflow="visible" enable-background="new 0 0 48 48"
	 xml:space="preserve">
<defs>
</defs>
<path fill-rule="evenodd" clip-rule="evenodd" fill="#FFFFFF" d="M24,19h-4.87c1.26-1.23,2.97-2,4.87-2c3.523,0,6.41,2.612,6.899,6
	h4.05C34.443,17.395,29.738,13,24,13c-3.167,0-5.996,1.36-8,3.504V11l-3,3v8h8L24,19z M27,26l-3,3h4.87c-1.259,1.23-2.97,2-4.87,2
	c-3.523,0-6.41-2.612-6.899-6h-4.05c0.506,5.606,5.212,10,10.95,10c3.167,0,5.996-1.36,8-3.504V37l3-3v-8H27z"/>
</svg>