<?xml version="1.0" encoding="utf-8"?>
<!-- Generator: Adobe Illustrator 15.1.0, SVG Export Plug-In  -->
<!DOCTYPE svg PUBLIC "-//W3C//DTD SVG 1.1//EN" "http://www.w3.org/Graphics/SVG/1.1/DTD/svg11.dtd" [
	<!ENTITY ns_flows "http://ns.adobe.com/Flows/1.0/">
]>
<svg version="1.1"
	 xmlns="http://www.w3.org/2000/svg" xmlns:xlink="http://www.w3.org/1999/xlink" xmlns:a="http://ns.adobe.com/AdobeSVGViewerExtensions/3.0/"
	 x="0px" y="0px" width="48px" height="48px" viewBox="0 0 48 48" overflow="visible" enable-background="new 0 0 48 48"
	 xml:space="preserve">
<defs>
</defs>
<path fill-rule="evenodd" clip-rule="evenodd" fill="#FFFFFF" d="M36,17h-6.333L29,15c0-1.104-0.896-2-2-2h-6c-1.104,0-2,0.896-2,2
	l-0.667,2H12c-1.104,0-2,0.896-2,2v12c0,1.104,0.896,2,2,2h24c1.104,0,2-0.896,2-2V19C38,17.896,37.104,17,36,17z M24,31
	c-3.313,0-6-2.687-6-6s2.687-6,6-6s6,2.687,6,6S27.313,31,24,31z M36,21c0,0.553-0.447,1-1,1h-1c-0.553,0-1-0.447-1-1v-1
	c0-0.553,0.447-1,1-1h1c0.553,0,1,0.447,1,1V21z M24,21c-2.209,0-4,1.791-4,4s1.791,4,4,4s4-1.791,4-4S26.209,21,24,21z"/>
</svg>