<?xml version="1.0" encoding="utf-8"?>
<!-- Generator: Adobe Illustrator 15.1.0, SVG Export Plug-In  -->
<!DOCTYPE svg PUBLIC "-//W3C//DTD SVG 1.1//EN" "http://www.w3.org/Graphics/SVG/1.1/DTD/svg11.dtd" [
	<!ENTITY ns_flows "http://ns.adobe.com/Flows/1.0/">
]>
<svg version="1.1"
	 xmlns="http://www.w3.org/2000/svg" xmlns:xlink="http://www.w3.org/1999/xlink" xmlns:a="http://ns.adobe.com/AdobeSVGViewerExtensions/3.0/"
	 x="0px" y="0px" width="48px" height="48px" viewBox="0 0 48 48" overflow="visible" enable-background="new 0 0 48 48"
	 xml:space="preserve">
<defs>
</defs>
<path fill-rule="evenodd" clip-rule="evenodd" fill="#FFFFFF" d="M29,14v3.509c0.148,0.043,0.294,0.085,0.445,0.128
	c1.924,0.548,3.912,1.116,4.889,1.99c1.137,1.019,0.379,2.363-0.29,3.549C33.53,24.086,33,25.027,33,26h-1
	c0-1.235,0.623-2.34,1.173-3.315c0.733-1.3,0.983-1.874,0.493-2.312c-0.804-0.721-2.765-1.28-4.494-1.773
	c-0.059-0.017-0.114-0.033-0.172-0.049V36l7-2V12L29,14z M35,31l-1,1l-1.5-1.5L31,32l-1-1l1.5-1.5L30,28l1-1l1.5,1.5L34,27l1,1
	l-1.5,1.5L35,31z M20,28.246c0.742-0.404,1.617-0.568,2.658-0.221c0.685,0.229,0.89-0.037,0.976-0.15C24.016,27.375,24.106,27,24,27
	c0.339,0,0.696,0.104,1,0c0,0.5-0.187,0.979-0.572,1.481c-0.27,0.354-0.901,0.887-2.086,0.493c-0.917-0.305-1.66-0.055-2.342,0.481
	V34l8,2V18.257c-0.854-0.255-1.633-0.514-2.224-0.81c-0.986-0.492-2.39-0.316-3.004,0.379c-0.528,0.598-0.213,1.361,0.144,1.896
	c0.166,0.25,0.426,0.974,0.584,1.277c-0.336,0.068-0.715-0.171-1,0c-0.124-0.229-0.28-0.519-0.416-0.723
	c-0.768-1.152-0.79-2.287-0.062-3.113c0.917-1.038,2.801-1.312,4.201-0.612c0.463,0.231,1.087,0.446,1.776,0.659V14l-8-2V28.246z
	 M24,22c1.104,0,2,0.896,2,2s-0.896,2-2,2s-2-0.896-2-2S22.896,22,24,22z M12,36l7-2v-3.5c-0.194,0.233-0.389,0.438-0.584,0.695
	c-0.446,0.59-0.799,1.055-1.192,1.252c-0.232,0.116-0.47,0.167-0.706,0.167c-1.11,0-2.222-1.111-2.871-1.761
	c-0.826-0.826-0.159-1.845,0.43-2.743C14.51,27.45,15,26.701,15,26v-4h1v4c0,1-0.577,1.881-1.087,2.659
	c-0.572,0.871-0.775,1.271-0.56,1.487c0.812,0.812,1.821,1.71,2.423,1.406c0.185-0.092,0.534-0.554,0.842-0.961
	C18,30.089,18.453,29.511,19,29V12l-7,2V36z M15.5,18c0.828,0,1.5,0.671,1.5,1.5S16.328,21,15.5,21S14,20.329,14,19.5
	S14.672,18,15.5,18z"/>
</svg>