<?xml version="1.0" encoding="utf-8"?>
<!-- Generator: Adobe Illustrator 15.1.0, SVG Export Plug-In  -->
<!DOCTYPE svg PUBLIC "-//W3C//DTD SVG 1.1//EN" "http://www.w3.org/Graphics/SVG/1.1/DTD/svg11.dtd" [
	<!ENTITY ns_flows "http://ns.adobe.com/Flows/1.0/">
]>
<svg version="1.1"
	 xmlns="http://www.w3.org/2000/svg" xmlns:xlink="http://www.w3.org/1999/xlink" xmlns:a="http://ns.adobe.com/AdobeSVGViewerExtensions/3.0/"
	 x="0px" y="0px" width="48px" height="48px" viewBox="0 0 48 48" overflow="visible" enable-background="new 0 0 48 48"
	 xml:space="preserve">
<defs>
</defs>
<path fill-rule="evenodd" clip-rule="evenodd" fill="#FFFFFF" d="M24,32c-2.762,0-5.28-1.025-7.211-2.707L15,36h18l-1.789-6.707
	C29.28,30.975,26.762,32,24,32z M24,25c2.209,0,4-1.791,4-4s-1.791-4-4-4s-4,1.791-4,4S21.791,25,24,25z M23,19c0.552,0,1,0.447,1,1
	s-0.448,1-1,1s-1-0.447-1-1S22.448,19,23,19z M24,30c4.971,0,9-4.029,9-9s-4.029-9-9-9s-9,4.029-9,9S19.029,30,24,30z M24,15
	c3.313,0,6,2.687,6,6s-2.687,6-6,6s-6-2.687-6-6S20.687,15,24,15z"/>
</svg>