<?xml version="1.0" encoding="utf-8"?>
<!-- Generator: Adobe Illustrator 15.1.0, SVG Export Plug-In  -->
<!DOCTYPE svg PUBLIC "-//W3C//DTD SVG 1.1//EN" "http://www.w3.org/Graphics/SVG/1.1/DTD/svg11.dtd" [
	<!ENTITY ns_flows "http://ns.adobe.com/Flows/1.0/">
]>
<svg version="1.1"
	 xmlns="http://www.w3.org/2000/svg" xmlns:xlink="http://www.w3.org/1999/xlink" xmlns:a="http://ns.adobe.com/AdobeSVGViewerExtensions/3.0/"
	 x="0px" y="0px" width="48px" height="48px" viewBox="0 0 48 48" overflow="visible" enable-background="new 0 0 48 48"
	 xml:space="preserve">
<defs>
</defs>
<path fill-rule="evenodd" clip-rule="evenodd" fill="#FFFFFF" d="M19.647,27.014C19.78,28.106,20.813,29,21.944,29h4.113
	c1.131,0,2.165-0.894,2.296-1.986l0.549-4.527c0.131-1.092,0.131-2.88,0-3.973l-0.549-4.527C28.222,12.894,27.188,12,26.057,12
	h-4.113c-1.131,0-2.164,0.895-2.297,1.986l-0.548,4.527c-0.132,1.093-0.132,2.881,0,3.973L19.647,27.014z M31.994,20h-1.999
	c0.019,0.915-0.015,1.885-0.101,2.605l-0.549,4.528C29.153,28.74,27.708,30,26.057,30h-4.113c-1.649,0-3.094-1.259-3.29-2.865
	l-0.548-4.528c-0.087-0.721-0.121-1.69-0.102-2.606h-1.999c-0.02,0.998,0.018,2.045,0.115,2.847l0.548,4.529
	C16.984,29.969,19.301,32,21.944,32H23v2h-3v2h8v-2h-3v-2h1.057c2.647,0,4.964-2.033,5.274-4.626l0.549-4.53
	C31.976,22.043,32.014,20.998,31.994,20z"/>
</svg>