<?xml version="1.0" encoding="utf-8"?>
<!-- Generator: Adobe Illustrator 15.1.0, SVG Export Plug-In  -->
<!DOCTYPE svg PUBLIC "-//W3C//DTD SVG 1.1//EN" "http://www.w3.org/Graphics/SVG/1.1/DTD/svg11.dtd" [
	<!ENTITY ns_flows "http://ns.adobe.com/Flows/1.0/">
]>
<svg version="1.1"
	 xmlns="http://www.w3.org/2000/svg" xmlns:xlink="http://www.w3.org/1999/xlink" xmlns:a="http://ns.adobe.com/AdobeSVGViewerExtensions/3.0/"
	 x="0px" y="0px" width="48px" height="48px" viewBox="0 0 48 48" overflow="visible" enable-background="new 0 0 48 48"
	 xml:space="preserve">
<defs>
</defs>
<path fill-rule="evenodd" clip-rule="evenodd" fill="#FFFFFF" d="M22,13h-9v9l3.5-3.5L21,23l2-2l-4.5-4.5L22,13z M21,25l-4.5,4.5
	L13,26v9h9l-3.5-3.5L23,27L21,25z M26,13l3.5,3.5L25,21l2,2l4.5-4.5L35,22v-9H26z M27,25l-2,2l4.5,4.5L26,35h9v-9l-3.5,3.5L27,25z"
	/>
</svg>