<?xml version="1.0" encoding="utf-8"?>
<!-- Generator: Adobe Illustrator 15.1.0, SVG Export Plug-In  -->
<!DOCTYPE svg PUBLIC "-//W3C//DTD SVG 1.1//EN" "http://www.w3.org/Graphics/SVG/1.1/DTD/svg11.dtd" [
	<!ENTITY ns_flows "http://ns.adobe.com/Flows/1.0/">
]>
<svg version="1.1"
	 xmlns="http://www.w3.org/2000/svg" xmlns:xlink="http://www.w3.org/1999/xlink" xmlns:a="http://ns.adobe.com/AdobeSVGViewerExtensions/3.0/"
	 x="0px" y="0px" width="48px" height="48px" viewBox="0 0 48 48" overflow="visible" enable-background="new 0 0 48 48"
	 xml:space="preserve">
<defs>
</defs>
<path fill-rule="evenodd" clip-rule="evenodd" fill="#FFFFFF" d="M12.004,12.004v23.992h23.992V12.004H12.004z M15,35h-2v-2h2V35z
	 M15,31h-2v-2h2V31z M15,27h-2v-2h2V27z M15,23h-2v-2h2V23z M15,19h-2v-2h2V19z M15,15h-2v-2h2V15z M32,34H16v-9h16V34z M32,23H16
	v-9h16V23z M35,35h-2v-2h2V35z M35,31h-2v-2h2V31z M35,27h-2v-2h2V27z M35,23h-2v-2h2V23z M35,19h-2v-2h2V19z M35,15h-2v-2h2V15z"/>
</svg>