<?xml version="1.0" encoding="utf-8"?>
<!-- Generator: Adobe Illustrator 15.1.0, SVG Export Plug-In  -->
<!DOCTYPE svg PUBLIC "-//W3C//DTD SVG 1.1//EN" "http://www.w3.org/Graphics/SVG/1.1/DTD/svg11.dtd" [
	<!ENTITY ns_flows "http://ns.adobe.com/Flows/1.0/">
]>
<svg version="1.1"
	 xmlns="http://www.w3.org/2000/svg" xmlns:xlink="http://www.w3.org/1999/xlink" xmlns:a="http://ns.adobe.com/AdobeSVGViewerExtensions/3.0/"
	 x="0px" y="0px" width="48px" height="48px" viewBox="0 0 48 48" overflow="visible" enable-background="new 0 0 48 48"
	 xml:space="preserve">
<defs>
</defs>
<path fill-rule="evenodd" clip-rule="evenodd" fill="#FFFFFF" d="M24,12c-6.627,0-12,5.373-12,12c0,6.628,5.373,12,12,12
	s12-5.372,12-12C36,17.373,30.627,12,24,12z M25,32.941V29h-2v3.939c-4.17-0.462-7.479-3.769-7.941-7.939H19v-2h-3.939
	c0.462-4.17,3.769-7.479,7.939-7.941V19h2v-3.941c4.171,0.462,7.478,3.771,7.939,7.941H29v2h3.939
	C32.478,29.17,29.171,32.479,25,32.941z"/>
</svg>