<?xml version="1.0" encoding="utf-8"?>
<!-- Generator: Adobe Illustrator 15.1.0, SVG Export Plug-In  -->
<!DOCTYPE svg PUBLIC "-//W3C//DTD SVG 1.1//EN" "http://www.w3.org/Graphics/SVG/1.1/DTD/svg11.dtd" [
	<!ENTITY ns_flows "http://ns.adobe.com/Flows/1.0/">
]>
<svg version="1.1"
	 xmlns="http://www.w3.org/2000/svg" xmlns:xlink="http://www.w3.org/1999/xlink" xmlns:a="http://ns.adobe.com/AdobeSVGViewerExtensions/3.0/"
	 x="0px" y="0px" width="48px" height="48px" viewBox="0 0 48 48" overflow="visible" enable-background="new 0 0 48 48"
	 xml:space="preserve">
<defs>
</defs>
<path fill-rule="evenodd" clip-rule="evenodd" fill="#FFFFFF" d="M33,13H21c-1.104,0-2,0.896-2,2v12c0,1.104,0.896,2,2,2h12
	c1.104,0,2-0.896,2-2V15C35,13.896,34.104,13,33,13z M32,22H22v-2h10V22z M17,27v-8h-2c-1.104,0-2,0.896-2,2v12c0,1.104,0.896,2,2,2
	h12c1.104,0,2-0.896,2-2v-2h-8C18.791,31,17,29.209,17,27z"/>
</svg>