<?xml version="1.0" encoding="utf-8"?>
<!-- Generator: Adobe Illustrator 15.1.0, SVG Export Plug-In  -->
<!DOCTYPE svg PUBLIC "-//W3C//DTD SVG 1.1//EN" "http://www.w3.org/Graphics/SVG/1.1/DTD/svg11.dtd" [
	<!ENTITY ns_flows "http://ns.adobe.com/Flows/1.0/">
]>
<svg version="1.1"
	 xmlns="http://www.w3.org/2000/svg" xmlns:xlink="http://www.w3.org/1999/xlink" xmlns:a="http://ns.adobe.com/AdobeSVGViewerExtensions/3.0/"
	 x="0px" y="0px" width="48px" height="48px" viewBox="0 0 48 48" overflow="visible" enable-background="new 0 0 48 48"
	 xml:space="preserve">
<defs>
</defs>
<path fill-rule="evenodd" clip-rule="evenodd" fill="#FFFFFF" d="M24,12c-6.627,0-12,5.373-12,12c0,6.628,5.373,12,12,12
	c6.628,0,12-5.372,12-12C36,17.373,30.628,12,24,12z M24,32c-4.418,0-8-3.582-8-8s3.582-8,8-8s8,3.582,8,8S28.418,32,24,32z M24,20
	c-2.209,0-4,1.791-4,4s1.791,4,4,4s4-1.791,4-4S26.209,20,24,20z"/>
</svg>