<?xml version="1.0" encoding="utf-8"?>
<!-- Generator: Adobe Illustrator 15.1.0, SVG Export Plug-In  -->
<!DOCTYPE svg PUBLIC "-//W3C//DTD SVG 1.1//EN" "http://www.w3.org/Graphics/SVG/1.1/DTD/svg11.dtd" [
	<!ENTITY ns_flows "http://ns.adobe.com/Flows/1.0/">
]>
<svg version="1.1"
	 xmlns="http://www.w3.org/2000/svg" xmlns:xlink="http://www.w3.org/1999/xlink" xmlns:a="http://ns.adobe.com/AdobeSVGViewerExtensions/3.0/"
	 x="0px" y="0px" width="48px" height="48px" viewBox="0 0 48 48" overflow="visible" enable-background="new 0 0 48 48"
	 xml:space="preserve">
<defs>
</defs>
<path fill-rule="evenodd" clip-rule="evenodd" fill="#FFFFFF" d="M22.902,28.098c-0.487-0.844-0.9-1.708-1.274-2.582
	c-1.646,2.812-2.705,5.929-3.116,9.146c3.149,1.617,6.949,1.805,10.349,0.294C26.522,33.119,24.479,30.83,22.902,28.098z
	 M24.126,26.812c1.613,2.831,3.782,5.307,6.363,7.272c2.976-1.919,5.037-5.116,5.429-8.815C33.159,26.375,30.154,27,27,27
	C26.025,27,25.07,26.925,24.126,26.812z M21.502,22.703c-3.26-0.019-6.487,0.622-9.479,1.874c0.174,3.537,1.911,6.921,4.92,9.109
	c0.421-2.942,1.382-5.856,2.96-8.589C20.39,24.254,20.932,23.465,21.502,22.703z M23.874,21.188
	c-1.613-2.832-3.782-5.308-6.363-7.272c-2.976,1.918-5.037,5.115-5.429,8.814C14.841,21.625,17.846,21,21,21
	C21.975,21,22.93,21.075,23.874,21.188z M25.098,19.902c0.487,0.844,0.9,1.709,1.274,2.582c1.646-2.812,2.705-5.929,3.117-9.146
	c-3.15-1.617-6.95-1.805-10.349-0.294C21.478,14.881,23.521,17.17,25.098,19.902z M26.498,25.297
	c3.26,0.019,6.487-0.622,9.479-1.874c-0.174-3.537-1.911-6.921-4.919-9.109c-0.422,2.942-1.383,5.856-2.961,8.589
	C27.611,23.746,27.068,24.536,26.498,25.297z"/>
</svg>