<?xml version="1.0" encoding="utf-8"?>
<!-- Generator: Adobe Illustrator 15.1.0, SVG Export Plug-In  -->
<!DOCTYPE svg PUBLIC "-//W3C//DTD SVG 1.1//EN" "http://www.w3.org/Graphics/SVG/1.1/DTD/svg11.dtd" [
	<!ENTITY ns_flows "http://ns.adobe.com/Flows/1.0/">
]>
<svg version="1.1"
	 xmlns="http://www.w3.org/2000/svg" xmlns:xlink="http://www.w3.org/1999/xlink" xmlns:a="http://ns.adobe.com/AdobeSVGViewerExtensions/3.0/"
	 x="0px" y="0px" width="48px" height="48px" viewBox="0 0 48 48" overflow="visible" enable-background="new 0 0 48 48"
	 xml:space="preserve">
<defs>
</defs>
<path fill-rule="evenodd" clip-rule="evenodd" fill="#FFFFFF" d="M24,12c-6.627,0-12,5.373-12,12s5.373,12,12,12s12-5.373,12-12
	S30.627,12,24,12z M24,16c1.104,0,2,0.896,2,2s-0.896,2-2,2s-2-0.896-2-2S22.896,16,24,16z M24,32c-1.104,0-2-0.896-2-2s0.896-2,2-2
	s2,0.896,2,2S25.104,32,24,32z M31,25c0,0.552-0.447,1-1,1H18c-0.553,0-1-0.448-1-1v-2c0-0.552,0.447-1,1-1h12c0.553,0,1,0.448,1,1
	V25z"/>
</svg>