<?xml version="1.0" encoding="utf-8"?>
<!-- Generator: Adobe Illustrator 15.1.0, SVG Export Plug-In  -->
<!DOCTYPE svg PUBLIC "-//W3C//DTD SVG 1.1//EN" "http://www.w3.org/Graphics/SVG/1.1/DTD/svg11.dtd" [
	<!ENTITY ns_flows "http://ns.adobe.com/Flows/1.0/">
]>
<svg version="1.1"
	 xmlns="http://www.w3.org/2000/svg" xmlns:xlink="http://www.w3.org/1999/xlink" xmlns:a="http://ns.adobe.com/AdobeSVGViewerExtensions/3.0/"
	 x="0px" y="0px" width="48px" height="48px" viewBox="0 0 48 48" overflow="visible" enable-background="new 0 0 48 48"
	 xml:space="preserve">
<defs>
</defs>
<path fill-rule="evenodd" clip-rule="evenodd" fill="#FFFFFF" d="M24,21c-1.657,0-3,1.343-3,3s1.343,3,3,3s3-1.343,3-3
	S25.657,21,24,21z M24,19c1.104,0,2-0.896,2-2v-3c0-1.104-0.896-2-2-2s-2,0.896-2,2v3C22,18.104,22.896,19,24,19z M24,29
	c-1.104,0-2,0.896-2,2v3c0,1.104,0.896,2,2,2s2-0.896,2-2v-3C26,29.896,25.104,29,24,29z M34,22h-3c-1.104,0-2,0.896-2,2
	s0.896,2,2,2h3c1.104,0,2-0.896,2-2S35.104,22,34,22z M19,24c0-1.104-0.896-2-2-2h-3c-1.104,0-2,0.896-2,2s0.896,2,2,2h3
	C18.104,26,19,25.104,19,24z M30.364,27.535c-0.781-0.78-2.048-0.78-2.829,0c-0.78,0.781-0.78,2.048,0,2.829l2.122,2.121
	c0.78,0.781,2.047,0.781,2.828,0s0.781-2.048,0-2.828L30.364,27.535z M17.636,20.465c0.781,0.78,2.048,0.78,2.829,0
	c0.78-0.781,0.78-2.048,0-2.829l-2.122-2.121c-0.78-0.781-2.047-0.781-2.828,0s-0.781,2.048,0,2.828L17.636,20.465z M30.364,20.465
	l2.121-2.122c0.781-0.78,0.781-2.047,0-2.828s-2.048-0.781-2.828,0l-2.122,2.121c-0.78,0.781-0.78,2.048,0,2.829
	C28.316,21.245,29.583,21.245,30.364,20.465z M17.636,27.535l-2.121,2.122c-0.781,0.78-0.781,2.047,0,2.828s2.048,0.781,2.828,0
	l2.122-2.121c0.78-0.781,0.78-2.048,0-2.829C19.684,26.755,18.417,26.755,17.636,27.535z"/>
</svg>